<?xml version="1.0" encoding="UTF-8" standalone="no"?>
<svg width="286px" height="250px" viewBox="0 0 286 250" version="1.1" xmlns="http://www.w3.org/2000/svg" xmlns:xlink="http://www.w3.org/1999/xlink">
    <!-- Generator: Sketch 3.6.1 (26313) - http://www.bohemiancoding.com/sketch -->
    <title>logo-mobile</title>
    <desc>Created with Sketch.</desc>
    <defs>
        <linearGradient x1="57.408787%" y1="47.2610753%" x2="-2.50284221%" y2="69.3716189%" id="linearGradient-1">
            <stop stop-color="#952F34" offset="0%"></stop>
            <stop stop-color="#E61E26" offset="100%"></stop>
        </linearGradient>
    </defs>
    <g id="Page-1" stroke="none" stroke-width="1" fill="none" fill-rule="evenodd">
        <g id="logo-mobile">
            <g id="_x37_NEWS_Boston">
                <g id="Group" transform="translate(0.000000, 180.000000)" fill="#FFFFFF">
                    <path d="M0.8,1.9 L20.2,1.9 L45.4,38.9 L45.4,1.9 L64.9,1.9 L64.9,68.9 L45.4,68.9 L20.4,32.1 L20.4,68.9 L0.9,68.9 L0.9,1.9 L0.8,1.9 Z" id="Shape"></path>
                    <path d="M71.8,1.9 L127.4,1.9 L127.4,16.2 L92.6,16.2 L92.6,26.9 L124.9,26.9 L124.9,40.5 L92.6,40.5 L92.6,53.7 L128.4,53.7 L128.4,68.9 L71.8,68.9 L71.8,1.9 L71.8,1.9 Z" id="Shape"></path>
                    <path d="M131.6,1.9 L151.3,1.9 L158.4,39.3 L168.8,1.9 L188.3,1.9 L198.7,39.2 L205.8,1.9 L225.4,1.9 L210.6,68.9 L190.3,68.9 L178.6,26.7 L166.9,68.9 L146.6,68.9 L131.6,1.9 L131.6,1.9 Z" id="Shape"></path>
                    <path d="M224.2,46.8 L243.9,45.6 C244.3,48.8 245.2,51.2 246.5,52.9 C248.6,55.6 251.7,56.9 255.7,56.9 C258.7,56.9 261,56.2 262.6,54.8 C264.2,53.4 265,51.8 265,50 C265,48.3 264.2,46.7 262.7,45.3 C261.2,43.9 257.6,42.6 252.1,41.4 C243,39.4 236.5,36.6 232.6,33.3 C228.7,29.9 226.7,25.6 226.7,20.4 C226.7,17 227.7,13.7 229.7,10.6 C231.7,7.5 234.7,5.1 238.7,3.4 C242.7,1.7 248.2,0.8 255.2,0.8 C263.8,0.8 270.3,2.4 274.8,5.6 C279.3,8.8 282,13.8 282.8,20.8 L263.3,21.9 C262.8,18.9 261.7,16.7 260,15.3 C258.3,13.9 256,13.2 253.1,13.2 C250.7,13.2 248.9,13.7 247.6,14.7 C246.4,15.7 245.8,17 245.8,18.4 C245.8,19.5 246.3,20.4 247.3,21.3 C248.3,22.2 250.6,23 254.3,23.8 C263.4,25.7 269.9,27.7 273.8,29.7 C277.7,31.7 280.6,34.2 282.4,37.1 C284.2,40.1 285.1,43.4 285.1,47 C285.1,51.3 283.9,55.3 281.5,58.9 C279.1,62.5 275.8,65.3 271.5,67.2 C267.2,69.1 261.8,70 255.3,70 C243.9,70 236,67.8 231.6,63.4 C227.3,59.2 224.8,53.6 224.2,46.8 L224.2,46.8 Z" id="Shape"></path>
                </g>
                <g id="Group" transform="translate(58.000000, 0.000000)">
                    <path d="M84.9,152.9 C122.3,152.9 152.7,122.5 152.7,85.1 C152.7,47.7 122.3,17.3 84.9,17.3 C47.5,17.3 17.1,47.7 17.1,85.1 C17.1,122.5 47.5,152.9 84.9,152.9 L84.9,152.9 Z" id="Shape" fill="url(#linearGradient-1)"></path>
                    <g id="Shape" fill="#FFFFFF">
                        <path d="M0.8,84.5 C0.8,38 38.5,0.2 85,0.2 C131.5,0.2 169.2,37.9 169.2,84.5 C169.2,131 131.5,168.7 85,168.7 C38.5,168.8 0.8,131.1 0.8,84.5 L0.8,84.5 Z M85,146.2 C119.1,146.2 146.7,118.6 146.7,84.5 C146.7,50.4 119.1,22.8 85,22.8 C50.9,22.8 23.3,50.4 23.3,84.5 C23.3,118.6 50.9,146.2 85,146.2 L85,146.2 Z"></path>
                        <path d="M102.4,138 C102.8,134.6 105.2,117.6 115.3,100.9 C123.2,87.8 136.4,80 139.7,78.1 L140.7,77.6 C139.2,66.2 134.3,55.9 127,47.7 L126.4,47.7 L43,47.7 L42.7,47.7 C36.6,54.6 32.1,63 30,72.3 L31,72.3 L102,72.3 C102,72.3 92.7,85.1 85.1,103.7 C78.2,120.5 76,136.7 75.7,139.7 L75.6,140.5 C78.7,141 81.8,141.3 85.1,141.3 C91.2,141.3 97.1,140.3 102.6,138.5 L102.6,138 L102.4,138 Z"></path>
                    </g>
                </g>
            </g>
        </g>
    </g>
</svg>