<?xml version="1.0" encoding="UTF-8" standalone="no"?>
<svg width="768px" height="254px" viewBox="0 0 768 254" version="1.1" xmlns="http://www.w3.org/2000/svg" xmlns:xlink="http://www.w3.org/1999/xlink">
    <!-- Generator: Sketch 3.6.1 (26313) - http://www.bohemiancoding.com/sketch -->
    <title>logo-wsvn</title>
    <desc>Created with Sketch.</desc>
    <defs>
        <linearGradient x1="57.3761186%" y1="47.2773315%" x2="-2.51651728%" y2="69.3808173%" id="linearGradient-1">
            <stop stop-color="#963035" offset="0%"></stop>
            <stop stop-color="#E42328" offset="100%"></stop>
        </linearGradient>
        <linearGradient x1="0.00361935746%" y1="49.8724138%" x2="99.9987393%" y2="49.8724138%" id="linearGradient-2">
            <stop stop-color="#E42328" offset="0%"></stop>
            <stop stop-color="#963035" offset="100%"></stop>
        </linearGradient>
    </defs>
    <g id="Page-1" stroke="none" stroke-width="1" fill="none" fill-rule="evenodd">
        <g id="logo-wsvn">
            <path d="M274.8,27.2 L308.3,27.2 L351.9,91.3 L351.9,27.2 L385.7,27.2 L385.7,143.3 L351.9,143.3 L308.5,79.5 L308.5,143.3 L274.7,143.3 L274.7,27.2 L274.8,27.2 Z" id="Shape" fill="#FFFFFF"></path>
            <path d="M397.2,27.3 L493.5,27.3 L493.5,52 L433.2,52 L433.2,70.5 L489,70.5 L489,94.1 L433.1,94.1 L433.1,117 L495.1,117 L495.1,143.4 L397.1,143.4 L397.1,27.3 L397.2,27.3 Z" id="Shape" fill="#FFFFFF"></path>
            <path d="M500.8,27.3 L534.9,27.3 L547.2,92 L565.2,27.3 L599,27.3 L617,91.9 L629.3,27.3 L663.2,27.3 L637.6,143.4 L602.4,143.4 L582,70.3 L561.7,143.4 L526.5,143.4 L500.8,27.3 L500.8,27.3 Z" id="Shape" fill="#FFFFFF"></path>
            <path d="M661.8,105.1 L695.9,103 C696.6,108.5 698.2,112.7 700.4,115.6 C704.1,120.3 709.4,122.6 716.3,122.6 C721.4,122.6 725.4,121.4 728.2,119 C731,116.6 732.4,113.8 732.4,110.6 C732.4,107.6 731.1,104.9 728.4,102.5 C725.7,100.1 719.6,97.9 710,95.8 C694.2,92.3 683,87.6 676.3,81.7 C669.5,75.8 666.1,68.4 666.1,59.3 C666.1,53.3 667.8,47.7 671.3,42.4 C674.8,37.1 680,32.9 686.9,29.9 C693.8,26.9 703.4,25.3 715.5,25.3 C730.4,25.3 741.7,28.1 749.5,33.6 C757.3,39.1 761.9,47.9 763.4,59.9 L729.6,61.9 C728.7,56.7 726.8,52.9 723.9,50.5 C721,48.1 717,46.9 711.9,46.9 C707.7,46.9 704.6,47.8 702.5,49.6 C700.4,51.4 699.3,53.5 699.3,56.1 C699.3,57.9 700.2,59.6 701.9,61.1 C703.6,62.6 707.6,64.1 714,65.4 C729.7,68.8 740.9,72.2 747.7,75.7 C754.5,79.2 759.4,83.5 762.5,88.6 C765.6,93.7 767.1,99.5 767.1,105.8 C767.1,113.3 765,120.1 760.9,126.4 C756.8,132.7 751,137.5 743.6,140.7 C736.2,143.9 726.9,145.6 715.6,145.6 C695.8,145.6 682.1,141.8 674.5,134.2 C667.1,126.4 662.8,116.8 661.8,105.1 L661.8,105.1 Z" id="Shape" fill="#FFFFFF"></path>
            <path d="M126.8,229.3 C182.9,229.3 228.5,183.8 228.5,127.6 C228.5,71.5 183,25.9 126.8,25.9 C70.7,25.9 25.1,71.4 25.1,127.6 C25.1,183.7 70.6,229.3 126.8,229.3 L126.8,229.3 Z" id="Shape" fill="url(#linearGradient-1)"></path>
            <g id="Group" fill="#FFFFFF">
                <path d="M0.6,126.8 C0.6,57 57.2,0.5 126.9,0.5 C196.7,0.5 253.2,57.1 253.2,126.8 C253.2,196.6 196.6,253.1 126.9,253.1 C57.1,253.1 0.6,196.5 0.6,126.8 L0.6,126.8 Z M126.9,219.2 C178,219.2 219.4,177.8 219.4,126.7 C219.4,75.6 178,34.2 126.9,34.2 C75.8,34.2 34.4,75.6 34.4,126.7 C34.4,177.8 75.8,219.2 126.9,219.2 L126.9,219.2 Z" id="Shape"></path>
                <path d="M153,206.9 C153.6,201.7 157.2,176.3 172.4,151.3 C184.3,131.7 204,119.9 209,117.1 L210.5,116.4 C208.2,99.3 200.9,83.9 190,71.6 L189.1,71.5 L64.1,71.5 L63.6,71.5 C54.4,81.8 47.8,94.5 44.6,108.4 L46,108.4 L152.3,108.4 C152.3,108.4 138.4,127.6 126.9,155.5 C116.6,180.6 113.3,205 112.8,209.5 L112.6,210.7 C117.2,211.5 122,211.9 126.8,211.9 C136,211.9 144.8,210.4 153,207.7 L153,206.9 L153,206.9 Z" id="Shape"></path>
            </g>
            <g id="Group" transform="translate(275.000000, 175.000000)" fill="#FFFFFF">
                <path d="M0.5,54.7 L0.5,2 L25.9,2 C31.4,2 35.3,2.1 37.8,2.4 C40.3,2.6 42.4,3 44.2,3.6 C47.3,4.6 49.7,6.2 51.4,8.3 C53.1,10.4 53.9,13 53.9,16 C53.9,18.4 53.3,20.5 52,22.2 C50.8,24 48.9,25.4 46.4,26.6 C49.7,27.6 52.1,29.1 53.7,31.1 C55.3,33.1 56.1,35.7 56.1,38.9 C56.1,42 55.3,44.7 53.8,47 C52.3,49.3 50,51.1 47.1,52.3 C45.1,53.2 42.9,53.8 40.4,54.1 C37.9,54.5 33.7,54.6 27.9,54.6 L0.5,54.6 L0.5,54.7 Z M19.8,23 L28,23 C30.7,23 32.7,22.7 33.8,22 C34.9,21.3 35.5,20.1 35.5,18.5 C35.5,16.8 34.9,15.6 33.7,14.9 C32.5,14.3 29.7,13.9 25.3,13.9 L19.8,13.9 L19.8,23 L19.8,23 Z M19.8,42.4 L29,42.4 C32.1,42.4 34.2,42 35.5,41.3 C36.8,40.5 37.4,39.3 37.4,37.5 C37.4,35.7 36.7,34.5 35.4,33.8 C34.1,33.1 31.9,32.7 28.8,32.7 L19.8,32.7 L19.8,42.4 L19.8,42.4 Z" id="Shape"></path>
                <path d="M61.4,28.4 C61.4,19.8 64.3,13.1 70,8.1 C75.8,3.1 83.6,0.7 93.6,0.7 C103.5,0.7 111.4,3.2 117.1,8.1 C122.8,13.1 125.7,19.8 125.7,28.4 C125.7,37 122.8,43.7 117.1,48.7 C111.4,53.7 103.5,56.2 93.6,56.2 C83.6,56.2 75.8,53.7 70,48.7 C64.3,43.7 61.4,36.9 61.4,28.4 L61.4,28.4 Z M81.5,28.4 C81.5,33.4 82.5,37 84.4,39.4 C86.4,41.7 89.4,42.9 93.6,42.9 C97.8,42.9 100.8,41.7 102.7,39.4 C104.6,37.1 105.6,33.4 105.6,28.4 C105.6,23.4 104.6,19.7 102.7,17.4 C100.8,15.1 97.7,13.9 93.6,13.9 C89.4,13.9 86.4,15.1 84.4,17.4 C82.5,19.7 81.5,23.4 81.5,28.4 L81.5,28.4 Z" id="Shape"></path>
                <path d="M130.2,38.3 L149.5,38.3 C150,40.2 151,41.6 152.4,42.4 C153.8,43.2 155.9,43.7 158.7,43.7 C161,43.7 162.9,43.4 164.2,42.7 C165.5,42 166.2,41.1 166.2,39.9 C166.2,38 163.4,36.4 157.8,35.3 C156.7,35.1 155.8,34.9 155.2,34.8 C150.6,33.8 147,32.9 144.3,32.1 C141.6,31.3 139.6,30.5 138.4,29.8 C136,28.3 134.2,26.6 133,24.6 C131.8,22.6 131.2,20.3 131.2,17.7 C131.2,12.5 133.5,8.4 138.1,5.4 C142.7,2.4 149.1,0.9 157.2,0.9 C165.2,0.9 171.4,2.3 176,5.2 C180.6,8 183.1,12.1 183.7,17.4 L165,17.4 C164.7,15.9 163.9,14.7 162.6,13.9 C161.3,13.1 159.4,12.8 157,12.8 C154.9,12.8 153.3,13.1 152.2,13.7 C151.2,14.3 150.6,15.2 150.6,16.4 C150.6,18.1 153.3,19.6 158.8,20.8 C159.3,20.9 159.6,21 159.9,21.1 C160.7,21.3 161.9,21.5 163.5,21.9 C170.7,23.4 175.4,24.9 177.6,26.1 C180.3,27.6 182.4,29.4 183.6,31.4 C184.9,33.4 185.5,35.7 185.5,38.4 C185.5,44.2 183.1,48.7 178.3,51.8 C173.5,54.9 166.7,56.5 157.8,56.5 C149.6,56.5 143.1,54.9 138.3,51.8 C133.5,48.3 130.8,43.9 130.2,38.3 L130.2,38.3 Z" id="Shape"></path>
                <path d="M205.8,54.7 L205.8,15.9 L188,15.9 L188,2 L243.6,2 L243.6,15.9 L225.8,15.9 L225.8,54.7 L205.8,54.7 L205.8,54.7 Z" id="Shape"></path>
                <path d="M245.6,28.4 C245.6,19.8 248.5,13.1 254.2,8.1 C260,3.1 267.8,0.7 277.8,0.7 C287.7,0.7 295.6,3.2 301.3,8.1 C307,13.1 309.9,19.8 309.9,28.4 C309.9,37 307,43.7 301.3,48.7 C295.6,53.7 287.7,56.2 277.8,56.2 C267.8,56.2 260,53.7 254.2,48.7 C248.5,43.7 245.6,36.9 245.6,28.4 L245.6,28.4 Z M265.7,28.4 C265.7,33.4 266.7,37 268.6,39.4 C270.6,41.7 273.6,42.9 277.8,42.9 C282,42.9 285,41.7 286.9,39.4 C288.8,37.1 289.8,33.4 289.8,28.4 C289.8,23.4 288.8,19.7 286.9,17.4 C285,15.1 281.9,13.9 277.8,13.9 C273.6,13.9 270.6,15.1 268.6,17.4 C266.6,19.7 265.7,23.4 265.7,28.4 L265.7,28.4 Z" id="Shape"></path>
                <path d="M317.3,54.7 L317.3,2 L336.2,2 L353.6,26.5 C354.1,27.2 354.7,28.2 355.3,29.4 C355.9,30.7 356.5,32.2 357.2,34 C357,33.1 356.9,32 356.8,30.9 C356.7,29.8 356.7,28.4 356.7,26.8 L356.7,2 L375.7,2 L375.7,54.7 L356.7,54.7 L339.3,30.4 C338.8,29.7 338.2,28.7 337.6,27.4 C337,26.1 336.3,24.6 335.7,22.9 C335.9,23.8 336,24.8 336.1,25.8 C336.2,26.8 336.2,28.2 336.2,30.1 L336.2,54.8 L317.3,54.8 L317.3,54.7 Z" id="Shape"></path>
            </g>
            <rect id="Rectangle-path" fill="url(#linearGradient-2)" x="274.7" y="151.1" width="491.8" height="14.5"></rect>
        </g>
    </g>
</svg>