<?xml version="1.0" encoding="UTF-8" standalone="no"?>
<svg width="513px" height="170px" viewBox="0 0 513 170" version="1.1" xmlns="http://www.w3.org/2000/svg" xmlns:xlink="http://www.w3.org/1999/xlink">
    <!-- Generator: Sketch 3.6.1 (26313) - http://www.bohemiancoding.com/sketch -->
    <title>logo-whdh</title>
    <desc>Created with Sketch.</desc>
    <defs>
        <linearGradient x1="57.3909863%" y1="47.3102663%" x2="-2.52059709%" y2="69.4207641%" id="linearGradient-1">
            <stop stop-color="#952F34" offset="0%"></stop>
            <stop stop-color="#E61E26" offset="100%"></stop>
        </linearGradient>
        <linearGradient x1="-0.0122865854%" y1="49.5886598%" x2="99.9735366%" y2="49.5886598%" id="linearGradient-2">
            <stop stop-color="#E61E26" offset="0%"></stop>
            <stop stop-color="#952F34" offset="100%"></stop>
        </linearGradient>
    </defs>
    <g id="Page-1" stroke="none" stroke-width="1" fill="none" fill-rule="evenodd">
        <g id="logo-whdh">
            <g id="_x37_NEWS_Boston">
                <path d="M183.8,20.7 L206.2,20.7 L235.3,63.5 L235.3,20.7 L257.8,20.7 L257.8,98.1 L235.3,98.1 L206.4,55.6 L206.4,98.1 L183.9,98.1 L183.9,20.7 L183.8,20.7 Z" id="Shape" fill="#FFFFFF"></path>
                <path d="M265.7,20.7 L330,20.7 L330,37.2 L289.8,37.2 L289.8,49.5 L327,49.5 L327,65.3 L289.7,65.3 L289.7,80.6 L331,80.6 L331,98.2 L265.7,98.2 L265.7,20.7 L265.7,20.7 Z" id="Shape" fill="#FFFFFF"></path>
                <path d="M334.9,20.7 L357.6,20.7 L365.8,63.9 L377.8,20.7 L400.3,20.7 L412.3,63.7 L420.5,20.7 L443.1,20.7 L426,98.1 L402.5,98.1 L388.9,49.4 L375.4,98.1 L351.9,98.1 L334.9,20.7 L334.9,20.7 Z" id="Shape" fill="#FFFFFF"></path>
                <path d="M441.9,72.6 L464.7,71.2 C465.2,74.9 466.2,77.7 467.7,79.6 C470.2,82.7 473.7,84.3 478.3,84.3 C481.7,84.3 484.4,83.5 486.2,81.9 C488.1,80.3 489,78.4 489,76.3 C489,74.3 488.1,72.5 486.3,70.9 C484.5,69.3 480.4,67.8 474,66.4 C463.5,64 456,60.9 451.5,57 C447,53.1 444.7,48.1 444.7,42.1 C444.7,38.1 445.9,34.4 448.2,30.8 C450.5,27.3 454,24.5 458.6,22.5 C463.2,20.5 469.6,19.5 477.6,19.5 C487.5,19.5 495.1,21.3 500.3,25 C505.5,28.7 508.6,34.5 509.6,42.5 L487.1,43.8 C486.5,40.3 485.2,37.8 483.3,36.2 C481.4,34.6 478.7,33.8 475.3,33.8 C472.5,33.8 470.4,34.4 469,35.6 C467.6,36.8 466.9,38.2 466.9,39.9 C466.9,41.1 467.5,42.2 468.6,43.2 C469.7,44.2 472.4,45.2 476.6,46.1 C487.1,48.3 494.6,50.6 499.1,52.9 C503.6,55.2 506.9,58.1 509,61.5 C511.1,64.9 512.1,68.7 512.1,73 C512.1,78 510.7,82.6 508,86.7 C505.2,90.9 501.4,94.1 496.5,96.2 C491.6,98.4 485.3,99.4 477.8,99.4 C464.6,99.4 455.5,96.9 450.4,91.8 C445.5,86.8 442.6,80.4 441.9,72.6 L441.9,72.6 Z" id="Shape" fill="#FFFFFF"></path>
                <path d="M85.1,153.5 C122.5,153.5 152.9,123.1 152.9,85.7 C152.9,48.3 122.5,17.9 85.1,17.9 C47.7,17.9 17.3,48.3 17.3,85.7 C17.3,123.2 47.7,153.5 85.1,153.5 L85.1,153.5 Z" id="Shape" fill="url(#linearGradient-1)"></path>
                <g id="Group" fill="#FFFFFF">
                    <path d="M0.9,85.2 C0.9,38.7 38.6,0.9 85.1,0.9 C131.6,0.9 169.3,38.6 169.3,85.2 C169.3,131.7 131.6,169.4 85.1,169.4 C38.7,169.4 0.9,131.7 0.9,85.2 L0.9,85.2 Z M85.2,146.9 C119.3,146.9 146.9,119.3 146.9,85.2 C146.9,51.1 119.3,23.5 85.2,23.5 C51.1,23.5 23.5,51.1 23.5,85.2 C23.5,119.3 51.1,146.9 85.2,146.9 L85.2,146.9 Z" id="Shape"></path>
                    <path d="M102.6,138.6 C103,135.2 105.4,118.2 115.5,101.5 C123.4,88.4 136.6,80.6 139.9,78.7 L140.9,78.2 C139.4,66.8 134.5,56.5 127.2,48.3 L126.6,48.3 L43.2,48.3 L42.9,48.3 C36.8,55.2 32.3,63.6 30.2,72.9 L31.2,72.9 L102.1,72.9 C102.1,72.9 92.8,85.7 85.2,104.3 C78.3,121.1 76.1,137.3 75.8,140.3 L75.7,141.1 C78.8,141.6 81.9,141.9 85.2,141.9 C91.3,141.9 97.2,140.9 102.7,139.1 L102.7,138.6 L102.6,138.6 Z" id="Shape"></path>
                </g>
                <g id="Group" transform="translate(184.000000, 119.000000)" fill="#FFFFFF">
                    <path d="M12.2,36.1 L0.2,36.1 L0.2,1 L16.4,1 L22.1,18.5 C22.2,18.7 22.3,19.3 22.5,20.1 C22.7,21 23,22.1 23.5,23.6 C23.8,22.4 24,21.4 24.2,20.5 C24.4,19.6 24.6,19 24.8,18.5 L30.7,0.9 L46.8,0.9 L46.8,36 L34.8,36 L34.9,18.7 L34.9,15.6 L34.9,12.5 C34.5,14.3 33.9,16.3 33.3,18.4 L33.2,18.7 L28.1,35.9 L18.8,35.9 L13.6,19.1 C13.4,18.3 13.1,17.5 12.9,16.5 C12.7,15.5 12.3,14.2 11.9,12.5 C12,14 12,15.3 12,16.4 L12,19 L12,36.1 L12.2,36.1 Z" id="Shape"></path>
                    <path d="M52.5,36.1 L52.5,1 L66,1 L66,36.1 L52.5,36.1 L52.5,36.1 Z" id="Shape"></path>
                    <path d="M68.9,36.1 L83.4,1 L96.8,1 L111.3,36.1 L98.1,36.1 L96.6,31.5 L83.4,31.5 L81.8,36.1 L68.9,36.1 L68.9,36.1 Z M85.9,24.1 L94.2,24.1 L90.1,11.9 L85.9,24.1 L85.9,24.1 Z" id="Shape"></path>
                    <path d="M126,36.1 L114,36.1 L114,1 L130.2,1 L135.9,18.5 C136,18.7 136.1,19.3 136.3,20.1 C136.5,21 136.8,22.1 137.3,23.6 C137.6,22.4 137.8,21.4 138,20.5 C138.2,19.6 138.4,19 138.6,18.5 L144.5,0.9 L160.6,0.9 L160.6,36 L148.6,36 L148.7,18.7 L148.7,15.6 L148.7,12.5 C148.3,14.3 147.7,16.3 147.1,18.4 L147,18.7 L141.9,35.9 L132.6,35.9 L127.4,19.1 C127.2,18.3 126.9,17.5 126.7,16.5 C126.5,15.5 126.1,14.2 125.7,12.5 C125.8,14 125.8,15.3 125.8,16.4 L125.8,19 L125.8,36.1 L126,36.1 Z" id="Shape"></path>
                    <path d="M166.3,36.1 L166.3,1 L179.8,1 L179.8,36.1 L166.3,36.1 L166.3,36.1 Z" id="Shape"></path>
                </g>
                <rect id="Rectangle-path" fill="url(#linearGradient-2)" x="183.8" y="103.3" width="328" height="9.7"></rect>
            </g>
        </g>
    </g>
</svg>