<?xml version="1.0" encoding="utf-8"?>
<!-- Generator: Adobe Illustrator 16.0.0, SVG Export Plug-In . SVG Version: 6.00 Build 0)  -->
<!DOCTYPE svg PUBLIC "-//W3C//DTD SVG 1.1//EN" "http://www.w3.org/Graphics/SVG/1.1/DTD/svg11.dtd">
<svg version="1.1" id="Layer_1" xmlns="http://www.w3.org/2000/svg" xmlns:xlink="http://www.w3.org/1999/xlink" x="0px" y="0px"
	 width="400px" height="400px" viewBox="0 0 400 400" enable-background="new 0 0 400 400" xml:space="preserve">
<g>
	<g>
		
			<linearGradient id="SVGID_1_" gradientUnits="userSpaceOnUse" x1="198.9883" y1="11.8018" x2="363.0429" y2="52.7052" gradientTransform="matrix(1 0 0 -1 -106 205)">
			<stop  offset="0" style="stop-color:#A1A1A0"/>
			<stop  offset="1" style="stop-color:#FFFFFF"/>
		</linearGradient>
		<path fill="url(#SVGID_1_)" d="M68.893,249.836c-17.302,0-31.332-14.031-31.332-31.334c0-14.588,9.978-26.847,23.477-30.333
			c-0.781-3.691-1.196-7.517-1.196-11.441c0-30.139,24.256-54.618,54.304-54.996c6.833-35.691,38.217-62.673,75.899-62.673
			c30.454,0,56.789,17.628,69.385,43.228c4.836-1.833,10.079-2.846,15.561-2.846c24.222,0,43.861,19.644,43.861,43.866
			c0,3.609-0.439,7.118-1.261,10.473c25.438,0.805,45.824,21.681,45.824,47.318c0,26.143-21.203,47.346-47.346,47.346
			C269.471,248.443,156.074,249.836,68.893,249.836z"/>
		
			<linearGradient id="SVGID_2_" gradientUnits="userSpaceOnUse" x1="381.0508" y1="54.9922" x2="259.9066" y2="-36.2964" gradientTransform="matrix(1 0 0 -1 -106 205)">
			<stop  offset="0" style="stop-color:#A1A1A0"/>
			<stop  offset="1" style="stop-color:#FFFFFF"/>
		</linearGradient>
		<path fill="url(#SVGID_2_)" d="M288.055,248.544c-52.012,0.302-135.936,1.183-206.396,1.282
			c-6.035-7.852-9.408-17.809-8.852-28.463c1.187-22.684,19.742-40.354,42.097-40.8c-0.052-1.094-0.05-2.201,0.008-3.32
			c0.961-18.358,16.634-32.475,34.99-31.516c4.746,0.249,9.206,1.481,13.197,3.49c10.323-16.66,29.168-27.334,50.117-26.24
			c29.082,1.519,51.765,25.171,52.587,53.779c18.984,6.907,32.09,25.596,30.981,46.814
			C296.295,232.904,293.123,241.466,288.055,248.544z"/>
		
			<linearGradient id="SVGID_3_" gradientUnits="userSpaceOnUse" x1="329.2451" y1="22.6885" x2="366.5627" y2="-61.1282" gradientTransform="matrix(1 0 0 -1 -106 205)">
			<stop  offset="0" style="stop-color:#A1A1A0"/>
			<stop  offset="1" style="stop-color:#FFFFFF"/>
		</linearGradient>
		<path fill="url(#SVGID_3_)" d="M348.652,235.439c-8.488,8.058-19.961,13.004-32.584,13.004c-32.701,0-98.299,0.685-164.646,1.097
			c5.337-10.753,14.667-19.238,26.149-23.417c0.822-28.607,23.507-52.26,52.586-53.782c20.948-1.094,39.797,9.583,50.118,26.24
			c3.99-2.006,8.449-3.238,13.195-3.487c18.358-0.959,34.031,13.155,34.99,31.516c0.061,1.117,0.061,2.225,0.009,3.32
			C335.759,230.075,342.645,232.057,348.652,235.439z"/>
	</g>
	
		<linearGradient id="SVGID_4_" gradientUnits="userSpaceOnUse" x1="290.8184" y1="-85.4668" x2="176.554" y2="-138.7491" gradientTransform="matrix(1 0 0 -1 -106 205)">
		<stop  offset="0" style="stop-color:#5BBFD5"/>
		<stop  offset="1" style="stop-color:#293787"/>
	</linearGradient>
	<path fill="url(#SVGID_4_)" d="M66.199,287.265c-0.821,0.772-1.952,0.497-2.524-0.61c-0.571-1.108-0.369-2.634,0.454-3.404
		c16.082-15.065,31.824-21.407,47.548-20.807c15.672,0.594,31.248,8.092,47.067,20.709c15.256,12.172,30.871,16.965,46.576,16.32
		c15.766-0.645,31.667-6.777,47.414-16.443c0.913-0.56,1.991-0.016,2.405,1.215c0.416,1.231,0.013,2.682-0.902,3.244
		c-16.141,9.903-32.502,16.191-48.813,16.864c-16.373,0.67-32.642-4.323-48.522-16.989c-15.315-12.219-30.324-19.476-45.324-20.043
		C96.631,266.75,81.611,272.83,66.199,287.265L66.199,287.265z M66.199,325.447c15.412-14.438,30.433-20.517,45.378-19.949
		c15,0.568,30.008,7.824,45.324,20.043c15.881,12.67,32.15,17.66,48.522,16.99c16.312-0.67,32.673-6.957,48.813-16.865
		c0.914-0.56,1.317-2.012,0.903-3.24c-0.416-1.232-1.493-1.776-2.406-1.217c-15.747,9.664-31.648,15.799-47.414,16.445
		c-15.705,0.646-31.32-4.15-46.576-16.32c-15.819-12.621-31.395-20.118-47.067-20.713c-15.724-0.598-31.466,5.744-47.548,20.808
		c-0.823,0.772-1.025,2.295-0.454,3.405C64.247,325.943,65.377,326.216,66.199,325.447L66.199,325.447z M66.199,306.355
		c15.412-14.438,30.433-20.515,45.378-19.945c15,0.568,30.008,7.826,45.324,20.043c15.881,12.668,32.15,17.66,48.522,16.987
		c16.312-0.67,32.673-6.958,48.813-16.864c0.914-0.561,1.317-2.013,0.903-3.242c-0.415-1.229-1.493-1.772-2.406-1.213
		c-15.747,9.664-31.648,15.795-47.414,16.442c-15.705,0.646-31.32-4.149-46.576-16.319c-15.819-12.621-31.395-20.116-47.067-20.713
		c-15.724-0.599-31.466,5.743-47.548,20.811c-0.823,0.77-1.025,2.295-0.454,3.4C64.247,306.852,65.377,307.125,66.199,306.355z"/>
</g>
<g>
	<g>
		
			<linearGradient id="SVGID_5_" gradientUnits="userSpaceOnUse" x1="377.6279" y1="-58.7979" x2="364.4845" y2="-82.5093" gradientTransform="matrix(1 0 0 -1 -106 205)">
			<stop  offset="0" style="stop-color:#5BBFD5"/>
			<stop  offset="1" style="stop-color:#FFFFFF"/>
		</linearGradient>
		<path fill="url(#SVGID_5_)" d="M266.988,254.374l1.226,0.062l0.071,3.52l3.036-1.583v1.32l-2.998,2.064l0.024,1.177l2.974-1.549
			v1.319l-2.936,2.022l0.063,3.132l3.277-1.701v3.454l2.816-1.548l0.283-3.555l1.143-0.66l0.143,3.351l1.033-0.568l0.29-3.629
			l1.144-0.659l0.145,3.421l3.084-1.698l0.666,1.032l-3.201,1.874l2.879,1.83l-1.145,0.66l-3.303-1.571l-1.022,0.599l2.86,1.819
			l-1.145,0.659l-3.281-1.561l-3.09,1.81l3.371,1.885l-2.826,1.861l2.545,1.489l3.281-1.561l1.145,0.66l-2.86,1.818l1.022,0.599
			l3.303-1.571l1.145,0.66l-2.879,1.83l3.201,1.874l-0.666,1.032l-3.084-1.697l-0.145,3.42l-1.144-0.659l-0.29-3.628l-1.033-0.569
			l-0.143,3.351l-1.143-0.66l-0.283-3.554l-2.828-1.558v3.463l-3.279-1.701l-0.02,2.957l2.993,2.061v1.321l-3.004-1.568
			l-0.008,1.186l3.012,2.075v1.321l-3.024-1.577l-0.021,3.708l-1.227-0.061l-0.072-3.52l-3.033,1.583v-1.319l2.996-2.066
			l-0.025-1.177l-2.971,1.549v-1.319l2.934-2.022L266.9,276l-3.277,1.701v-3.454l-2.814,1.548l-0.284,3.555l-1.144,0.66
			l-0.142-3.351l-1.034,0.569l-0.289,3.628l-1.143,0.659l-0.146-3.42l-3.084,1.697l-0.666-1.032l3.201-1.874l-2.877-1.83l1.143-0.66
			l3.303,1.571l1.023-0.599l-2.86-1.818l1.143-0.66l3.282,1.561l3.09-1.81l-3.371-1.885l2.826-1.861l-2.545-1.489l-3.282,1.562
			l-1.143-0.661l2.86-1.818l-1.023-0.599l-3.303,1.571l-1.143-0.66l2.877-1.83l-3.201-1.874l0.666-1.032l3.084,1.697l0.146-3.42
			l1.143,0.659l0.289,3.629l1.034,0.568l0.142-3.351l1.144,0.66l0.284,3.555l2.828,1.555v-3.461l3.278,1.701l0.02-2.957
			l-2.992-2.061v-1.321l3.003,1.568l0.008-1.186l-3.011-2.075v-1.321l3.022,1.577L266.988,254.374L266.988,254.374z
			 M267.666,270.091c-0.473,0-0.855,0.382-0.855,0.853c0,0.473,0.383,0.854,0.855,0.854c0.472,0,0.854-0.382,0.854-0.854
			C268.52,270.473,268.138,270.091,267.666,270.091L267.666,270.091z M270.349,270.201l-1.246,0.729l2.102,1.23l1.35-0.888
			L270.349,270.201L270.349,270.201z M266.248,270.931l-2.102-1.231l-1.35,0.888l2.207,1.072L266.248,270.931L266.248,270.931z
			 M265.046,273.466v1.767l1.817-1.079l-0.036-1.668L265.046,273.466L265.046,273.466z M268.458,272.451l-0.01,1.687l1.844,1.095
			v-1.772L268.458,272.451L268.458,272.451z M270.305,268.395v-1.766l-1.817,1.078l0.034,1.668L270.305,268.395L270.305,268.395z
			 M266.893,269.409l0.012-1.687l-1.846-1.094v1.772L266.893,269.409z"/>
		
			<linearGradient id="SVGID_6_" gradientUnits="userSpaceOnUse" x1="424.6748" y1="-58.7983" x2="411.5318" y2="-82.5089" gradientTransform="matrix(1 0 0 -1 -106 205)">
			<stop  offset="0" style="stop-color:#5BBFD5"/>
			<stop  offset="1" style="stop-color:#FFFFFF"/>
		</linearGradient>
		<path fill="url(#SVGID_6_)" d="M314.033,254.373l1.226,0.062l0.073,3.52l3.034-1.583v1.32l-2.996,2.064l0.023,1.177l2.974-1.549
			v1.319l-2.936,2.022l0.063,3.132l3.278-1.701v3.454l2.814-1.548l0.285-3.555l1.143-0.66l0.143,3.351l1.032-0.568l0.291-3.629
			l1.143-0.659l0.147,3.421l3.083-1.698l0.665,1.032l-3.201,1.874l2.878,1.83l-1.143,0.66l-3.302-1.571l-1.023,0.599l2.859,1.819
			l-1.144,0.659l-3.281-1.561l-3.091,1.81l3.373,1.885l-2.826,1.861l2.544,1.489l3.282-1.561l1.143,0.66l-2.859,1.818l1.023,0.599
			l3.303-1.571l1.143,0.66l-2.878,1.83l3.201,1.874l-0.666,1.032l-3.083-1.697l-0.146,3.42l-1.144-0.659l-0.29-3.628l-1.032-0.569
			l-0.144,3.351l-1.143-0.66l-0.284-3.554l-2.828-1.558v3.463L315.481,276l-0.019,2.957l2.994,2.061v1.321l-3.005-1.568
			l-0.007,1.186l3.012,2.075v1.321l-3.022-1.577l-0.023,3.708l-1.227-0.061l-0.073-3.52l-3.034,1.583v-1.319l2.996-2.066
			l-0.022-1.177l-2.974,1.549v-1.319l2.936-2.022l-0.063-3.132l-3.278,1.701v-3.454l-2.816,1.548l-0.283,3.555l-1.143,0.66
			l-0.144-3.351l-1.033,0.569l-0.289,3.628l-1.144,0.659l-0.146-3.42l-3.083,1.697l-0.666-1.032l3.201-1.874l-2.878-1.83l1.144-0.66
			l3.302,1.571l1.022-0.599l-2.858-1.818l1.143-0.66l3.283,1.561l3.089-1.81l-3.373-1.885l2.826-1.861l-2.544-1.489l-3.281,1.562
			l-1.143-0.661l2.858-1.818l-1.022-0.599l-3.303,1.571l-1.143-0.66l2.877-1.83l-3.2-1.874l0.665-1.032l3.084,1.697l0.146-3.42
			l1.144,0.659l0.289,3.629l1.034,0.568l0.143-3.351l1.144,0.66l0.283,3.555l2.829,1.555v-3.461l3.278,1.701l0.018-2.957
			l-2.992-2.061v-1.321l3.004,1.568l0.008-1.186l-3.012-2.075v-1.321l3.023,1.577L314.033,254.373L314.033,254.373z M314.711,270.09
			c-0.472,0-0.854,0.382-0.854,0.853c0,0.473,0.382,0.854,0.854,0.854s0.854-0.382,0.854-0.854
			C315.565,270.472,315.183,270.09,314.711,270.09L314.711,270.09z M317.394,270.2l-1.244,0.729l2.102,1.23l1.347-0.888
			L317.394,270.2L317.394,270.2z M313.293,270.93l-2.102-1.231l-1.349,0.888l2.206,1.072L313.293,270.93L313.293,270.93z
			 M312.091,273.465v1.767l1.817-1.079l-0.034-1.668L312.091,273.465L312.091,273.465z M315.504,272.45l-0.011,1.687l1.846,1.095
			v-1.772L315.504,272.45L315.504,272.45z M317.352,268.394v-1.766l-1.817,1.078l0.034,1.668L317.352,268.394L317.352,268.394z
			 M313.938,269.408l0.012-1.687l-1.846-1.094v1.772L313.938,269.408z"/>
		
			<linearGradient id="SVGID_7_" gradientUnits="userSpaceOnUse" x1="440.0537" y1="-93.4302" x2="431.9467" y2="-108.0555" gradientTransform="matrix(1 0 0 -1 -106 205)">
			<stop  offset="0" style="stop-color:#5BBFD5"/>
			<stop  offset="1" style="stop-color:#FFFFFF"/>
		</linearGradient>
		<path fill="url(#SVGID_7_)" d="M331.19,292.615l0.757,0.038l0.045,2.171l1.871-0.977v0.814l-1.848,1.274l0.015,0.726l1.834-0.956
			v0.814l-1.811,1.247l0.039,1.932l2.022-1.049v2.131l1.736-0.955l0.176-2.192l0.704-0.408l0.088,2.067l0.638-0.351l0.18-2.238
			l0.704-0.407l0.091,2.11l1.901-1.047l0.411,0.637l-1.975,1.155l1.775,1.129l-0.705,0.407l-2.037-0.969l-0.631,0.369l1.764,1.122
			l-0.705,0.406l-2.024-0.962l-1.907,1.116l2.081,1.162l-1.743,1.148l1.569,0.919l2.024-0.963l0.705,0.407l-1.764,1.122l0.631,0.369
			l2.037-0.969l0.705,0.407l-1.775,1.129l1.975,1.155l-0.411,0.637l-1.901-1.047l-0.09,2.11l-0.705-0.407l-0.18-2.237l-0.637-0.352
			l-0.089,2.066l-0.704-0.407l-0.176-2.192l-1.744-0.961v2.137l-2.023-1.049l-0.012,1.823l1.848,1.271v0.814l-1.854-0.967
			l-0.004,0.731l1.857,1.28v0.814l-1.864-0.974l-0.015,2.288l-0.757-0.038l-0.045-2.17l-1.872,0.977v-0.814l1.849-1.275
			l-0.015-0.726l-1.834,0.956v-0.813l1.811-1.248l-0.039-1.932l-2.022,1.049v-2.131l-1.736,0.955l-0.176,2.193l-0.704,0.407
			l-0.089-2.067l-0.637,0.352l-0.179,2.237l-0.705,0.407l-0.091-2.109l-1.901,1.046l-0.411-0.636l1.975-1.156l-1.775-1.129
			l0.705-0.407l2.038,0.969l0.63-0.369l-1.763-1.121l0.704-0.407l2.025,0.962l1.905-1.116l-2.081-1.162l1.744-1.148l-1.569-0.919
			l-2.024,0.963l-0.704-0.407l1.763-1.121l-0.63-0.37l-2.038,0.969l-0.705-0.407l1.774-1.129l-1.974-1.155l0.41-0.637l1.902,1.047
			l0.09-2.109l0.705,0.406l0.179,2.238l0.638,0.351l0.088-2.066l0.705,0.407l0.176,2.193l1.744,0.958v-2.135l2.022,1.05l0.012-1.824
			l-1.847-1.271v-0.814l1.854,0.968l0.005-0.732l-1.858-1.279v-0.815l1.866,0.974L331.19,292.615L331.19,292.615z M331.608,302.311
			c-0.291,0-0.526,0.235-0.526,0.526s0.235,0.527,0.526,0.527s0.527-0.236,0.527-0.527S331.899,302.311,331.608,302.311
			L331.608,302.311z M333.264,302.379l-0.768,0.45l1.297,0.759l0.831-0.548L333.264,302.379L333.264,302.379z M330.734,302.829
			l-1.296-0.761l-0.833,0.548l1.361,0.662L330.734,302.829L330.734,302.829z M329.993,304.393v1.09l1.121-0.666l-0.021-1.029
			L329.993,304.393L329.993,304.393z M332.099,303.767l-0.007,1.04l1.139,0.676v-1.093L332.099,303.767L332.099,303.767z
			 M333.238,301.265v-1.09l-1.122,0.665l0.021,1.029L333.238,301.265L333.238,301.265z M331.132,301.89l0.007-1.04l-1.138-0.675
			v1.094L331.132,301.89z"/>
		
			<linearGradient id="SVGID_8_" gradientUnits="userSpaceOnUse" x1="385.7939" y1="-117.3457" x2="377.6865" y2="-131.9718" gradientTransform="matrix(1 0 0 -1 -106 205)">
			<stop  offset="0" style="stop-color:#5BBFD5"/>
			<stop  offset="1" style="stop-color:#FFFFFF"/>
		</linearGradient>
		<path fill="url(#SVGID_8_)" d="M276.931,316.531l0.757,0.038l0.045,2.171l1.871-0.977v0.814l-1.848,1.274l0.015,0.726l1.834-0.956
			v0.814l-1.811,1.247l0.039,1.932l2.022-1.049v2.131l1.736-0.955l0.176-2.192l0.704-0.408l0.088,2.067l0.638-0.351l0.18-2.238
			l0.704-0.407l0.091,2.11l1.901-1.047l0.411,0.637l-1.975,1.155l1.775,1.129l-0.705,0.407l-2.037-0.969l-0.631,0.369l1.764,1.122
			l-0.705,0.406l-2.024-0.962l-1.907,1.116l2.081,1.162l-1.743,1.148l1.569,0.919l2.024-0.963l0.705,0.407l-1.764,1.122l0.631,0.369
			l2.037-0.969l0.705,0.407l-1.775,1.129l1.975,1.155l-0.411,0.637l-1.901-1.047l-0.09,2.11l-0.705-0.407l-0.18-2.237l-0.637-0.352
			l-0.089,2.066l-0.704-0.407l-0.176-2.192l-1.744-0.961v2.137l-2.023-1.049l-0.012,1.823l1.848,1.271v0.814l-1.854-0.967
			l-0.004,0.731l1.857,1.28v0.814l-1.864-0.974l-0.015,2.288l-0.757-0.038l-0.045-2.17l-1.872,0.977v-0.814l1.849-1.275
			l-0.015-0.726l-1.834,0.956v-0.813l1.811-1.248l-0.039-1.932l-2.022,1.049v-2.131l-1.736,0.955l-0.176,2.193l-0.704,0.407
			l-0.089-2.067l-0.637,0.352l-0.179,2.237l-0.705,0.407l-0.091-2.109l-1.901,1.046l-0.411-0.636l1.975-1.156l-1.775-1.129
			l0.705-0.407l2.038,0.969l0.63-0.369l-1.763-1.121l0.704-0.407l2.025,0.962l1.905-1.116l-2.081-1.162l1.744-1.148l-1.569-0.919
			l-2.024,0.963l-0.704-0.407l1.763-1.121l-0.63-0.37l-2.038,0.969l-0.705-0.407l1.774-1.129l-1.974-1.155l0.41-0.637l1.902,1.047
			l0.09-2.109l0.705,0.406l0.179,2.238l0.638,0.351l0.088-2.066l0.705,0.407l0.176,2.193l1.744,0.958v-2.135l2.022,1.05l0.012-1.824
			l-1.847-1.271v-0.814l1.854,0.968l0.005-0.732l-1.858-1.279v-0.815l1.866,0.974L276.931,316.531L276.931,316.531z
			 M277.349,326.227c-0.291,0-0.526,0.235-0.526,0.526s0.235,0.527,0.526,0.527s0.527-0.236,0.527-0.527
			S277.64,326.227,277.349,326.227L277.349,326.227z M279.004,326.295l-0.768,0.45l1.297,0.759l0.831-0.548L279.004,326.295
			L279.004,326.295z M276.475,326.745l-1.296-0.761l-0.833,0.548l1.361,0.662L276.475,326.745L276.475,326.745z M275.733,328.309
			v1.09l1.121-0.666l-0.021-1.029L275.733,328.309L275.733,328.309z M277.839,327.683l-0.007,1.04l1.139,0.676v-1.093
			L277.839,327.683L277.839,327.683z M278.979,325.181v-1.09l-1.122,0.665l0.021,1.029L278.979,325.181L278.979,325.181z
			 M276.872,325.806l0.007-1.04l-1.138-0.675v1.094L276.872,325.806z"/>
	</g>
	
		<linearGradient id="SVGID_9_" gradientUnits="userSpaceOnUse" x1="408.5928" y1="-91.3936" x2="395.4496" y2="-115.1045" gradientTransform="matrix(1 0 0 -1 -106 205)">
		<stop  offset="0" style="stop-color:#5BBFD5"/>
		<stop  offset="1" style="stop-color:#FFFFFF"/>
	</linearGradient>
	<path fill="url(#SVGID_9_)" d="M297.951,286.968l1.226,0.061l0.073,3.52l3.034-1.583v1.32l-2.997,2.064l0.025,1.18l2.972-1.551
		v1.321l-2.936,2.02l0.065,3.132l3.276-1.702v3.458l2.816-1.552l0.283-3.552l1.144-0.66l0.143,3.35l1.034-0.569l0.289-3.627
		l1.145-0.661l0.146,3.42l3.083-1.696l0.667,1.032l-3.203,1.875l2.878,1.828l-1.143,0.66l-3.303-1.57l-1.022,0.599l2.859,1.818
		l-1.144,0.66L306.08,300l-3.09,1.812l3.373,1.883l-2.825,1.861l2.543,1.489l3.282-1.56l1.143,0.661l-2.858,1.816l1.022,0.6
		l3.302-1.57l1.144,0.658l-2.878,1.83l3.202,1.876l-0.666,1.032l-3.084-1.697l-0.146,3.417l-1.145-0.658l-0.289-3.628l-1.033-0.569
		l-0.144,3.352l-1.144-0.66l-0.282-3.553l-2.829-1.556v3.46l-3.277-1.702l-0.019,2.957l2.991,2.063v1.319l-3.004-1.567l-0.006,1.187
		l3.01,2.073v1.321l-3.022-1.577l-0.022,3.709l-1.227-0.062l-0.073-3.519l-3.034,1.583v-1.32l2.996-2.064l-0.023-1.178l-2.973,1.551
		v-1.32l2.936-2.023l-0.064-3.133l-3.276,1.702v-3.453l-2.815,1.549l-0.284,3.552l-1.143,0.661l-0.142-3.352l-1.034,0.569
		l-0.291,3.628l-1.143,0.658l-0.146-3.417l-3.084,1.697l-0.665-1.032l3.201-1.876l-2.878-1.83l1.143-0.658l3.304,1.57l1.021-0.6
		l-2.858-1.816l1.143-0.661l3.282,1.56l3.09-1.81l-3.373-1.885l2.827-1.86l-2.544-1.49l-3.282,1.562l-1.143-0.66l2.858-1.818
		l-1.021-0.599l-3.304,1.57l-1.143-0.66l2.878-1.829l-3.201-1.874l0.665-1.032l3.084,1.696l0.146-3.42l1.143,0.661l0.291,3.627
		l1.034,0.568l0.142-3.349l1.143,0.66l0.284,3.552l2.827,1.558v-3.464l3.279,1.704l0.019-2.959l-2.993-2.061v-1.321l3.004,1.567
		l0.008-1.186l-3.012-2.074v-1.32l3.022,1.579L297.951,286.968L297.951,286.968z M298.629,302.684c-0.472,0-0.854,0.384-0.854,0.855
		s0.383,0.853,0.854,0.853c0.474,0,0.855-0.381,0.855-0.853S299.103,302.684,298.629,302.684L298.629,302.684z M301.312,302.794
		l-1.245,0.73l2.102,1.231l1.35-0.889L301.312,302.794L301.312,302.794z M297.212,303.523l-2.103-1.23l-1.348,0.887l2.205,1.074
		L297.212,303.523L297.212,303.523z M296.011,306.06v1.768l1.815-1.081l-0.034-1.667L296.011,306.06L296.011,306.06z
		 M299.422,305.044l-0.011,1.687l1.846,1.097v-1.774L299.422,305.044L299.422,305.044z M301.27,300.987v-1.766l-1.817,1.079
		l0.033,1.668L301.27,300.987L301.27,300.987z M297.858,302.004l0.009-1.687l-1.845-1.096v1.771L297.858,302.004z"/>
</g>
</svg>
