<?xml version="1.0" encoding="utf-8"?>
<!-- Generator: Adobe Illustrator 17.1.0, SVG Export Plug-In . SVG Version: 6.00 Build 0)  -->
<!DOCTYPE svg PUBLIC "-//W3C//DTD SVG 1.1//EN" "http://www.w3.org/Graphics/SVG/1.1/DTD/svg11.dtd">
<svg version="1.1" xmlns="http://www.w3.org/2000/svg" xmlns:xlink="http://www.w3.org/1999/xlink" x="0px" y="0px"
	 viewBox="0 0 200 200" enable-background="new 0 0 200 200" xml:space="preserve">
<g id="clear-night">
	<g>
		<linearGradient id="SVGID_1_" gradientUnits="userSpaceOnUse" x1="220.835" y1="160.9795" x2="153.2579" y2="244.4302">
			<stop  offset="0" style="stop-color:#5ABFD5"/>
			<stop  offset="1" style="stop-color:#0F298F"/>
		</linearGradient>
		<path fill-rule="evenodd" clip-rule="evenodd" fill="url(#SVGID_1_)" d="M66.1,120.2C42.6,79.5,46.2,32.1,72.3,5.3c-7.1,2.2-14,5.1-20.7,9C4.2,41.6-12,102.2,15.3,149.5
			c27.3,47.3,87.9,63.6,135.2,36.2c6.7-3.9,12.7-8.4,18.1-13.4C132.4,181.5,89.5,160.9,66.1,120.2z"/>
	</g>
	<g>
		<linearGradient id="SVGID_2_" gradientUnits="userSpaceOnUse" x1="661.7734" y1="-271.1396" x2="749.8922" y2="-249.1691" gradientTransform="matrix(1 0 0 -1 -610 -6)">
			<stop  offset="0" style="stop-color:#A1A1A0"/>
			<stop  offset="1" style="stop-color:#FFFFFF"/>
		</linearGradient>
		<path fill="url(#SVGID_2_)" d="M169.6,38.1l-30-6.1l-6.1-30c-0.1-0.5-0.5-1-1.1-1.1c-0.7-0.1-1.3,0.4-1.4,1.1L125,32l-30,6.1
			c-0.5,0.1-1,0.5-1.1,1.1c-0.1,0.7,0.4,1.3,1.1,1.4l30,6.1l6.1,30c0.1,0.5,0.5,1,1.1,1.1c0.7,0.1,1.3-0.4,1.4-1.1l6.1-30l30-6.1
			c0.5-0.1,1-0.5,1.1-1.1C170.7,38.8,170.3,38.2,169.6,38.1z"/>
		<linearGradient id="SVGID_3_" gradientUnits="userSpaceOnUse" x1="759.5615" y1="-247.9414" x2="694.4929" y2="-296.9742" gradientTransform="matrix(1 0 0 -1 -610 -6)">
			<stop  offset="0" style="stop-color:#A1A1A0"/>
			<stop  offset="1" style="stop-color:#FFFFFF"/>
		</linearGradient>
		<path fill="url(#SVGID_3_)" d="M197.2,105.9l-21.3-4.4l-4.4-21.3c0-0.4-0.3-0.7-0.8-0.8c-0.5-0.1-0.9,0.3-1,0.8l-4.4,21.3l-21.3,4.4
			c-0.4,0.1-0.7,0.4-0.8,0.8c-0.1,0.5,0.3,0.9,0.8,1l21.3,4.4l4.4,21.3c0.1,0.4,0.3,0.7,0.8,0.8c0.5,0.1,0.9-0.3,1-0.8l4.4-21.3
			l21.3-4.4c0.4-0.1,0.7-0.4,0.8-0.8C198,106.4,197.7,105.9,197.2,105.9z"/>
	</g>
</g>
</svg>
