<?xml version="1.0" encoding="utf-8"?>
<!-- Generator: Adobe Illustrator 16.0.0, SVG Export Plug-In . SVG Version: 6.00 Build 0)  -->
<!DOCTYPE svg PUBLIC "-//W3C//DTD SVG 1.1//EN" "http://www.w3.org/Graphics/SVG/1.1/DTD/svg11.dtd">
<svg version="1.1" id="Layer_1" xmlns="http://www.w3.org/2000/svg" xmlns:xlink="http://www.w3.org/1999/xlink" x="0px" y="0px"
	 width="400px" height="400px" viewBox="0 0 400 400" enable-background="new 0 0 400 400" xml:space="preserve">
<linearGradient id="SVGID_1_" gradientUnits="userSpaceOnUse" x1="293.6904" y1="152.9253" x2="234.1326" y2="226.473">
	<stop  offset="0" style="stop-color:#5ABFD5"/>
	<stop  offset="1" style="stop-color:#0F298F"/>
</linearGradient>
<path fill-rule="evenodd" clip-rule="evenodd" fill="url(#SVGID_1_)" d="M255.705,96.604c16.573-3.809,33.123-2.334,47.896,3.319
	c-3.761,0.132-7.562,0.616-11.365,1.492c-32.119,7.383-52.179,39.418-44.794,71.536c7.385,32.121,39.418,52.179,71.537,44.793
	c15.411-3.542,28.042-12.765,36.202-24.943c-6.067,30.993-29.744,57.082-62.506,64.612c-44.399,10.206-88.684-17.522-98.89-61.919
	C183.578,151.095,211.307,106.811,255.705,96.604z"/>
<g>
	<g>
		
			<linearGradient id="SVGID_2_" gradientUnits="userSpaceOnUse" x1="438.0977" y1="394.5137" x2="559.7375" y2="364.1853" gradientTransform="matrix(1 0 0 1 -358 -155)">
			<stop  offset="0" style="stop-color:#A1A1A0"/>
			<stop  offset="1" style="stop-color:#FFFFFF"/>
		</linearGradient>
		<path fill="url(#SVGID_2_)" d="M62.233,281.507c-12.829,0-23.231-10.4-23.231-23.233c0-10.812,7.396-19.905,17.407-22.491
			c-0.579-2.733-0.887-5.573-0.887-8.479c0-22.348,17.985-40.499,40.264-40.778c5.065-26.464,28.337-46.469,56.274-46.469
			c22.578,0,42.108,13.07,51.444,32.052c3.587-1.362,7.476-2.11,11.538-2.11c17.958,0,32.524,14.564,32.524,32.523
			c0,2.674-0.326,5.276-0.938,7.765c18.864,0.598,33.979,16.079,33.979,35.083c0,19.388-15.721,35.105-35.106,35.105
			C210.953,280.473,126.874,281.507,62.233,281.507z"/>
		
			<linearGradient id="SVGID_3_" gradientUnits="userSpaceOnUse" x1="573.0889" y1="362.4941" x2="483.2673" y2="430.1797" gradientTransform="matrix(1 0 0 1 -358 -155)">
			<stop  offset="0" style="stop-color:#A1A1A0"/>
			<stop  offset="1" style="stop-color:#FFFFFF"/>
		</linearGradient>
		<path fill="url(#SVGID_3_)" d="M224.73,280.553c-38.561,0.224-100.788,0.875-153.032,0.949
			c-4.475-5.822-6.976-13.203-6.562-21.105c0.879-16.816,14.637-29.92,31.213-30.249c-0.038-0.813-0.037-1.634,0.006-2.462
			c0.712-13.613,12.333-24.079,25.943-23.367c3.519,0.183,6.825,1.097,9.785,2.586c7.652-12.351,21.626-20.267,37.158-19.456
			c21.561,1.128,38.383,18.667,38.989,39.876c14.08,5.124,23.795,18.98,22.972,34.714
			C230.844,268.956,228.489,275.302,224.73,280.553z"/>
		
			<linearGradient id="SVGID_4_" gradientUnits="userSpaceOnUse" x1="534.6787" y1="386.4473" x2="562.3485" y2="448.5945" gradientTransform="matrix(1 0 0 1 -358 -155)">
			<stop  offset="0" style="stop-color:#A1A1A0"/>
			<stop  offset="1" style="stop-color:#FFFFFF"/>
		</linearGradient>
		<path fill="url(#SVGID_4_)" d="M269.661,270.835c-6.293,5.974-14.797,9.64-24.16,9.64c-24.244,0-72.883,0.51-122.077,0.813
			c3.957-7.97,10.875-14.265,19.39-17.362c0.609-21.211,17.427-38.748,38.99-39.877c15.531-0.811,29.505,7.105,37.159,19.456
			c2.962-1.486,6.266-2.4,9.786-2.584c13.609-0.712,25.232,9.754,25.94,23.366c0.043,0.828,0.043,1.65,0.007,2.462
			C260.103,266.858,265.206,268.324,269.661,270.835z"/>
	</g>
</g>
</svg>
