<?xml version="1.0" encoding="utf-8"?>
<!-- Generator: Adobe Illustrator 17.1.0, SVG Export Plug-In . SVG Version: 6.00 Build 0)  -->
<!DOCTYPE svg PUBLIC "-//W3C//DTD SVG 1.1//EN" "http://www.w3.org/Graphics/SVG/1.1/DTD/svg11.dtd">
<svg version="1.1" xmlns="http://www.w3.org/2000/svg" xmlns:xlink="http://www.w3.org/1999/xlink" x="0px" y="0px"
	 viewBox="0 0 200 200" enable-background="new 0 0 200 200" xml:space="preserve">
<g id="default">
	<linearGradient id="SVGID_1_" gradientUnits="userSpaceOnUse" x1="859.54" y1="-268.5801" x2="874.7142" y2="-302.662" gradientTransform="matrix(1 0 0 -1 -610 -6)">
			<stop  offset="0" style="stop-color:#A1A1A0"/>
		<stop  offset="1" style="stop-color:#FFFFFF"/>
		</linearGradient>
	<path fill="url(#SVGID_1_)" d="M100,1C45.3,1,1,45.3,1,100c0,54.7,44.3,99,99,99c54.7,0,99-44.3,99-99C199,45.3,154.7,1,100,1z
		 M81.1,108.9H40.3c-5.1,0-9.2-4.1-9.2-9.2c0-5.1,4.1-9.2,9.2-9.2h40.9c5.1,0,9.2,4.1,9.2,9.2C90.4,104.8,86.2,108.9,81.1,108.9z
		 M158.9,108.9h-40.9c-5.1,0-9.2-4.1-9.2-9.2c0-5.1,4.1-9.2,9.2-9.2h40.9c5.1,0,9.2,4.1,9.2,9.2C168.1,104.8,164,108.9,158.9,108.9z
		"/>
</g>
</svg>
