<?xml version="1.0" encoding="utf-8"?>
<!-- Generator: Adobe Illustrator 16.0.0, SVG Export Plug-In . SVG Version: 6.00 Build 0)  -->
<!DOCTYPE svg PUBLIC "-//W3C//DTD SVG 1.1//EN" "http://www.w3.org/Graphics/SVG/1.1/DTD/svg11.dtd">
<svg version="1.1" id="Layer_1" xmlns="http://www.w3.org/2000/svg" xmlns:xlink="http://www.w3.org/1999/xlink" x="0px" y="0px"
	 width="400px" height="400px" viewBox="0 0 400 400" enable-background="new 0 0 400 400" xml:space="preserve">
<g>
	<g>
		
			<linearGradient id="SVGID_1_" gradientUnits="userSpaceOnUse" x1="200.752" y1="27.3877" x2="351.9415" y2="65.0835" gradientTransform="matrix(1 0 0 -1 -106 205)">
			<stop  offset="0" style="stop-color:#A1A1A0"/>
			<stop  offset="1" style="stop-color:#FFFFFF"/>
		</linearGradient>
		<path fill="url(#SVGID_1_)" d="M72.545,229.812c-15.945,0-28.875-12.933-28.875-28.877c0-13.443,9.193-24.743,21.635-27.958
			c-0.72-3.4-1.103-6.928-1.103-10.542c0-27.774,22.353-50.335,50.046-50.683c6.297-32.893,35.22-57.759,69.945-57.759
			c28.065,0,52.338,16.245,63.946,39.841c4.455-1.692,9.288-2.624,14.336-2.624c22.324,0,40.426,18.102,40.426,40.426
			c0,3.325-0.405,6.557-1.162,9.65c23.443,0.742,42.23,19.984,42.23,43.607c0,24.094-19.54,43.631-43.633,43.631
			C257.395,228.525,152.89,229.812,72.545,229.812z"/>
		
			<linearGradient id="SVGID_2_" gradientUnits="userSpaceOnUse" x1="368.5332" y1="67.1841" x2="256.8885" y2="-16.9462" gradientTransform="matrix(1 0 0 -1 -106 205)">
			<stop  offset="0" style="stop-color:#A1A1A0"/>
			<stop  offset="1" style="stop-color:#FFFFFF"/>
		</linearGradient>
		<path fill="url(#SVGID_2_)" d="M274.518,228.622c-47.93,0.278-125.272,1.089-190.207,1.183c-5.562-7.234-8.672-16.408-8.158-26.23
			c1.093-20.904,18.193-37.192,38.796-37.601c-0.048-1.01-0.046-2.031,0.007-3.061c0.883-16.918,15.329-29.928,32.246-29.044
			c4.374,0.229,8.484,1.366,12.162,3.216c9.513-15.352,26.881-25.19,46.188-24.184c26.801,1.402,47.703,23.2,48.463,49.564
			c17.496,6.366,29.571,23.588,28.553,43.144C282.115,214.21,279.191,222.1,274.518,228.622z"/>
		
			<linearGradient id="SVGID_3_" gradientUnits="userSpaceOnUse" x1="320.7949" y1="37.415" x2="355.1862" y2="-39.8292" gradientTransform="matrix(1 0 0 -1 -106 205)">
			<stop  offset="0" style="stop-color:#A1A1A0"/>
			<stop  offset="1" style="stop-color:#FFFFFF"/>
		</linearGradient>
		<path fill="url(#SVGID_3_)" d="M330.367,216.545c-7.823,7.428-18.396,11.98-30.029,11.98c-30.138,0-90.591,0.639-151.735,1.015
			c4.917-9.909,13.517-17.731,24.099-21.58c0.757-26.366,21.663-48.164,48.461-49.565c19.308-1.008,36.677,8.831,46.187,24.183
			c3.68-1.849,7.789-2.987,12.164-3.216c16.918-0.884,31.362,12.127,32.246,29.045c0.056,1.03,0.056,2.051,0.009,3.06
			C318.484,211.602,324.83,213.425,330.367,216.545z"/>
	</g>
	<g>
		
			<linearGradient id="SVGID_4_" gradientUnits="userSpaceOnUse" x1="342.5801" y1="-53.3735" x2="334.3607" y2="-62.1878" gradientTransform="matrix(1 0 0 -1 -106 205)">
			<stop  offset="0" style="stop-color:#5BBFD5"/>
			<stop  offset="1" style="stop-color:#293787"/>
		</linearGradient>
		<path fill="url(#SVGID_4_)" d="M239.605,274.035c-3.727,2.245-8.49,0.914-10.642-2.976c-3.144-5.835,0.205-10.612-2.642-21.036
			c6.753,7.592,12.862,7.147,16.134,12.906C244.607,266.818,243.33,271.791,239.605,274.035z"/>
		<path fill="#FFFFFF" d="M239.771,269.562c1.134-1.886,1.258-4.349,0.116-6.413c-0.65-1.144-1.449-1.967-2.363-2.661
			c1.521,0.913,2.816,1.905,3.783,3.609c1.131,2.043,1.021,4.479-0.085,6.358c-0.072,0.148-0.184,0.276-0.33,0.366
			c-0.405,0.244-0.922,0.101-1.155-0.323C239.569,270.196,239.594,269.833,239.771,269.562z"/>
	</g>
	<g>
		
			<linearGradient id="SVGID_5_" gradientUnits="userSpaceOnUse" x1="268.9863" y1="-82.5884" x2="261.0333" y2="-91.117" gradientTransform="matrix(1 0 0 -1 -106 205)">
			<stop  offset="0" style="stop-color:#5BBFD5"/>
			<stop  offset="1" style="stop-color:#293787"/>
		</linearGradient>
		<path fill="url(#SVGID_5_)" d="M165.986,302.589c-3.694,2.133-8.417,0.868-10.55-2.826c-3.117-5.545,0.203-10.082-2.62-19.985
			c6.695,7.213,12.753,6.79,15.997,12.261C170.946,295.732,169.679,300.457,165.986,302.589z"/>
		<path fill="#FFFFFF" d="M166.151,298.34c1.125-1.791,1.248-4.132,0.116-6.093c-0.645-1.086-1.437-1.869-2.344-2.528
			c1.509,0.868,2.793,1.811,3.752,3.43c1.121,1.94,1.013,4.255-0.084,6.04c-0.072,0.141-0.183,0.263-0.328,0.348
			c-0.401,0.232-0.914,0.096-1.146-0.307C165.951,298.941,165.975,298.597,166.151,298.34z"/>
	</g>
	<g>
		
			<linearGradient id="SVGID_6_" gradientUnits="userSpaceOnUse" x1="289.2012" y1="-50.2183" x2="279.3285" y2="-60.8054" gradientTransform="matrix(1 0 0 -1 -106 205)">
			<stop  offset="0" style="stop-color:#5BBFD5"/>
			<stop  offset="1" style="stop-color:#293787"/>
		</linearGradient>
		<path fill="url(#SVGID_6_)" d="M186.925,273.84c-4.585,2.647-10.449,1.077-13.096-3.509c-3.869-6.882,0.252-12.515-3.253-24.808
			c8.313,8.953,15.833,8.429,19.858,15.22C193.081,265.329,191.51,271.193,186.925,273.84z"/>
		<path fill="#FFFFFF" d="M187.127,268.565c1.397-2.224,1.549-5.129,0.145-7.562c-0.8-1.349-1.782-2.32-2.907-3.139
			c1.872,1.077,3.464,2.247,4.656,4.257c1.391,2.409,1.255,5.282-0.104,7.498c-0.088,0.175-0.225,0.326-0.408,0.432
			c-0.498,0.288-1.135,0.118-1.421-0.381C186.881,269.312,186.911,268.884,187.127,268.565z"/>
	</g>
	<g>
		
			<linearGradient id="SVGID_7_" gradientUnits="userSpaceOnUse" x1="325.1338" y1="-76.6387" x2="315.2613" y2="-87.2256" gradientTransform="matrix(1 0 0 -1 -106 205)">
			<stop  offset="0" style="stop-color:#5BBFD5"/>
			<stop  offset="1" style="stop-color:#293787"/>
		</linearGradient>
		<path fill="url(#SVGID_7_)" d="M222.857,300.263c-4.582,2.647-10.447,1.076-13.096-3.509c-3.868-6.883,0.254-12.515-3.254-24.811
			c8.312,8.955,15.836,8.432,19.857,15.223C229.014,291.75,227.443,297.615,222.857,300.263z"/>
		<path fill="#FFFFFF" d="M223.061,294.986c1.398-2.225,1.551-5.128,0.145-7.561c-0.801-1.35-1.781-2.321-2.907-3.142
			c1.874,1.081,3.464,2.249,4.657,4.259c1.39,2.41,1.256,5.284-0.106,7.498c-0.087,0.175-0.225,0.327-0.407,0.432
			c-0.498,0.287-1.135,0.117-1.422-0.379C222.814,295.735,222.846,295.307,223.061,294.986z"/>
	</g>
</g>
</svg>
