<?xml version="1.0" encoding="utf-8"?>
<!-- Generator: Adobe Illustrator 16.0.0, SVG Export Plug-In . SVG Version: 6.00 Build 0)  -->
<!DOCTYPE svg PUBLIC "-//W3C//DTD SVG 1.1//EN" "http://www.w3.org/Graphics/SVG/1.1/DTD/svg11.dtd">
<svg version="1.1" id="Layer_1" xmlns="http://www.w3.org/2000/svg" xmlns:xlink="http://www.w3.org/1999/xlink" x="0px" y="0px"
	 width="400px" height="400px" viewBox="0 0 400 400" enable-background="new 0 0 400 400" xml:space="preserve">
<g>
	<g>
		
			<linearGradient id="SVGID_1_" gradientUnits="userSpaceOnUse" x1="518.7529" y1="959.6123" x2="669.9424" y2="921.9165" gradientTransform="matrix(1 0 0 1 -424 -782)">
			<stop  offset="0" style="stop-color:#A1A1A0"/>
			<stop  offset="1" style="stop-color:#FFFFFF"/>
		</linearGradient>
		<path fill="url(#SVGID_1_)" d="M72.545,229.812c-15.945,0-28.875-12.936-28.875-28.877c0-13.443,9.193-24.746,21.635-27.958
			c-0.72-3.4-1.103-6.928-1.103-10.542c0-27.774,22.353-50.335,50.046-50.683c6.297-32.893,35.22-57.759,69.945-57.759
			c28.065,0,52.338,16.245,63.946,39.841c4.455-1.692,9.288-2.624,14.336-2.624c22.324,0,40.426,18.102,40.426,40.426
			c0,3.325-0.402,6.557-1.159,9.65c23.44,0.742,42.229,19.984,42.229,43.607c0,24.093-19.54,43.63-43.633,43.63
			C257.395,228.525,152.89,229.812,72.545,229.812z"/>
		
			<linearGradient id="SVGID_2_" gradientUnits="userSpaceOnUse" x1="686.5352" y1="919.8164" x2="574.8907" y2="1003.9464" gradientTransform="matrix(1 0 0 1 -424 -782)">
			<stop  offset="0" style="stop-color:#A1A1A0"/>
			<stop  offset="1" style="stop-color:#FFFFFF"/>
		</linearGradient>
		<path fill="url(#SVGID_2_)" d="M274.518,228.622c-47.93,0.278-125.271,1.089-190.207,1.183
			c-5.562-7.234-8.672-16.408-8.158-26.229c1.093-20.904,18.193-37.192,38.796-37.601c-0.048-1.01-0.046-2.031,0.007-3.061
			c0.883-16.918,15.329-29.928,32.246-29.044c4.374,0.229,8.484,1.366,12.162,3.216c9.513-15.352,26.881-25.19,46.188-24.184
			c26.801,1.402,47.7,23.2,48.463,49.564c17.496,6.366,29.568,23.588,28.553,43.146C282.115,214.21,279.191,222.1,274.518,228.622z"
			/>
		
			<linearGradient id="SVGID_3_" gradientUnits="userSpaceOnUse" x1="638.7939" y1="949.585" x2="673.1852" y2="1026.8292" gradientTransform="matrix(1 0 0 1 -424 -782)">
			<stop  offset="0" style="stop-color:#A1A1A0"/>
			<stop  offset="1" style="stop-color:#FFFFFF"/>
		</linearGradient>
		<path fill="url(#SVGID_3_)" d="M330.367,216.545c-7.823,7.428-18.396,11.98-30.029,11.98c-30.138,0-90.591,0.639-151.735,1.015
			c4.917-9.909,13.517-17.731,24.099-21.58c0.757-26.366,21.663-48.164,48.461-49.565c19.308-1.008,36.677,8.831,46.187,24.183
			c3.68-1.849,7.789-2.987,12.164-3.216c16.918-0.884,31.362,12.127,32.246,29.045c0.059,1.03,0.059,2.051,0.009,3.06
			C318.484,211.602,324.83,213.425,330.367,216.545z"/>
	</g>
	<g>
		
			<linearGradient id="SVGID_4_" gradientUnits="userSpaceOnUse" x1="645.5801" y1="1072.9873" x2="633.9272" y2="1085.4833" gradientTransform="matrix(1 0 0 1 -424 -782)">
			<stop  offset="0" style="stop-color:#A1A1A0"/>
			<stop  offset="1" style="stop-color:#FFFFFF"/>
		</linearGradient>
		<path fill="url(#SVGID_4_)" d="M221.343,308.922c-5.275,3.047-12.027,1.237-15.076-4.041c-4.454-7.923-5.291-11.804,2.384-17.943
			c6.907-3.839,12.098-0.912,16.724,6.906C228.43,299.121,226.622,305.873,221.343,308.922z"/>
		<path fill="#FFFFFF" d="M221.576,302.847c1.61-2.564,1.786-5.905,0.169-8.706c-0.924-1.554-2.051-2.672-3.347-3.617
			c2.157,1.242,3.99,2.589,5.361,4.903c1.601,2.774,1.446,6.083-0.121,8.632c-0.1,0.201-0.26,0.376-0.468,0.499
			c-0.572,0.328-1.307,0.133-1.637-0.438C221.293,303.708,221.329,303.215,221.576,302.847z"/>
	</g>
	<g>
		
			<linearGradient id="SVGID_5_" gradientUnits="userSpaceOnUse" x1="597.2295" y1="1050.7305" x2="585.5754" y2="1063.2278" gradientTransform="matrix(1 0 0 1 -424 -782)">
			<stop  offset="0" style="stop-color:#A1A1A0"/>
			<stop  offset="1" style="stop-color:#FFFFFF"/>
		</linearGradient>
		<path fill="url(#SVGID_5_)" d="M172.991,286.666c-5.275,3.046-12.027,1.237-15.076-4.041c-4.454-7.924-5.29-11.805,2.384-17.944
			c6.908-3.838,12.098-0.912,16.725,6.906C180.079,276.864,178.27,283.616,172.991,286.666z"/>
		<path fill="#FFFFFF" d="M173.226,280.589c1.609-2.563,1.785-5.904,0.168-8.705c-0.925-1.554-2.05-2.67-3.347-3.617
			c2.157,1.241,3.99,2.59,5.361,4.903c1.602,2.774,1.446,6.083-0.121,8.632c-0.099,0.201-0.26,0.377-0.468,0.5
			c-0.573,0.327-1.307,0.132-1.637-0.439C172.941,281.45,172.979,280.96,173.226,280.589z"/>
	</g>
	<g>
		
			<linearGradient id="SVGID_6_" gradientUnits="userSpaceOnUse" x1="663.2344" y1="1032.3115" x2="651.5809" y2="1044.8082" gradientTransform="matrix(1 0 0 1 -424 -782)">
			<stop  offset="0" style="stop-color:#A1A1A0"/>
			<stop  offset="1" style="stop-color:#FFFFFF"/>
		</linearGradient>
		<path fill="url(#SVGID_6_)" d="M238.996,268.247c-5.275,3.045-12.027,1.236-15.076-4.042c-4.455-7.924-5.292-11.805,2.382-17.944
			c6.907-3.838,12.1-0.911,16.726,6.906C246.083,258.444,244.275,265.196,238.996,268.247z"/>
		<path fill="#FFFFFF" d="M239.229,262.169c1.61-2.563,1.785-5.904,0.169-8.705c-0.925-1.554-2.051-2.67-3.349-3.616
			c2.159,1.241,3.991,2.589,5.363,4.902c1.601,2.774,1.445,6.083-0.122,8.632c-0.099,0.201-0.261,0.377-0.468,0.501
			c-0.572,0.327-1.306,0.131-1.637-0.44C238.946,263.03,238.982,262.54,239.229,262.169z"/>
	</g>
	<g>
		
			<linearGradient id="SVGID_7_" gradientUnits="userSpaceOnUse" x1="618.875" y1="1027.7822" x2="610.9529" y2="1036.2775" gradientTransform="matrix(1 0 0 1 -424 -782)">
			<stop  offset="0" style="stop-color:#A1A1A0"/>
			<stop  offset="1" style="stop-color:#FFFFFF"/>
		</linearGradient>
		<path fill="url(#SVGID_7_)" d="M194.713,257.975c-3.586,2.072-8.177,0.842-10.249-2.747c-3.028-5.387-3.597-8.024,1.621-12.197
			c4.694-2.611,8.226-0.62,11.37,4.694C199.53,251.313,198.303,255.902,194.713,257.975z"/>
		<path fill="#FFFFFF" d="M194.872,253.845c1.094-1.742,1.213-4.014,0.115-5.918c-0.629-1.057-1.395-1.816-2.276-2.46
			c1.467,0.845,2.712,1.76,3.645,3.334c1.088,1.888,0.983,4.136-0.08,5.869c-0.068,0.136-0.177,0.255-0.318,0.338
			c-0.39,0.224-0.888,0.091-1.112-0.298C194.68,254.432,194.702,254.097,194.872,253.845z"/>
	</g>
	<g>
		
			<linearGradient id="SVGID_8_" gradientUnits="userSpaceOnUse" x1="674.2754" y1="1059.5312" x2="666.3539" y2="1068.026" gradientTransform="matrix(1 0 0 1 -424 -782)">
			<stop  offset="0" style="stop-color:#A1A1A0"/>
			<stop  offset="1" style="stop-color:#FFFFFF"/>
		</linearGradient>
		<path fill="url(#SVGID_8_)" d="M250.113,289.721c-3.586,2.072-8.178,0.843-10.25-2.746c-3.027-5.388-3.595-8.025,1.62-12.198
			c4.695-2.61,8.227-0.619,11.371,4.695C254.93,283.06,253.701,287.649,250.113,289.721z"/>
		<path fill="#FFFFFF" d="M250.271,285.592c1.093-1.743,1.215-4.014,0.115-5.918c-0.629-1.057-1.395-1.817-2.275-2.46
			c1.466,0.845,2.711,1.76,3.645,3.333c1.088,1.888,0.982,4.137-0.082,5.87c-0.068,0.135-0.177,0.254-0.318,0.337
			c-0.39,0.224-0.887,0.093-1.113-0.298C250.077,286.179,250.103,285.844,250.271,285.592z"/>
	</g>
	<g>
		
			<linearGradient id="SVGID_9_" gradientUnits="userSpaceOnUse" x1="541.0352" y1="1036.9854" x2="528.1802" y2="1050.7704" gradientTransform="matrix(1 0 0 1 -424 -782)">
			<stop  offset="0" style="stop-color:#A1A1A0"/>
			<stop  offset="1" style="stop-color:#FFFFFF"/>
		</linearGradient>
		<path fill="url(#SVGID_9_)" d="M116.773,274.77c-5.819,3.361-13.268,1.364-16.631-4.458c-4.914-8.74-5.837-13.022,2.63-19.795
			c7.62-4.234,13.345-1.006,18.449,7.619C124.591,263.957,122.597,271.406,116.773,274.77z"/>
		<path fill="#FFFFFF" d="M117.031,268.067c1.776-2.829,1.97-6.515,0.186-9.604c-1.019-1.714-2.262-2.947-3.691-3.99
			c2.379,1.37,4.402,2.856,5.914,5.409c1.766,3.061,1.596,6.711-0.133,9.522c-0.11,0.222-0.287,0.415-0.517,0.551
			c-0.631,0.361-1.441,0.146-1.806-0.484C116.718,269.018,116.758,268.474,117.031,268.067z"/>
	</g>
	<g>
		
			<linearGradient id="SVGID_10_" gradientUnits="userSpaceOnUse" x1="586.4551" y1="1075.7256" x2="575.7867" y2="1087.1659" gradientTransform="matrix(1 0 0 1 -424 -782)">
			<stop  offset="0" style="stop-color:#A1A1A0"/>
			<stop  offset="1" style="stop-color:#FFFFFF"/>
		</linearGradient>
		<path fill="url(#SVGID_10_)" d="M162.236,310.143c-4.83,2.789-11.01,1.134-13.802-3.699c-4.077-7.253-4.843-10.806,2.183-16.427
			c6.322-3.514,11.074-0.834,15.311,6.322C168.725,301.17,167.068,307.352,162.236,310.143z"/>
		<path fill="#FFFFFF" d="M162.451,304.579c1.473-2.346,1.634-5.404,0.153-7.968c-0.847-1.423-1.877-2.444-3.063-3.312
			c1.975,1.136,3.652,2.37,4.908,4.488c1.466,2.54,1.323,5.569-0.111,7.901c-0.09,0.185-0.238,0.346-0.428,0.459
			c-0.524,0.299-1.196,0.12-1.498-0.403C162.19,305.368,162.225,304.919,162.451,304.579z"/>
	</g>
	<g>
		
			<linearGradient id="SVGID_11_" gradientUnits="userSpaceOnUse" x1="569.6621" y1="1030.6963" x2="559.0323" y2="1042.0952" gradientTransform="matrix(1 0 0 1 -424 -782)">
			<stop  offset="0" style="stop-color:#A1A1A0"/>
			<stop  offset="1" style="stop-color:#FFFFFF"/>
		</linearGradient>
		<path fill="url(#SVGID_11_)" d="M145.444,265.055c-4.812,2.781-10.972,1.13-13.751-3.686c-4.063-7.229-4.826-10.768,2.174-16.366
			c6.299-3.504,11.037-0.832,15.257,6.299C151.908,256.117,150.261,262.274,145.444,265.055z"/>
		<path fill="#FFFFFF" d="M145.658,259.514c1.467-2.338,1.627-5.386,0.154-7.941c-0.844-1.417-1.871-2.437-3.055-3.301
			c1.969,1.134,3.639,2.361,4.891,4.474c1.459,2.533,1.319,5.55-0.107,7.876c-0.092,0.182-0.237,0.342-0.428,0.453
			c-0.522,0.3-1.19,0.122-1.492-0.399C145.399,260.301,145.43,259.852,145.658,259.514z"/>
	</g>
	<g>
		
			<linearGradient id="SVGID_12_" gradientUnits="userSpaceOnUse" x1="641.0488" y1="1045.3975" x2="630.4194" y2="1056.7961" gradientTransform="matrix(1 0 0 1 -424 -782)">
			<stop  offset="0" style="stop-color:#A1A1A0"/>
			<stop  offset="1" style="stop-color:#FFFFFF"/>
		</linearGradient>
		<path fill="url(#SVGID_12_)" d="M216.831,279.754c-4.812,2.78-10.973,1.131-13.753-3.685c-4.062-7.229-4.823-10.769,2.174-16.368
			c6.3-3.503,11.038-0.831,15.258,6.3C223.294,270.815,221.646,276.975,216.831,279.754z"/>
		<path fill="#FFFFFF" d="M217.042,274.214c1.467-2.34,1.631-5.386,0.155-7.941c-0.844-1.418-1.871-2.438-3.054-3.301
			c1.967,1.134,3.638,2.361,4.891,4.473c1.46,2.532,1.318,5.551-0.11,7.876c-0.092,0.182-0.237,0.341-0.427,0.452
			c-0.523,0.301-1.19,0.125-1.494-0.399C216.783,275.001,216.817,274.552,217.042,274.214z"/>
	</g>
</g>
</svg>
