<?xml version="1.0" encoding="utf-8"?>
<!-- Generator: Adobe Illustrator 16.0.0, SVG Export Plug-In . SVG Version: 6.00 Build 0)  -->
<!DOCTYPE svg PUBLIC "-//W3C//DTD SVG 1.1//EN" "http://www.w3.org/Graphics/SVG/1.1/DTD/svg11.dtd">
<svg version="1.1" id="Layer_1" xmlns="http://www.w3.org/2000/svg" xmlns:xlink="http://www.w3.org/1999/xlink" x="0px" y="0px"
	 width="400px" height="400px" viewBox="0 0 400 400" enable-background="new 0 0 400 400" xml:space="preserve">
<g>
	<g>
		
			<linearGradient id="SVGID_1_" gradientUnits="userSpaceOnUse" x1="412.7529" y1="-363.6113" x2="563.9423" y2="-325.9155" gradientTransform="matrix(1 0 0 -1 -318 -186)">
			<stop  offset="0" style="stop-color:#A1A1A0"/>
			<stop  offset="1" style="stop-color:#FFFFFF"/>
		</linearGradient>
		<path fill="url(#SVGID_1_)" d="M72.545,229.812c-15.945,0-28.875-12.935-28.875-28.877c0-13.443,9.193-24.745,21.635-27.958
			c-0.72-3.4-1.103-6.928-1.103-10.542c0-27.774,22.353-50.335,50.046-50.683c6.297-32.893,35.22-57.759,69.945-57.759
			c28.065,0,52.338,16.245,63.946,39.841c4.455-1.692,9.288-2.624,14.336-2.624c22.324,0,40.426,18.102,40.426,40.426
			c0,3.325-0.403,6.557-1.16,9.65c23.441,0.742,42.229,19.984,42.229,43.607c0,24.093-19.54,43.63-43.633,43.63
			C257.395,228.525,152.89,229.812,72.545,229.812z"/>
		
			<linearGradient id="SVGID_2_" gradientUnits="userSpaceOnUse" x1="580.5342" y1="-323.8159" x2="468.8896" y2="-407.946" gradientTransform="matrix(1 0 0 -1 -318 -186)">
			<stop  offset="0" style="stop-color:#A1A1A0"/>
			<stop  offset="1" style="stop-color:#FFFFFF"/>
		</linearGradient>
		<path fill="url(#SVGID_2_)" d="M274.518,228.622c-47.93,0.278-125.271,1.089-190.207,1.183
			c-5.562-7.234-8.672-16.408-8.158-26.229c1.093-20.904,18.193-37.192,38.796-37.601c-0.048-1.01-0.046-2.031,0.007-3.061
			c0.883-16.918,15.329-29.928,32.246-29.044c4.374,0.229,8.484,1.366,12.162,3.216c9.513-15.352,26.881-25.19,46.188-24.184
			c26.801,1.402,47.701,23.2,48.463,49.564c17.496,6.366,29.569,23.588,28.553,43.146C282.115,214.21,279.191,222.1,274.518,228.622
			z"/>
		
			<linearGradient id="SVGID_3_" gradientUnits="userSpaceOnUse" x1="532.793" y1="-353.585" x2="567.1843" y2="-430.8293" gradientTransform="matrix(1 0 0 -1 -318 -186)">
			<stop  offset="0" style="stop-color:#A1A1A0"/>
			<stop  offset="1" style="stop-color:#FFFFFF"/>
		</linearGradient>
		<path fill="url(#SVGID_3_)" d="M330.367,216.545c-7.823,7.428-18.396,11.98-30.029,11.98c-30.138,0-90.591,0.639-151.735,1.015
			c4.917-9.909,13.517-17.731,24.099-21.58c0.757-26.366,21.663-48.164,48.461-49.565c19.308-1.008,36.677,8.831,46.187,24.183
			c3.68-1.849,7.789-2.987,12.164-3.216c16.918-0.884,31.362,12.127,32.246,29.045c0.058,1.03,0.058,2.051,0.009,3.06
			C318.484,211.602,324.83,213.425,330.367,216.545z"/>
	</g>
	<g>
		
			<linearGradient id="SVGID_4_" gradientUnits="userSpaceOnUse" x1="541.0645" y1="-470.6851" x2="530.942" y2="-481.54" gradientTransform="matrix(1 0 0 -1 -318 -186)">
			<stop  offset="0" style="stop-color:#A1A1A0"/>
			<stop  offset="1" style="stop-color:#FFFFFF"/>
		</linearGradient>
		<path fill="url(#SVGID_4_)" d="M222.857,300.264c-4.582,2.646-10.447,1.075-13.096-3.51c-3.869-6.883-4.595-10.254,2.071-15.587
			c6-3.334,10.509-0.792,14.528,5.999C229.014,291.75,227.443,297.615,222.857,300.264z"/>
		<path fill="#FFFFFF" d="M223.061,294.986c1.398-2.227,1.551-5.129,0.146-7.562c-0.803-1.35-1.781-2.32-2.907-3.142
			c1.874,1.079,3.466,2.249,4.657,4.259c1.391,2.41,1.256,5.284-0.105,7.498c-0.086,0.175-0.226,0.327-0.406,0.434
			c-0.498,0.285-1.135,0.115-1.422-0.381C222.814,295.734,222.846,295.307,223.061,294.986z"/>
	</g>
	<g>
		
			<linearGradient id="SVGID_5_" gradientUnits="userSpaceOnUse" x1="499.0645" y1="-451.3525" x2="488.9414" y2="-462.208" gradientTransform="matrix(1 0 0 -1 -318 -186)">
			<stop  offset="0" style="stop-color:#A1A1A0"/>
			<stop  offset="1" style="stop-color:#FFFFFF"/>
		</linearGradient>
		<path fill="url(#SVGID_5_)" d="M180.857,280.931c-4.582,2.646-10.447,1.075-13.096-3.51c-3.869-6.883-4.595-10.254,2.071-15.587
			c6-3.334,10.509-0.792,14.528,5.999C187.014,272.417,185.443,278.282,180.857,280.931z"/>
		<path fill="#FFFFFF" d="M181.061,275.653c1.398-2.227,1.551-5.129,0.146-7.562c-0.803-1.35-1.781-2.32-2.907-3.142
			c1.874,1.079,3.466,2.249,4.657,4.259c1.391,2.41,1.256,5.284-0.105,7.498c-0.086,0.175-0.226,0.327-0.406,0.434
			c-0.498,0.285-1.135,0.115-1.422-0.381C180.814,276.401,180.846,275.974,181.061,275.653z"/>
	</g>
	<g>
		
			<linearGradient id="SVGID_6_" gradientUnits="userSpaceOnUse" x1="556.3984" y1="-435.3521" x2="546.2755" y2="-446.2075" gradientTransform="matrix(1 0 0 -1 -318 -186)">
			<stop  offset="0" style="stop-color:#A1A1A0"/>
			<stop  offset="1" style="stop-color:#FFFFFF"/>
		</linearGradient>
		<path fill="url(#SVGID_6_)" d="M238.191,264.931c-4.582,2.646-10.447,1.075-13.096-3.51c-3.869-6.883-4.596-10.254,2.07-15.587
			c6-3.334,10.51-0.792,14.529,5.999C244.348,256.417,242.777,262.282,238.191,264.931z"/>
		<path fill="#FFFFFF" d="M238.395,259.653c1.398-2.227,1.551-5.129,0.146-7.562c-0.803-1.35-1.781-2.32-2.908-3.142
			c1.875,1.079,3.467,2.249,4.658,4.259c1.391,2.41,1.256,5.284-0.105,7.498c-0.086,0.175-0.227,0.327-0.406,0.434
			c-0.498,0.285-1.135,0.115-1.422-0.381C238.148,260.401,238.18,259.974,238.395,259.653z"/>
	</g>
	<g>
		
			<linearGradient id="SVGID_7_" gradientUnits="userSpaceOnUse" x1="517.8672" y1="-431.4189" x2="510.9857" y2="-438.7983" gradientTransform="matrix(1 0 0 -1 -318 -186)">
			<stop  offset="0" style="stop-color:#A1A1A0"/>
			<stop  offset="1" style="stop-color:#FFFFFF"/>
		</linearGradient>
		<path fill="url(#SVGID_7_)" d="M199.726,256.009c-3.115,1.8-7.103,0.731-8.903-2.386c-2.63-4.679-3.124-6.971,1.408-10.596
			c4.078-2.267,7.145-0.538,9.876,4.078C203.91,250.222,202.844,254.209,199.726,256.009z"/>
		<path fill="#FFFFFF" d="M199.864,252.422c0.951-1.514,1.054-3.486,0.1-5.141c-0.546-0.918-1.211-1.578-1.977-2.136
			c1.274,0.733,2.356,1.528,3.166,2.895c0.945,1.639,0.854,3.593-0.07,5.098c-0.059,0.118-0.154,0.222-0.277,0.294
			c-0.338,0.194-0.771,0.079-0.966-0.259C199.697,252.931,199.717,252.64,199.864,252.422z"/>
	</g>
	<g>
		
			<linearGradient id="SVGID_8_" gradientUnits="userSpaceOnUse" x1="571.2002" y1="-469.4194" x2="564.3192" y2="-476.7983" gradientTransform="matrix(1 0 0 -1 -318 -186)">
			<stop  offset="0" style="stop-color:#A1A1A0"/>
			<stop  offset="1" style="stop-color:#FFFFFF"/>
		</linearGradient>
		<path fill="url(#SVGID_8_)" d="M253.06,294.009c-3.115,1.8-7.103,0.731-8.903-2.386c-2.629-4.679-3.123-6.971,1.408-10.596
			c4.078-2.267,7.145-0.538,9.877,4.078C257.244,288.222,256.177,292.209,253.06,294.009z"/>
		<path fill="#FFFFFF" d="M253.197,290.422c0.95-1.514,1.055-3.486,0.1-5.141c-0.546-0.918-1.211-1.578-1.977-2.136
			c1.274,0.733,2.356,1.528,3.166,2.895c0.945,1.639,0.854,3.593-0.071,5.098c-0.059,0.118-0.154,0.222-0.276,0.294
			c-0.339,0.194-0.771,0.079-0.967-0.259C253.03,290.931,253.051,290.64,253.197,290.422z"/>
	</g>
</g>
</svg>
