<?xml version="1.0" encoding="utf-8"?>
<!-- Generator: Adobe Illustrator 16.0.0, SVG Export Plug-In . SVG Version: 6.00 Build 0)  -->
<!DOCTYPE svg PUBLIC "-//W3C//DTD SVG 1.1//EN" "http://www.w3.org/Graphics/SVG/1.1/DTD/svg11.dtd">
<svg version="1.1" id="Layer_1" xmlns="http://www.w3.org/2000/svg" xmlns:xlink="http://www.w3.org/1999/xlink" x="0px" y="0px"
	 width="400px" height="400px" viewBox="0 0 400 400" enable-background="new 0 0 400 400" xml:space="preserve">
<linearGradient id="SVGID_1_" gradientUnits="userSpaceOnUse" x1="222.6035" y1="158.6309" x2="161.5829" y2="233.9851">
	<stop  offset="0" style="stop-color:#5ABFD5"/>
	<stop  offset="1" style="stop-color:#0F298F"/>
</linearGradient>
<path fill-rule="evenodd" clip-rule="evenodd" fill="url(#SVGID_1_)" d="M183.687,100.927c16.979-3.903,33.937-2.391,49.071,3.401
	c-3.853,0.135-7.747,0.631-11.645,1.528c-32.908,7.564-53.46,40.387-45.894,73.293c7.566,32.909,40.386,53.46,73.294,45.894
	c15.79-3.63,28.731-13.079,37.092-25.557c-6.217,31.754-30.477,58.484-64.041,66.199c-45.491,10.457-90.862-17.952-101.32-63.439
	C109.787,156.757,138.197,111.385,183.687,100.927z"/>
<g>
	<g>
		
			<image overflow="visible" enable-background="new    " width="1389" height="319" xlink:href="399F18E46BA64D54.png"  transform="matrix(0.3031 0 0 0.302 -1.0093 217.0244)">
		</image>
	</g>
	<g>
		
			<image overflow="visible" enable-background="new    " width="1389" height="405" xlink:href="399F18E46BA64D53.png"  transform="matrix(0.3031 0 0 0.3024 -14.9985 156.832)">
		</image>
	</g>
	<g>
		
			<image overflow="visible" enable-background="new    " width="1401" height="468" xlink:href="399F18E46BA64D5C.png"  transform="matrix(0.3005 0 0 0.2988 -11.1836 172.3838)">
		</image>
	</g>
</g>
</svg>
