<?xml version="1.0" encoding="utf-8"?>
<!-- Generator: Adobe Illustrator 16.0.0, SVG Export Plug-In . SVG Version: 6.00 Build 0)  -->
<!DOCTYPE svg PUBLIC "-//W3C//DTD SVG 1.1//EN" "http://www.w3.org/Graphics/SVG/1.1/DTD/svg11.dtd">
<svg version="1.1" id="Layer_1" xmlns="http://www.w3.org/2000/svg" xmlns:xlink="http://www.w3.org/1999/xlink" x="0px" y="0px"
	 width="400px" height="400px" viewBox="0 0 400 400" enable-background="new 0 0 400 400" xml:space="preserve">
<g>
	<g>
		
			<linearGradient id="SVGID_1_" gradientUnits="userSpaceOnUse" x1="200.752" y1="27.3877" x2="351.9415" y2="65.0835" gradientTransform="matrix(1 0 0 -1 -106 205)">
			<stop  offset="0" style="stop-color:#A1A1A0"/>
			<stop  offset="1" style="stop-color:#FFFFFF"/>
		</linearGradient>
		<path fill="url(#SVGID_1_)" d="M72.545,229.812c-15.945,0-28.875-12.933-28.875-28.877c0-13.443,9.193-24.743,21.635-27.958
			c-0.72-3.4-1.103-6.928-1.103-10.542c0-27.774,22.353-50.335,50.046-50.683c6.297-32.893,35.22-57.759,69.945-57.759
			c28.065,0,52.338,16.245,63.946,39.841c4.455-1.692,9.288-2.624,14.336-2.624c22.324,0,40.426,18.102,40.426,40.426
			c0,3.325-0.405,6.557-1.162,9.65c23.443,0.742,42.23,19.984,42.23,43.607c0,24.094-19.54,43.631-43.633,43.631
			C257.395,228.525,152.89,229.812,72.545,229.812z"/>
		
			<linearGradient id="SVGID_2_" gradientUnits="userSpaceOnUse" x1="368.5332" y1="67.1841" x2="256.8885" y2="-16.9462" gradientTransform="matrix(1 0 0 -1 -106 205)">
			<stop  offset="0" style="stop-color:#A1A1A0"/>
			<stop  offset="1" style="stop-color:#FFFFFF"/>
		</linearGradient>
		<path fill="url(#SVGID_2_)" d="M274.518,228.622c-47.93,0.278-125.272,1.089-190.207,1.183c-5.562-7.234-8.672-16.408-8.158-26.23
			c1.093-20.904,18.193-37.192,38.796-37.601c-0.048-1.01-0.046-2.031,0.007-3.061c0.883-16.918,15.329-29.928,32.246-29.044
			c4.374,0.229,8.484,1.366,12.162,3.216c9.513-15.352,26.881-25.19,46.188-24.184c26.801,1.402,47.703,23.2,48.463,49.564
			c17.496,6.366,29.571,23.588,28.553,43.144C282.115,214.21,279.191,222.1,274.518,228.622z"/>
		
			<linearGradient id="SVGID_3_" gradientUnits="userSpaceOnUse" x1="320.7949" y1="37.415" x2="355.1862" y2="-39.8292" gradientTransform="matrix(1 0 0 -1 -106 205)">
			<stop  offset="0" style="stop-color:#A1A1A0"/>
			<stop  offset="1" style="stop-color:#FFFFFF"/>
		</linearGradient>
		<path fill="url(#SVGID_3_)" d="M330.367,216.545c-7.823,7.428-18.396,11.98-30.029,11.98c-30.138,0-90.591,0.639-151.735,1.015
			c4.917-9.909,13.517-17.731,24.099-21.58c0.757-26.366,21.663-48.164,48.461-49.565c19.308-1.008,36.677,8.831,46.187,24.183
			c3.68-1.849,7.789-2.987,12.164-3.216c16.918-0.884,31.362,12.127,32.246,29.045c0.056,1.03,0.056,2.051,0.009,3.06
			C318.484,211.602,324.83,213.425,330.367,216.545z"/>
	</g>
	<g>
		
			<linearGradient id="SVGID_4_" gradientUnits="userSpaceOnUse" x1="375.5967" y1="-58.8877" x2="356.8947" y2="-78.9432" gradientTransform="matrix(1 0 0 -1 -106 205)">
			<stop  offset="0" style="stop-color:#5BBFD5"/>
			<stop  offset="1" style="stop-color:#293787"/>
		</linearGradient>
		<path fill="url(#SVGID_4_)" d="M276.65,299.161c-8.688,5.016-19.793,2.04-24.81-6.646c-7.327-13.037,0.479-23.707-6.159-46.992
			c15.744,16.959,29.988,15.966,37.615,28.83C288.311,283.04,285.334,294.148,276.65,299.161z"/>
		<path fill="#FFFFFF" d="M277.036,289.171c2.646-4.213,2.935-9.716,0.272-14.325c-1.517-2.556-3.377-4.396-5.51-5.945
			c3.547,2.039,6.566,4.257,8.82,8.063c2.637,4.563,2.382,10.005-0.197,14.203c-0.168,0.33-0.429,0.617-0.771,0.817
			c-0.943,0.545-2.149,0.223-2.693-0.723C276.566,290.585,276.622,289.773,277.036,289.171z"/>
	</g>
	<g>
		
			<linearGradient id="SVGID_5_" gradientUnits="userSpaceOnUse" x1="269.4932" y1="-58.8872" x2="250.792" y2="-78.9418" gradientTransform="matrix(1 0 0 -1 -106 205)">
			<stop  offset="0" style="stop-color:#5BBFD5"/>
			<stop  offset="1" style="stop-color:#293787"/>
		</linearGradient>
		<path fill="url(#SVGID_5_)" d="M170.547,299.161c-8.686,5.016-19.793,2.04-24.807-6.646c-7.329-13.037,0.477-23.707-6.163-46.992
			c15.747,16.959,29.992,15.966,37.617,28.83C182.208,283.04,179.232,294.148,170.547,299.161z"/>
		<path fill="#FFFFFF" d="M170.931,289.171c2.647-4.213,2.935-9.716,0.274-14.325c-1.516-2.556-3.376-4.396-5.507-5.945
			c3.546,2.039,6.563,4.257,8.82,8.063c2.635,4.563,2.377,10.005-0.198,14.203c-0.167,0.33-0.427,0.617-0.772,0.817
			c-0.943,0.545-2.15,0.223-2.693-0.723C170.465,290.585,170.52,289.773,170.931,289.171z"/>
	</g>
	<g>
		
			<linearGradient id="SVGID_6_" gradientUnits="userSpaceOnUse" x1="255.9102" y1="-107.3159" x2="239.9359" y2="-124.4463" gradientTransform="matrix(1 0 0 -1 -106 205)">
			<stop  offset="0" style="stop-color:#5BBFD5"/>
			<stop  offset="1" style="stop-color:#293787"/>
		</linearGradient>
		<path fill="url(#SVGID_6_)" d="M155.908,342.509c-7.385,4.3-16.828,1.749-21.091-5.697c-6.231-11.178,0.405-20.325-5.24-40.288
			c13.388,14.539,25.499,13.688,31.981,24.717C165.822,328.688,163.292,338.211,155.908,342.509z"/>
		<path fill="#FFFFFF" d="M156.234,333.943c2.25-3.611,2.495-8.329,0.233-12.281c-1.289-2.19-2.871-3.769-4.682-5.097
			c3.015,1.748,5.58,3.649,7.499,6.913c2.24,3.912,2.021,8.577-0.168,12.177c-0.142,0.283-0.363,0.529-0.656,0.7
			c-0.802,0.468-1.828,0.191-2.29-0.619C155.838,335.156,155.885,334.46,156.234,333.943z"/>
	</g>
	<g>
		
			<linearGradient id="SVGID_7_" gradientUnits="userSpaceOnUse" x1="218.9209" y1="-54.3589" x2="204.2826" y2="-70.0566" gradientTransform="matrix(1 0 0 -1 -106 205)">
			<stop  offset="0" style="stop-color:#5BBFD5"/>
			<stop  offset="1" style="stop-color:#293787"/>
		</linearGradient>
		<path fill="url(#SVGID_7_)" d="M118.464,286.919c-6.828,3.912-15.559,1.591-19.5-5.185c-5.761-10.171,0.375-18.495-4.845-36.66
			c12.378,13.23,23.575,12.455,29.569,22.491C127.63,274.342,125.291,283.008,118.464,286.919z"/>
		<path fill="#FFFFFF" d="M118.766,279.125c2.081-3.287,2.307-7.58,0.215-11.176c-1.192-1.993-2.654-3.429-4.329-4.638
			c2.787,1.591,5.159,3.32,6.933,6.29c2.071,3.561,1.868,7.806-0.156,11.081c-0.131,0.257-0.335,0.481-0.606,0.637
			c-0.741,0.426-1.69,0.174-2.117-0.563C118.4,280.229,118.443,279.595,118.766,279.125z"/>
	</g>
	<g>
		
			<linearGradient id="SVGID_8_" gradientUnits="userSpaceOnUse" x1="296.3525" y1="-107.6519" x2="286.8282" y2="-117.8654" gradientTransform="matrix(1 0 0 -1 -106 205)">
			<stop  offset="0" style="stop-color:#5BBFD5"/>
			<stop  offset="1" style="stop-color:#293787"/>
		</linearGradient>
		<path fill="url(#SVGID_8_)" d="M193.958,330.583c-4.442,2.545-10.123,1.035-12.687-3.373c-3.748-6.617,0.244-12.033-3.152-23.852
			c8.053,8.607,15.338,8.104,19.238,14.633C199.922,322.4,198.4,328.038,193.958,330.583z"/>
		<path fill="#FFFFFF" d="M194.155,325.512c1.354-2.139,1.501-4.932,0.14-7.271c-0.775-1.297-1.727-2.23-2.816-3.018
			c1.813,1.035,3.356,2.16,4.511,4.093c1.347,2.316,1.215,5.078-0.102,7.209c-0.085,0.167-0.218,0.313-0.395,0.414
			c-0.482,0.277-1.099,0.113-1.377-0.366C193.917,326.23,193.945,325.817,194.155,325.512z"/>
	</g>
	<g>
		
			<linearGradient id="SVGID_9_" gradientUnits="userSpaceOnUse" x1="323.9209" y1="-55.3594" x2="309.2826" y2="-71.057" gradientTransform="matrix(1 0 0 -1 -106 205)">
			<stop  offset="0" style="stop-color:#5BBFD5"/>
			<stop  offset="1" style="stop-color:#293787"/>
		</linearGradient>
		<path fill="url(#SVGID_9_)" d="M223.465,287.919c-6.828,3.912-15.559,1.591-19.5-5.185c-5.761-10.171,0.375-18.495-4.845-36.66
			c12.378,13.23,23.575,12.455,29.569,22.491C232.631,275.342,230.291,284.008,223.465,287.919z"/>
		<path fill="#FFFFFF" d="M223.766,280.125c2.081-3.287,2.308-7.58,0.216-11.176c-1.192-1.993-2.653-3.429-4.329-4.638
			c2.787,1.591,5.159,3.32,6.934,6.29c2.07,3.561,1.868,7.806-0.156,11.081c-0.131,0.257-0.336,0.481-0.606,0.637
			c-0.741,0.426-1.69,0.174-2.116-0.563C223.4,281.229,223.443,280.595,223.766,280.125z"/>
	</g>
	<g>
		
			<linearGradient id="SVGID_10_" gradientUnits="userSpaceOnUse" x1="376.2656" y1="-114.3105" x2="365.048" y2="-126.34" gradientTransform="matrix(1 0 0 -1 -106 205)">
			<stop  offset="0" style="stop-color:#5BBFD5"/>
			<stop  offset="1" style="stop-color:#293787"/>
		</linearGradient>
		<path fill="url(#SVGID_10_)" d="M274.438,340.598c-5.138,3.041-11.707,1.237-14.673-4.029c-4.336-7.905,0.282-14.375-3.646-28.494
			c9.314,10.283,17.739,9.681,22.25,17.481C281.336,330.822,279.575,337.559,274.438,340.598z"/>
		<path fill="#FFFFFF" d="M274.665,334.54c1.566-2.555,1.736-5.892,0.162-8.687c-0.896-1.549-1.996-2.665-3.257-3.604
			c2.097,1.236,3.882,2.581,5.217,4.889c1.559,2.768,1.406,6.067-0.117,8.613c-0.099,0.199-0.253,0.374-0.456,0.495
			c-0.558,0.331-1.272,0.135-1.593-0.438C274.391,335.398,274.423,334.905,274.665,334.54z"/>
	</g>
	<g>
		
			<linearGradient id="SVGID_11_" gradientUnits="userSpaceOnUse" x1="337.5586" y1="-108.9341" x2="318.8573" y2="-128.9887" gradientTransform="matrix(1 0 0 -1 -106 205)">
			<stop  offset="0" style="stop-color:#5BBFD5"/>
			<stop  offset="1" style="stop-color:#293787"/>
		</linearGradient>
		<path fill="url(#SVGID_11_)" d="M238.611,349.213c-8.68,5.014-19.789,2.037-24.805-6.646c-7.328-13.039,0.479-23.707-6.164-46.998
			c15.746,16.963,29.996,15.972,37.615,28.836C250.273,333.088,247.299,344.197,238.611,349.213z"/>
		<path fill="#FFFFFF" d="M238.997,339.217c2.647-4.214,2.937-9.713,0.274-14.32c-1.518-2.558-3.375-4.397-5.508-5.951
			c3.551,2.047,6.562,4.261,8.82,8.066c2.634,4.566,2.379,10.01-0.2,14.204c-0.165,0.33-0.426,0.62-0.771,0.816
			c-0.945,0.545-2.15,0.224-2.695-0.718C238.531,340.636,238.589,339.825,238.997,339.217z"/>
	</g>
</g>
</svg>
