<?xml version="1.0" encoding="utf-8"?>
<!-- Generator: Adobe Illustrator 16.0.0, SVG Export Plug-In . SVG Version: 6.00 Build 0)  -->
<!DOCTYPE svg PUBLIC "-//W3C//DTD SVG 1.1//EN" "http://www.w3.org/Graphics/SVG/1.1/DTD/svg11.dtd">
<svg version="1.1" id="Layer_1" xmlns="http://www.w3.org/2000/svg" xmlns:xlink="http://www.w3.org/1999/xlink" x="0px" y="0px"
	 width="400px" height="400px" viewBox="0 0 400 400" enable-background="new 0 0 400 400" xml:space="preserve">
<g>
	<g>
		
			<linearGradient id="SVGID_1_" gradientUnits="userSpaceOnUse" x1="203.582" y1="38.5801" x2="361.6118" y2="77.9814" gradientTransform="matrix(1 0 0 -1 -106 205)">
			<stop  offset="0" style="stop-color:#A1A1A0"/>
			<stop  offset="1" style="stop-color:#FFFFFF"/>
		</linearGradient>
		<path fill="url(#SVGID_1_)" d="M74.375,220.98c-16.665,0-30.182-13.517-30.182-30.183c0-14.052,9.611-25.862,22.615-29.223
			c-0.753-3.554-1.151-7.241-1.151-11.02c0-29.03,23.364-52.612,52.308-52.976c6.583-34.38,36.813-60.372,73.111-60.372
			c29.334,0,54.706,16.979,66.834,41.643c4.66-1.769,9.713-2.743,14.992-2.743c23.328,0,42.251,18.921,42.251,42.255
			c0,3.475-0.425,6.854-1.219,10.086c24.509,0.775,44.143,20.887,44.143,45.58c0,25.184-20.421,45.606-45.606,45.606
			C267.587,219.637,158.355,220.98,74.375,220.98z"/>
		
			<linearGradient id="SVGID_2_" gradientUnits="userSpaceOnUse" x1="378.9561" y1="80.1787" x2="262.2614" y2="-7.757" gradientTransform="matrix(1 0 0 -1 -106 205)">
			<stop  offset="0" style="stop-color:#A1A1A0"/>
			<stop  offset="1" style="stop-color:#FFFFFF"/>
		</linearGradient>
		<path fill="url(#SVGID_2_)" d="M285.484,219.736c-50.096,0.291-130.939,1.139-198.812,1.236
			c-5.815-7.562-9.064-17.152-8.527-27.42c1.142-21.85,19.015-38.874,40.549-39.3c-0.048-1.056-0.048-2.123,0.009-3.2
			c0.924-17.684,16.021-31.282,33.705-30.358c4.57,0.239,8.868,1.428,12.711,3.361c9.943-16.047,28.099-26.33,48.274-25.278
			c28.016,1.464,49.865,24.25,50.656,51.807c18.289,6.654,30.912,24.654,29.844,45.097
			C293.427,204.673,290.367,212.919,285.484,219.736z"/>
		
			<linearGradient id="SVGID_3_" gradientUnits="userSpaceOnUse" x1="329.0596" y1="49.0605" x2="365.008" y2="-31.6811" gradientTransform="matrix(1 0 0 -1 -106 205)">
			<stop  offset="0" style="stop-color:#A1A1A0"/>
			<stop  offset="1" style="stop-color:#FFFFFF"/>
		</linearGradient>
		<path fill="url(#SVGID_3_)" d="M343.861,207.113c-8.178,7.763-19.229,12.522-31.392,12.522c-31.497,0-94.688,0.666-158.598,1.06
			c5.139-10.356,14.128-18.533,25.188-22.557c0.793-27.557,22.645-50.341,50.656-51.805c20.179-1.054,38.332,9.229,48.275,25.276
			c3.846-1.932,8.141-3.122,12.714-3.361c17.684-0.924,32.778,12.676,33.705,30.36c0.055,1.077,0.058,2.144,0.006,3.199
			C331.441,201.945,338.07,203.852,343.861,207.113z"/>
	</g>
	<g>
		<g>
			
				<linearGradient id="SVGID_4_" gradientUnits="userSpaceOnUse" x1="254.7441" y1="-49.708" x2="229.2511" y2="-95.6986" gradientTransform="matrix(1 0 0 -1 -106 205)">
				<stop  offset="0" style="stop-color:#5BBFD5"/>
				<stop  offset="1" style="stop-color:#FFFFFF"/>
			</linearGradient>
			<path fill="url(#SVGID_4_)" d="M139.745,236.43l2.377,0.118l0.139,6.827l5.888-3.07v2.562l-5.815,4.003l0.048,2.283l5.767-3.004
				v2.56l-5.694,3.922l0.124,6.075l6.357-3.301v6.701l5.46-3.004l0.551-6.894l2.217-1.281l0.275,6.499l2.005-1.102l0.563-7.039
				l2.217-1.278l0.282,6.634l5.981-3.293l1.293,2.002l-6.209,3.635l5.582,3.55l-2.22,1.28l-6.405-3.047l-1.984,1.16l5.548,3.528
				l-2.22,1.28l-6.363-3.027l-5.994,3.51l6.539,3.655l-5.482,3.61l4.937,2.89l6.363-3.028l2.22,1.28l-5.548,3.528l1.984,1.16
				l6.405-3.047l2.22,1.28l-5.582,3.55l6.209,3.635l-1.293,2.002l-5.981-3.293l-0.282,6.634l-2.217-1.278l-0.563-7.037l-2.005-1.104
				l-0.275,6.499l-2.217-1.281l-0.551-6.894l-5.485-3.02v6.717l-6.36-3.301l-0.037,5.736l5.806,3.996v2.562l-5.827-3.041
				l-0.015,2.299l5.842,4.025v2.562l-5.866-3.06l-0.042,7.193l-2.38-0.118l-0.139-6.827l-5.885,3.071v-2.559l5.812-4.008
				l-0.048-2.283l-5.764,3.004v-2.56l5.691-3.922l-0.124-6.075l-6.357,3.301v-6.701l-5.46,3.004l-0.551,6.894l-2.217,1.281
				l-0.275-6.499l-2.005,1.104l-0.562,7.037l-2.217,1.278l-0.283-6.633l-5.981,3.292l-1.293-2.002l6.21-3.635l-5.582-3.55
				l2.217-1.28l6.405,3.047l1.985-1.16l-5.547-3.528l2.217-1.28l6.365,3.028l5.994-3.511l-6.539-3.655l5.482-3.61l-4.937-2.889
				l-6.365,3.028l-2.217-1.281l5.547-3.528l-1.985-1.16l-6.405,3.047l-2.217-1.28l5.582-3.55l-6.21-3.635l1.293-2.002l5.981,3.293
				l0.283-6.634l2.217,1.278l0.562,7.039l2.005,1.102l0.275-6.498l2.217,1.28l0.551,6.894l5.485,3.017v-6.714l6.36,3.301
				l0.037-5.736l-5.803-3.996v-2.562l5.824,3.041l0.015-2.299l-5.839-4.025v-2.562l5.863,3.06L139.745,236.43L139.745,236.43z
				 M141.059,266.913c-0.918,0-1.66,0.741-1.66,1.655c0,0.916,0.742,1.656,1.66,1.656c0.915,0,1.657-0.74,1.657-1.656
				C142.716,267.654,141.974,266.913,141.059,266.913L141.059,266.913z M146.262,267.128l-2.417,1.414l4.077,2.388l2.617-1.722
				L146.262,267.128L146.262,267.128z M138.309,268.542l-4.077-2.388l-2.617,1.722l4.28,2.08L138.309,268.542L138.309,268.542z
				 M135.977,273.461v3.425l3.525-2.093l-0.07-3.234L135.977,273.461L135.977,273.461z M142.595,271.492l-0.019,3.271l3.577,2.122
				v-3.438L142.595,271.492L142.595,271.492z M146.177,263.624v-3.426l-3.525,2.093l0.067,3.234L146.177,263.624L146.177,263.624z
				 M139.56,265.592l0.021-3.271l-3.58-2.122v3.438L139.56,265.592z"/>
			
				<linearGradient id="SVGID_5_" gradientUnits="userSpaceOnUse" x1="374.8633" y1="-49.71" x2="349.3709" y2="-95.6995" gradientTransform="matrix(1 0 0 -1 -106 205)">
				<stop  offset="0" style="stop-color:#5BBFD5"/>
				<stop  offset="1" style="stop-color:#FFFFFF"/>
			</linearGradient>
			<path fill="url(#SVGID_5_)" d="M259.861,236.43l2.377,0.118l0.143,6.827l5.885-3.07v2.562l-5.812,4.003l0.046,2.283l5.768-3.004
				v2.56l-5.694,3.922l0.124,6.075l6.357-3.301v6.701l5.459-3.004l0.553-6.894l2.217-1.281l0.277,6.499l2.002-1.102l0.563-7.039
				l2.217-1.278l0.285,6.634l5.981-3.293l1.289,2.002l-6.209,3.635l5.582,3.55l-2.217,1.28l-6.404-3.047l-1.984,1.16l5.546,3.528
				l-2.217,1.28l-6.366-3.027l-5.994,3.51l6.542,3.655l-5.481,3.61l4.935,2.89l6.366-3.028l2.217,1.28l-5.546,3.528l1.983,1.16
				l6.406-3.047l2.217,1.28l-5.582,3.55l6.209,3.635l-1.291,2.002l-5.98-3.293l-0.285,6.634l-2.217-1.278l-0.562-7.037l-2.002-1.104
				l-0.278,6.499l-2.218-1.281l-0.551-6.894l-5.484-3.02v6.717l-6.36-3.301l-0.036,5.736l5.807,3.996v2.562l-5.828-3.041
				l-0.014,2.299l5.842,4.025v2.562l-5.863-3.06l-0.045,7.193l-2.379-0.118l-0.143-6.827l-5.884,3.071v-2.559l5.812-4.008
				l-0.045-2.283l-5.767,3.004v-2.56l5.692-3.922l-0.123-6.075l-6.357,3.301v-6.701l-5.463,3.004l-0.549,6.894l-2.217,1.281
				l-0.278-6.499l-2.005,1.104l-0.561,7.037l-2.218,1.278l-0.284-6.633l-5.98,3.292l-1.291-2.002l6.209-3.635l-5.582-3.55
				l2.218-1.28l6.405,3.047l1.982-1.16l-5.545-3.528l2.217-1.28l6.367,3.028l5.992-3.511l-6.542-3.655l5.481-3.61l-4.934-2.889
				l-6.365,3.028l-2.217-1.281l5.545-3.528l-1.983-1.16l-6.405,3.047l-2.218-1.28l5.582-3.55l-6.209-3.635l1.291-2.002l5.981,3.293
				l0.283-6.634l2.217,1.278l0.562,7.039l2.005,1.102l0.277-6.498l2.218,1.28l0.549,6.894l5.487,3.017v-6.714l6.359,3.301
				l0.033-5.736l-5.803-3.996v-2.562l5.826,3.041l0.016-2.299l-5.842-4.025v-2.562l5.863,3.06L259.861,236.43L259.861,236.43z
				 M261.175,266.913c-0.914,0-1.655,0.741-1.655,1.655c0,0.916,0.741,1.656,1.655,1.656c0.915,0,1.657-0.74,1.657-1.656
				C262.832,267.654,262.09,266.913,261.175,266.913L261.175,266.913z M266.378,267.128l-2.413,1.414l4.076,2.388l2.613-1.722
				L266.378,267.128L266.378,267.128z M258.426,268.542l-4.076-2.388l-2.617,1.722l4.279,2.08L258.426,268.542L258.426,268.542z
				 M256.094,273.461v3.425l3.524-2.093l-0.066-3.234L256.094,273.461L256.094,273.461z M262.714,271.492l-0.021,3.271l3.58,2.122
				v-3.438L262.714,271.492L262.714,271.492z M266.297,263.624v-3.426l-3.525,2.093l0.066,3.234L266.297,263.624L266.297,263.624z
				 M259.676,265.592l0.021-3.271l-3.58-2.122v3.438L259.676,265.592z"/>
		</g>
		
			<linearGradient id="SVGID_6_" gradientUnits="userSpaceOnUse" x1="314.8027" y1="-112.9321" x2="289.3103" y2="-158.9217" gradientTransform="matrix(1 0 0 -1 -106 205)">
			<stop  offset="0" style="stop-color:#5BBFD5"/>
			<stop  offset="1" style="stop-color:#FFFFFF"/>
		</linearGradient>
		<path fill="url(#SVGID_6_)" d="M199.801,299.648l2.377,0.117l0.143,6.826l5.885-3.07v2.562l-5.812,4.004l0.049,2.287l5.764-3.008
			v2.562l-5.693,3.918l0.127,6.075l6.354-3.302v6.706l5.463-3.009l0.549-6.889l2.218-1.281l0.277,6.496l2.005-1.104l0.562-7.035
			l2.22-1.281l0.282,6.633l5.98-3.291l1.293,2.002l-6.212,3.637l5.582,3.547l-2.217,1.281l-6.405-3.047l-1.984,1.162l5.547,3.525
			l-2.219,1.281l-6.365-3.029l-5.993,3.514l6.542,3.652l-5.48,3.61l4.934,2.889l6.365-3.024l2.217,1.281l-5.545,3.524l1.983,1.163
			l6.405-3.047l2.217,1.277l-5.582,3.549l6.212,3.639l-1.293,2.002l-5.981-3.292l-0.281,6.629l-2.221-1.278l-0.561-7.035
			l-2.005-1.104l-0.278,6.5l-2.217-1.281l-0.549-6.891l-5.486-3.017v6.711l-6.357-3.301l-0.036,5.735l5.803,4.001v2.561
			l-5.827-3.041l-0.012,2.301l5.839,4.021v2.562l-5.862-3.059l-0.045,7.194l-2.378-0.121l-0.142-6.825l-5.885,3.07v-2.561
			l5.812-4.004l-0.045-2.285l-5.767,3.008v-2.561l5.694-3.925l-0.124-6.075l-6.357,3.301v-6.698l-5.46,3.004l-0.551,6.891
			l-2.217,1.281l-0.275-6.5l-2.005,1.104l-0.563,7.035l-2.217,1.278l-0.285-6.629l-5.981,3.292l-1.29-2.002l6.208-3.639
			l-5.582-3.549l2.217-1.277l6.408,3.047l1.981-1.163l-5.545-3.524l2.217-1.281l6.366,3.024l5.994-3.51l-6.542-3.655l5.482-3.609
			l-4.934-2.891l-6.366,3.029l-2.217-1.281l5.545-3.525l-1.981-1.162l-6.408,3.047l-2.217-1.281l5.582-3.547l-6.208-3.637
			l1.29-2.002l5.981,3.291l0.285-6.633l2.217,1.281l0.563,7.035l2.005,1.104l0.275-6.496l2.217,1.281l0.551,6.889l5.484,3.021
			v-6.718l6.36,3.305l0.036-5.738l-5.806-3.998v-2.562l5.827,3.04l0.015-2.299l-5.842-4.024v-2.56l5.863,3.062L199.801,299.648
			L199.801,299.648z M201.115,330.131c-0.914,0-1.656,0.745-1.656,1.66c0,0.914,0.742,1.652,1.656,1.652
			c0.918,0,1.66-0.738,1.66-1.652C202.775,330.876,202.033,330.131,201.115,330.131L201.115,330.131z M206.318,330.346l-2.414,1.416
			l4.076,2.389l2.617-1.723L206.318,330.346L206.318,330.346z M198.366,331.761l-4.077-2.387l-2.613,1.72l4.276,2.084
			L198.366,331.761L198.366,331.761z M196.037,336.68v3.428l3.522-2.096l-0.067-3.234L196.037,336.68L196.037,336.68z
			 M202.654,334.71l-0.021,3.271l3.58,2.127v-3.44L202.654,334.71L202.654,334.71z M206.236,326.842v-3.425l-3.524,2.093
			l0.065,3.234L206.236,326.842L206.236,326.842z M199.62,328.812l0.018-3.271l-3.577-2.126v3.438L199.62,328.812z"/>
	</g>
</g>
<linearGradient id="SVGID_7_" gradientUnits="userSpaceOnUse" x1="307.3213" y1="-40.6387" x2="291.1537" y2="-69.8058" gradientTransform="matrix(1 0 0 -1 -106 205)">
	<stop  offset="0" style="stop-color:#5BBFD5"/>
	<stop  offset="1" style="stop-color:#FFFFFF"/>
</linearGradient>
<path fill="url(#SVGID_7_)" d="M195.614,234.048l1.507,0.075l0.088,4.33l3.733-1.947v1.624l-3.688,2.538l0.03,1.449l3.657-1.906
	v1.624l-3.61,2.487l0.079,3.853l4.031-2.094v4.25l3.464-1.905l0.349-4.371l1.406-0.812l0.175,4.121l1.271-0.698l0.357-4.464
	l1.406-0.811l0.179,4.206l3.793-2.088l0.819,1.27l-3.938,2.306l3.54,2.251l-1.407,0.812l-4.062-1.932l-1.258,0.735l3.519,2.237
	L209.646,252l-4.035-1.92l-3.801,2.226l4.146,2.318l-3.477,2.289l3.131,1.833l4.035-1.921l1.408,0.812l-3.519,2.237l1.258,0.735
	l4.062-1.932l1.407,0.812l-3.54,2.251l3.938,2.306l-0.819,1.27l-3.793-2.089l-0.179,4.207l-1.406-0.811l-0.357-4.463l-1.271-0.699
	l-0.175,4.121l-1.406-0.812l-0.349-4.372l-3.479-1.914v4.259l-4.034-2.093l-0.023,3.638l3.683,2.534v1.625l-3.696-1.929
	l-0.009,1.458l3.705,2.553v1.625l-3.721-1.939l-0.026,4.562l-1.509-0.075l-0.088-4.329l-3.732,1.947v-1.622l3.686-2.542l-0.03-1.448
	l-3.656,1.905v-1.623l3.609-2.487l-0.079-3.853l-4.032,2.093v-4.25l-3.462,1.905l-0.35,4.372l-1.406,0.812l-0.174-4.122l-1.271,0.7
	l-0.356,4.463l-1.406,0.811l-0.18-4.206l-3.793,2.088l-0.82-1.271l3.938-2.305l-3.54-2.251l1.406-0.812l4.062,1.933l1.259-0.735
	l-3.518-2.238l1.406-0.812l4.037,1.921l3.801-2.227l-4.147-2.318l3.477-2.29l-3.131-1.832l-4.037,1.921l-1.406-0.812l3.518-2.237
	l-1.259-0.736l-4.062,1.933l-1.406-0.812l3.54-2.252l-3.938-2.305l0.82-1.27l3.793,2.088l0.18-4.207l1.406,0.811l0.356,4.465
	l1.271,0.698l0.174-4.121l1.406,0.812l0.35,4.372l3.479,1.913v-4.258l4.033,2.094l0.023-3.639l-3.68-2.533v-1.625l3.694,1.928
	l0.009-1.457l-3.703-2.554v-1.625l3.718,1.94L195.614,234.048L195.614,234.048z M196.447,253.38c-0.582,0-1.053,0.471-1.053,1.05
	c0,0.581,0.471,1.051,1.053,1.051c0.581,0,1.051-0.47,1.051-1.051C197.498,253.851,197.028,253.38,196.447,253.38L196.447,253.38z
	 M199.747,253.517l-1.532,0.896l2.585,1.515l1.659-1.092L199.747,253.517L199.747,253.517z M194.704,254.413l-2.586-1.515
	l-1.659,1.093l2.714,1.318L194.704,254.413L194.704,254.413z M193.225,257.532v2.173l2.235-1.328l-0.044-2.051L193.225,257.532
	L193.225,257.532z M197.422,256.284l-0.012,2.074l2.268,1.347v-2.181L197.422,256.284L197.422,256.284z M199.693,251.294v-2.172
	l-2.235,1.327l0.042,2.051L199.693,251.294L199.693,251.294z M195.497,252.542l0.014-2.074l-2.271-1.346v2.181L195.497,252.542z"/>
<linearGradient id="SVGID_8_" gradientUnits="userSpaceOnUse" x1="249.7031" y1="-110.3911" x2="236.6379" y2="-133.9615" gradientTransform="matrix(1 0 0 -1 -106 205)">
	<stop  offset="0" style="stop-color:#5BBFD5"/>
	<stop  offset="1" style="stop-color:#FFFFFF"/>
</linearGradient>
<path fill="url(#SVGID_8_)" d="M139.091,306.023l1.218,0.061l0.071,3.5l3.017-1.574v1.312l-2.98,2.051l0.024,1.172l2.956-1.541
	v1.312l-2.917,2.01l0.063,3.113l3.257-1.691v3.435l2.799-1.54l0.282-3.532l1.137-0.656l0.141,3.33l1.027-0.564l0.289-3.607
	l1.137-0.655l0.144,3.399l3.065-1.688l0.662,1.026l-3.182,1.863l2.861,1.819l-1.137,0.655l-3.283-1.561l-1.016,0.594l2.843,1.809
	l-1.138,0.656l-3.261-1.552l-3.071,1.799l3.351,1.873l-2.81,1.851l2.53,1.481l3.261-1.553l1.138,0.656l-2.843,1.809l1.016,0.594
	l3.283-1.561l1.137,0.655l-2.861,1.819l3.182,1.863l-0.662,1.026l-3.065-1.688l-0.144,3.4l-1.137-0.655l-0.289-3.606l-1.027-0.565
	l-0.141,3.33l-1.137-0.656l-0.282-3.533l-2.811-1.547v3.441l-3.26-1.691l-0.019,2.94l2.976,2.048v1.313l-2.987-1.559l-0.007,1.178
	l2.994,2.063v1.312l-3.007-1.567l-0.021,3.687l-1.22-0.061l-0.072-3.499l-3.016,1.574v-1.311l2.979-2.055l-0.025-1.171l-2.954,1.54
	v-1.312l2.917-2.01l-0.063-3.113l-3.258,1.69v-3.435l-2.798,1.54l-0.282,3.533l-1.137,0.657l-0.141-3.332l-1.028,0.566l-0.288,3.606
	l-1.136,0.655l-0.146-3.399l-3.065,1.688l-0.663-1.026l3.183-1.863l-2.861-1.818l1.136-0.657l3.283,1.562l1.017-0.594l-2.842-1.809
	l1.136-0.656l3.262,1.553l3.072-1.8l-3.351-1.873l2.81-1.851l-2.53-1.48l-3.262,1.552l-1.136-0.656l2.842-1.809l-1.017-0.595
	l-3.283,1.562l-1.136-0.655l2.861-1.82l-3.183-1.862l0.663-1.026l3.065,1.688l0.146-3.399l1.136,0.655l0.288,3.607l1.028,0.564
	l0.141-3.33l1.137,0.655l0.282,3.533l2.812,1.547v-3.441l3.259,1.692l0.019-2.94l-2.974-2.048v-1.312l2.985,1.558l0.008-1.178
	l-2.993-2.063v-1.313l3.005,1.568L139.091,306.023L139.091,306.023z M139.764,321.646c-0.47,0-0.851,0.38-0.851,0.849
	s0.38,0.849,0.851,0.849c0.469,0,0.849-0.38,0.849-0.849S140.233,321.646,139.764,321.646L139.764,321.646z M142.431,321.757
	l-1.238,0.725l2.089,1.224l1.341-0.882L142.431,321.757L142.431,321.757z M138.355,322.481l-2.09-1.225l-1.341,0.884l2.193,1.065
	L138.355,322.481L138.355,322.481z M137.16,325.002v1.756l1.807-1.073l-0.036-1.657L137.16,325.002L137.16,325.002z
	 M140.552,323.993l-0.01,1.677l1.833,1.088v-1.762L140.552,323.993L140.552,323.993z M142.387,319.961v-1.756l-1.806,1.073
	l0.034,1.657L142.387,319.961L142.387,319.961z M138.996,320.969l0.011-1.676l-1.835-1.088v1.763L138.996,320.969z"/>
<linearGradient id="SVGID_9_" gradientUnits="userSpaceOnUse" x1="196.7539" y1="-42.2388" x2="183.6882" y2="-65.8099" gradientTransform="matrix(1 0 0 -1 -106 205)">
	<stop  offset="0" style="stop-color:#5BBFD5"/>
	<stop  offset="1" style="stop-color:#FFFFFF"/>
</linearGradient>
<path fill="url(#SVGID_9_)" d="M86.142,237.872l1.218,0.061l0.071,3.5l3.017-1.574v1.312l-2.98,2.051l0.024,1.172l2.956-1.541v1.312
	l-2.917,2.01l0.063,3.113l3.257-1.691v3.435l2.799-1.54l0.282-3.532l1.137-0.656l0.141,3.33l1.027-0.564l0.289-3.607l1.137-0.655
	l0.144,3.399l3.065-1.688l0.662,1.026l-3.182,1.863l2.861,1.819l-1.137,0.655l-3.283-1.561l-1.016,0.594l2.843,1.809l-1.138,0.656
	l-3.261-1.552l-3.071,1.799L94.5,254.5l-2.81,1.851l2.53,1.481l3.261-1.553l1.138,0.656l-2.843,1.809l1.016,0.594l3.283-1.561
	l1.137,0.655l-2.861,1.819l3.182,1.863l-0.662,1.026l-3.065-1.688l-0.144,3.4l-1.137-0.655l-0.289-3.606l-1.027-0.565l-0.141,3.33
	l-1.137-0.656l-0.282-3.533l-2.811-1.547v3.441l-3.26-1.691l-0.019,2.94l2.976,2.048v1.313l-2.987-1.559l-0.007,1.178l2.994,2.063
	v1.312L87.53,267.1l-0.021,3.687l-1.22-0.061l-0.072-3.499l-3.016,1.574v-1.311l2.979-2.055l-0.025-1.171l-2.954,1.54v-1.312
	l2.917-2.01l-0.063-3.113l-3.258,1.69v-3.435l-2.798,1.54l-0.282,3.533l-1.137,0.657l-0.141-3.332l-1.028,0.566l-0.288,3.606
	l-1.136,0.655l-0.146-3.399l-3.065,1.688l-0.663-1.026l3.183-1.863l-2.861-1.818l1.136-0.657l3.283,1.562l1.017-0.594l-2.842-1.809
	l1.136-0.656l3.262,1.553l3.072-1.8l-3.351-1.873l2.81-1.851l-2.53-1.48l-3.262,1.552l-1.136-0.656l2.842-1.809l-1.017-0.595
	l-3.283,1.562l-1.136-0.655l2.861-1.82l-3.183-1.862l0.663-1.026l3.065,1.688l0.146-3.399l1.136,0.655l0.288,3.607l1.028,0.564
	l0.141-3.33l1.137,0.655l0.282,3.533l2.812,1.547v-3.441l3.259,1.692l0.019-2.94l-2.974-2.048v-1.312l2.985,1.558l0.008-1.178
	l-2.993-2.063v-1.313l3.005,1.568L86.142,237.872L86.142,237.872z M86.815,253.495c-0.47,0-0.851,0.38-0.851,0.849
	s0.38,0.849,0.851,0.849c0.469,0,0.849-0.38,0.849-0.849S87.284,253.495,86.815,253.495L86.815,253.495z M89.481,253.605
	l-1.238,0.725l2.089,1.224l1.341-0.882L89.481,253.605L89.481,253.605z M85.406,254.33l-2.09-1.225l-1.341,0.884l2.193,1.065
	L85.406,254.33L85.406,254.33z M84.21,256.851v1.756l1.807-1.073l-0.036-1.657L84.21,256.851L84.21,256.851z M87.603,255.842
	l-0.01,1.677l1.833,1.088v-1.762L87.603,255.842L87.603,255.842z M89.438,251.81v-1.756l-1.806,1.073l0.034,1.657L89.438,251.81
	L89.438,251.81z M86.047,252.817l0.011-1.676l-1.835-1.088v1.763L86.047,252.817z"/>
<linearGradient id="SVGID_10_" gradientUnits="userSpaceOnUse" x1="326.9658" y1="-78.5781" x2="320.1179" y2="-90.932" gradientTransform="matrix(1 0 0 -1 -106 205)">
	<stop  offset="0" style="stop-color:#5BBFD5"/>
	<stop  offset="1" style="stop-color:#FFFFFF"/>
</linearGradient>
<path fill="url(#SVGID_10_)" d="M218.55,278.667l0.638,0.032l0.038,1.834l1.581-0.825v0.688l-1.562,1.074l0.012,0.614l1.55-0.808
	v0.688l-1.529,1.053l0.033,1.632l1.707-0.887v1.801l1.468-0.808l0.147-1.852l0.596-0.344l0.074,1.745l0.538-0.295l0.151-1.892
	l0.596-0.343l0.075,1.781l1.607-0.885l0.347,0.538l-1.668,0.977l1.5,0.954l-0.597,0.344l-1.721-0.818l-0.532,0.312l1.489,0.947
	l-0.596,0.345l-1.709-0.813l-1.61,0.942l1.757,0.982l-1.473,0.97l1.326,0.776l1.709-0.813l0.596,0.344l-1.489,0.947l0.532,0.312
	l1.721-0.817l0.597,0.343l-1.5,0.954l1.668,0.977l-0.347,0.538l-1.607-0.886l-0.075,1.782l-0.596-0.343l-0.151-1.891l-0.538-0.296
	l-0.074,1.745l-0.596-0.344l-0.147-1.853l-1.474-0.811v1.804l-1.708-0.887l-0.011,1.542l1.561,1.073v0.688l-1.566-0.817
	l-0.003,0.617l1.569,1.082v0.688l-1.577-0.821l-0.011,1.933l-0.639-0.032l-0.038-1.834l-1.581,0.825v-0.687l1.562-1.077
	l-0.013-0.614l-1.549,0.808v-0.688l1.529-1.054l-0.033-1.632l-1.708,0.887v-1.801l-1.467,0.808l-0.147,1.852l-0.596,0.345
	l-0.074-1.746l-0.539,0.297l-0.15,1.89l-0.596,0.344l-0.076-1.782l-1.606,0.885l-0.348-0.538l1.669-0.977l-1.5-0.953l0.596-0.344
	l1.721,0.818l0.533-0.312l-1.49-0.948l0.596-0.344l1.71,0.813l1.609-0.943l-1.756-0.981l1.473-0.97l-1.326-0.776l-1.71,0.813
	l-0.596-0.344l1.49-0.948l-0.533-0.312l-1.721,0.818l-0.596-0.344l1.5-0.954l-1.669-0.976l0.348-0.538l1.606,0.885l0.076-1.782
	l0.596,0.344l0.15,1.891l0.539,0.296l0.074-1.745l0.596,0.343l0.147,1.853l1.474,0.811v-1.804l1.708,0.887l0.011-1.541l-1.56-1.073
	v-0.688l1.564,0.816l0.005-0.617l-1.569-1.081v-0.688l1.575,0.822L218.55,278.667L218.55,278.667z M218.902,286.855
	c-0.246,0-0.445,0.199-0.445,0.445c0,0.245,0.199,0.444,0.445,0.444s0.445-0.199,0.445-0.444
	C219.348,287.055,219.148,286.855,218.902,286.855L218.902,286.855z M220.3,286.913l-0.649,0.38l1.096,0.642l0.703-0.462
	L220.3,286.913L220.3,286.913z M218.164,287.293l-1.096-0.642l-0.703,0.463l1.149,0.559L218.164,287.293L218.164,287.293z
	 M217.537,288.614v0.921l0.947-0.562l-0.02-0.869L217.537,288.614L217.537,288.614z M219.315,288.086l-0.006,0.879l0.961,0.57
	v-0.924L219.315,288.086L219.315,288.086z M220.276,285.973v-0.921l-0.946,0.562l0.019,0.869L220.276,285.973L220.276,285.973z
	 M218.5,286.5l0.005-0.878l-0.961-0.57v0.924L218.5,286.5z"/>
</svg>
