<?xml version="1.0" encoding="utf-8"?>
<!-- Generator: Adobe Illustrator 16.0.0, SVG Export Plug-In . SVG Version: 6.00 Build 0)  -->
<!DOCTYPE svg PUBLIC "-//W3C//DTD SVG 1.1//EN" "http://www.w3.org/Graphics/SVG/1.1/DTD/svg11.dtd">
<svg version="1.1" id="Layer_1" xmlns="http://www.w3.org/2000/svg" xmlns:xlink="http://www.w3.org/1999/xlink" x="0px" y="0px"
	 width="400px" height="400px" viewBox="0 0 400 400" enable-background="new 0 0 400 400" xml:space="preserve">
<g>
	<g>
		
			<linearGradient id="SVGID_1_" gradientUnits="userSpaceOnUse" x1="306.752" y1="568.6123" x2="457.9414" y2="530.9165" gradientTransform="matrix(1 0 0 1 -212 -391)">
			<stop  offset="0" style="stop-color:#A1A1A0"/>
			<stop  offset="1" style="stop-color:#FFFFFF"/>
		</linearGradient>
		<path fill="url(#SVGID_1_)" d="M72.545,229.812c-15.945,0-28.875-12.934-28.875-28.877c0-13.443,9.193-24.744,21.635-27.958
			c-0.72-3.4-1.103-6.928-1.103-10.542c0-27.774,22.353-50.335,50.046-50.683c6.297-32.893,35.22-57.759,69.945-57.759
			c28.065,0,52.338,16.245,63.946,39.841c4.455-1.692,9.288-2.624,14.336-2.624c22.324,0,40.426,18.102,40.426,40.426
			c0,3.325-0.404,6.557-1.161,9.65c23.442,0.742,42.229,19.984,42.229,43.607c0,24.093-19.54,43.63-43.633,43.63
			C257.395,228.525,152.89,229.812,72.545,229.812z"/>
		
			<linearGradient id="SVGID_2_" gradientUnits="userSpaceOnUse" x1="474.5342" y1="528.8164" x2="362.8896" y2="612.9465" gradientTransform="matrix(1 0 0 1 -212 -391)">
			<stop  offset="0" style="stop-color:#A1A1A0"/>
			<stop  offset="1" style="stop-color:#FFFFFF"/>
		</linearGradient>
		<path fill="url(#SVGID_2_)" d="M274.518,228.622c-47.93,0.278-125.271,1.089-190.207,1.183
			c-5.562-7.234-8.672-16.408-8.158-26.229c1.093-20.904,18.193-37.192,38.796-37.601c-0.048-1.01-0.046-2.031,0.007-3.061
			c0.883-16.918,15.329-29.928,32.246-29.044c4.374,0.229,8.484,1.366,12.162,3.216c9.513-15.352,26.881-25.19,46.188-24.184
			c26.801,1.402,47.702,23.2,48.463,49.564c17.496,6.366,29.57,23.588,28.553,43.145C282.115,214.21,279.191,222.1,274.518,228.622z
			"/>
		
			<linearGradient id="SVGID_3_" gradientUnits="userSpaceOnUse" x1="426.7939" y1="558.585" x2="461.1852" y2="635.8292" gradientTransform="matrix(1 0 0 1 -212 -391)">
			<stop  offset="0" style="stop-color:#A1A1A0"/>
			<stop  offset="1" style="stop-color:#FFFFFF"/>
		</linearGradient>
		<path fill="url(#SVGID_3_)" d="M330.367,216.545c-7.823,7.428-18.396,11.98-30.029,11.98c-30.138,0-90.591,0.639-151.735,1.015
			c4.917-9.909,13.517-17.731,24.099-21.58c0.757-26.366,21.663-48.164,48.461-49.565c19.308-1.008,36.677,8.831,46.187,24.183
			c3.68-1.849,7.789-2.987,12.164-3.216c16.918-0.884,31.362,12.127,32.246,29.045c0.057,1.03,0.057,2.051,0.009,3.06
			C318.484,211.602,324.83,213.425,330.367,216.545z"/>
	</g>
	<g>
		
			<linearGradient id="SVGID_4_" gradientUnits="userSpaceOnUse" x1="448.5791" y1="649.3721" x2="440.3598" y2="658.1862" gradientTransform="matrix(1 0 0 1 -212 -391)">
			<stop  offset="0" style="stop-color:#5BBFD5"/>
			<stop  offset="1" style="stop-color:#293787"/>
		</linearGradient>
		<path fill="url(#SVGID_4_)" d="M239.605,274.035c-3.728,2.244-8.49,0.914-10.643-2.977c-3.145-5.834,0.205-10.611-2.643-21.035
			c6.754,7.592,12.863,7.146,16.135,12.906C244.607,266.818,243.33,271.791,239.605,274.035z"/>
		<path fill="#FFFFFF" d="M239.771,269.562c1.133-1.887,1.258-4.35,0.115-6.414c-0.65-1.144-1.449-1.967-2.363-2.66
			c1.521,0.912,2.816,1.904,3.783,3.609c1.131,2.043,1.021,4.479-0.084,6.357c-0.072,0.148-0.185,0.275-0.33,0.365
			c-0.406,0.244-0.922,0.102-1.156-0.322C239.568,270.195,239.594,269.833,239.771,269.562z"/>
	</g>
	<g>
		
			<linearGradient id="SVGID_5_" gradientUnits="userSpaceOnUse" x1="322.5781" y1="646.3711" x2="314.3589" y2="655.1852" gradientTransform="matrix(1 0 0 1 -212 -391)">
			<stop  offset="0" style="stop-color:#5BBFD5"/>
			<stop  offset="1" style="stop-color:#293787"/>
		</linearGradient>
		<path fill="url(#SVGID_5_)" d="M113.605,271.035c-3.728,2.244-8.49,0.914-10.643-2.977c-3.145-5.834,0.205-10.611-2.643-21.035
			c6.754,7.592,12.863,7.146,16.135,12.906C118.607,263.818,117.33,268.791,113.605,271.035z"/>
		<path fill="#FFFFFF" d="M113.771,266.562c1.133-1.887,1.258-4.35,0.115-6.414c-0.65-1.144-1.449-1.967-2.363-2.66
			c1.521,0.912,2.816,1.904,3.783,3.609c1.131,2.043,1.021,4.479-0.084,6.357c-0.072,0.148-0.185,0.275-0.33,0.365
			c-0.406,0.244-0.922,0.102-1.156-0.322C113.568,267.195,113.594,266.833,113.771,266.562z"/>
	</g>
	<g>
		
			<linearGradient id="SVGID_6_" gradientUnits="userSpaceOnUse" x1="471.5791" y1="640.3721" x2="463.36" y2="649.1861" gradientTransform="matrix(1 0 0 1 -212 -391)">
			<stop  offset="0" style="stop-color:#5BBFD5"/>
			<stop  offset="1" style="stop-color:#293787"/>
		</linearGradient>
		<path fill="url(#SVGID_6_)" d="M262.605,265.035c-3.728,2.244-8.49,0.914-10.643-2.977c-3.145-5.834,0.205-10.611-2.643-21.035
			c6.754,7.592,12.863,7.146,16.135,12.906C267.607,257.818,266.33,262.791,262.605,265.035z"/>
		<path fill="#FFFFFF" d="M262.771,260.562c1.133-1.887,1.258-4.35,0.115-6.414c-0.65-1.144-1.449-1.967-2.363-2.66
			c1.521,0.912,2.816,1.904,3.783,3.609c1.131,2.043,1.021,4.479-0.084,6.357c-0.072,0.148-0.185,0.275-0.33,0.365
			c-0.406,0.244-0.922,0.102-1.156-0.322C262.568,261.195,262.594,260.833,262.771,260.562z"/>
	</g>
	<g>
		
			<linearGradient id="SVGID_7_" gradientUnits="userSpaceOnUse" x1="374.9844" y1="678.5869" x2="367.0313" y2="687.1156" gradientTransform="matrix(1 0 0 1 -212 -391)">
			<stop  offset="0" style="stop-color:#5BBFD5"/>
			<stop  offset="1" style="stop-color:#293787"/>
		</linearGradient>
		<path fill="url(#SVGID_7_)" d="M165.986,302.589c-3.694,2.134-8.417,0.868-10.55-2.825c-3.117-5.546,0.203-10.082-2.62-19.986
			c6.695,7.214,12.753,6.791,15.997,12.262C170.946,295.732,169.679,300.457,165.986,302.589z"/>
		<path fill="#FFFFFF" d="M166.151,298.34c1.125-1.791,1.248-4.132,0.116-6.093c-0.645-1.086-1.437-1.869-2.344-2.528
			c1.509,0.868,2.793,1.811,3.752,3.43c1.121,1.94,1.013,4.256-0.084,6.041c-0.072,0.141-0.183,0.263-0.328,0.348
			c-0.401,0.232-0.914,0.096-1.146-0.307C165.951,298.941,165.975,298.598,166.151,298.34z"/>
	</g>
	<g>
		
			<linearGradient id="SVGID_8_" gradientUnits="userSpaceOnUse" x1="391.2002" y1="637.2178" x2="381.3275" y2="647.8049" gradientTransform="matrix(1 0 0 1 -212 -391)">
			<stop  offset="0" style="stop-color:#5BBFD5"/>
			<stop  offset="1" style="stop-color:#293787"/>
		</linearGradient>
		<path fill="url(#SVGID_8_)" d="M182.925,264.84c-4.585,2.646-10.449,1.077-13.096-3.509c-3.869-6.882,0.252-12.515-3.253-24.808
			c8.313,8.953,15.833,8.429,19.858,15.22C189.081,256.329,187.51,262.193,182.925,264.84z"/>
		<path fill="#FFFFFF" d="M183.127,259.564c1.397-2.224,1.549-5.129,0.145-7.562c-0.8-1.349-1.782-2.319-2.907-3.14
			c1.872,1.078,3.464,2.248,4.656,4.258c1.391,2.408,1.255,5.281-0.104,7.498c-0.088,0.175-0.225,0.326-0.408,0.432
			c-0.498,0.288-1.135,0.118-1.421-0.381C182.881,260.312,182.911,259.884,183.127,259.564z"/>
	</g>
	<g>
		
			<linearGradient id="SVGID_9_" gradientUnits="userSpaceOnUse" x1="431.1338" y1="672.6387" x2="421.2612" y2="683.2256" gradientTransform="matrix(1 0 0 1 -212 -391)">
			<stop  offset="0" style="stop-color:#5BBFD5"/>
			<stop  offset="1" style="stop-color:#293787"/>
		</linearGradient>
		<path fill="url(#SVGID_9_)" d="M222.857,300.264c-4.582,2.646-10.447,1.075-13.096-3.51c-3.869-6.883,0.254-12.516-3.255-24.811
			c8.312,8.955,15.836,8.432,19.856,15.223C229.014,291.75,227.443,297.615,222.857,300.264z"/>
		<path fill="#FFFFFF" d="M223.061,294.986c1.398-2.226,1.551-5.129,0.146-7.562c-0.802-1.35-1.781-2.321-2.907-3.142
			c1.874,1.08,3.465,2.249,4.657,4.259c1.39,2.41,1.256,5.284-0.106,7.498c-0.086,0.175-0.225,0.327-0.406,0.433
			c-0.498,0.286-1.135,0.116-1.422-0.38C222.814,295.734,222.846,295.307,223.061,294.986z"/>
	</g>
</g>
<g>
	
		<linearGradient id="SVGID_10_" gradientUnits="userSpaceOnUse" x1="362.5791" y1="646.3711" x2="354.36" y2="655.1851" gradientTransform="matrix(1 0 0 1 -212 -391)">
		<stop  offset="0" style="stop-color:#5BBFD5"/>
		<stop  offset="1" style="stop-color:#293787"/>
	</linearGradient>
	<path fill="url(#SVGID_10_)" d="M153.605,271.035c-3.728,2.244-8.49,0.914-10.643-2.977c-3.145-5.834,0.205-10.611-2.643-21.035
		c6.754,7.592,12.863,7.146,16.135,12.906C158.607,263.818,157.33,268.791,153.605,271.035z"/>
	<path fill="#FFFFFF" d="M153.771,266.562c1.133-1.887,1.258-4.35,0.115-6.414c-0.65-1.144-1.449-1.967-2.363-2.66
		c1.521,0.912,2.816,1.904,3.783,3.609c1.131,2.043,1.021,4.479-0.084,6.357c-0.072,0.148-0.185,0.275-0.33,0.365
		c-0.406,0.244-0.922,0.102-1.156-0.322C153.568,267.195,153.594,266.833,153.771,266.562z"/>
</g>
<g>
	
		<linearGradient id="SVGID_11_" gradientUnits="userSpaceOnUse" x1="400.5625" y1="673.3682" x2="392.6094" y2="681.8969" gradientTransform="matrix(1 0 0 1 -212 -391)">
		<stop  offset="0" style="stop-color:#5BBFD5"/>
		<stop  offset="1" style="stop-color:#293787"/>
	</linearGradient>
	<path fill="url(#SVGID_11_)" d="M191.563,297.37c-3.694,2.134-8.417,0.868-10.55-2.825c-3.117-5.546,0.203-10.082-2.62-19.986
		c6.695,7.214,12.753,6.791,15.997,12.262C196.523,290.514,195.256,295.238,191.563,297.37z"/>
	<path fill="#FFFFFF" d="M191.728,293.121c1.125-1.791,1.248-4.132,0.116-6.093c-0.645-1.086-1.437-1.869-2.344-2.528
		c1.509,0.868,2.793,1.811,3.752,3.43c1.121,1.94,1.013,4.256-0.084,6.041c-0.072,0.141-0.183,0.263-0.328,0.348
		c-0.401,0.232-0.914,0.096-1.146-0.307C191.528,293.723,191.552,293.379,191.728,293.121z"/>
</g>
<g>
	
		<linearGradient id="SVGID_12_" gradientUnits="userSpaceOnUse" x1="418.2158" y1="640.9268" x2="410.6779" y2="649.0101" gradientTransform="matrix(1 0 0 1 -212 -391)">
		<stop  offset="0" style="stop-color:#5BBFD5"/>
		<stop  offset="1" style="stop-color:#293787"/>
	</linearGradient>
	<path fill="url(#SVGID_12_)" d="M209.059,264.144c-3.501,2.021-7.978,0.823-9.999-2.679c-2.955-5.255,0.192-9.555-2.484-18.941
		c6.347,6.836,12.089,6.436,15.161,11.621C213.759,257.646,212.56,262.123,209.059,264.144z"/>
	<path fill="#FFFFFF" d="M209.213,260.116c1.066-1.698,1.183-3.916,0.11-5.773c-0.609-1.03-1.36-1.771-2.219-2.397
		c1.429,0.823,2.645,1.717,3.555,3.251c1.062,1.839,0.958,4.032-0.079,5.725c-0.067,0.134-0.173,0.249-0.312,0.33
		c-0.38,0.22-0.867,0.09-1.085-0.291C209.025,260.688,209.048,260.359,209.213,260.116z"/>
</g>
<g>
	
		<linearGradient id="SVGID_13_" gradientUnits="userSpaceOnUse" x1="351.1777" y1="666.7852" x2="343.4333" y2="675.0901" gradientTransform="matrix(1 0 0 1 -212 -391)">
		<stop  offset="0" style="stop-color:#5BBFD5"/>
		<stop  offset="1" style="stop-color:#293787"/>
	</linearGradient>
	<path fill="url(#SVGID_13_)" d="M142.119,290.35c-3.62,2.063-8.253,0.838-10.346-2.738c-3.057-5.368,0.201-9.762-2.571-19.352
		c6.566,6.984,12.511,6.576,15.688,11.873C146.982,283.709,145.742,288.283,142.119,290.35z"/>
	<path fill="#FFFFFF" d="M142.279,286.233c1.105-1.736,1.225-4.001,0.115-5.898c-0.634-1.053-1.408-1.811-2.297-2.45
		c1.48,0.843,2.737,1.754,3.679,3.321c1.098,1.88,0.992,4.122-0.084,5.849c-0.068,0.137-0.178,0.255-0.321,0.338
		c-0.394,0.223-0.897,0.09-1.124-0.297C142.085,286.816,142.109,286.482,142.279,286.233z"/>
</g>
</svg>
