<?xml version="1.0" encoding="utf-8"?>
<!-- Generator: Adobe Illustrator 16.0.0, SVG Export Plug-In . SVG Version: 6.00 Build 0)  -->
<!DOCTYPE svg PUBLIC "-//W3C//DTD SVG 1.1//EN" "http://www.w3.org/Graphics/SVG/1.1/DTD/svg11.dtd">
<svg version="1.1" id="Layer_1" xmlns="http://www.w3.org/2000/svg" xmlns:xlink="http://www.w3.org/1999/xlink" x="0px" y="0px"
	 width="400px" height="400px" viewBox="0 0 400 400" enable-background="new 0 0 400 400" xml:space="preserve">
<g>
	<g>
		
			<linearGradient id="SVGID_1_" gradientUnits="userSpaceOnUse" x1="306.752" y1="568.6123" x2="457.9414" y2="530.9165" gradientTransform="matrix(1 0 0 1 -212 -391)">
			<stop  offset="0" style="stop-color:#A1A1A0"/>
			<stop  offset="1" style="stop-color:#FFFFFF"/>
		</linearGradient>
		<path fill="url(#SVGID_1_)" d="M72.545,229.812c-15.945,0-28.875-12.934-28.875-28.877c0-13.443,9.193-24.744,21.635-27.958
			c-0.72-3.4-1.103-6.928-1.103-10.542c0-27.774,22.353-50.335,50.046-50.683c6.297-32.893,35.22-57.759,69.945-57.759
			c28.065,0,52.338,16.245,63.946,39.841c4.455-1.692,9.288-2.624,14.336-2.624c22.324,0,40.426,18.102,40.426,40.426
			c0,3.325-0.404,6.557-1.161,9.65c23.442,0.742,42.229,19.984,42.229,43.607c0,24.093-19.54,43.63-43.633,43.63
			C257.395,228.525,152.89,229.812,72.545,229.812z"/>
		
			<linearGradient id="SVGID_2_" gradientUnits="userSpaceOnUse" x1="474.5342" y1="528.8164" x2="362.8896" y2="612.9465" gradientTransform="matrix(1 0 0 1 -212 -391)">
			<stop  offset="0" style="stop-color:#A1A1A0"/>
			<stop  offset="1" style="stop-color:#FFFFFF"/>
		</linearGradient>
		<path fill="url(#SVGID_2_)" d="M274.518,228.622c-47.93,0.278-125.271,1.089-190.207,1.183
			c-5.562-7.234-8.672-16.408-8.158-26.229c1.093-20.904,18.193-37.192,38.796-37.601c-0.048-1.01-0.046-2.031,0.007-3.061
			c0.883-16.918,15.329-29.928,32.246-29.044c4.374,0.229,8.484,1.366,12.162,3.216c9.513-15.352,26.881-25.19,46.188-24.184
			c26.801,1.402,47.702,23.2,48.463,49.564c17.496,6.366,29.57,23.588,28.553,43.145C282.115,214.21,279.191,222.1,274.518,228.622z
			"/>
		
			<linearGradient id="SVGID_3_" gradientUnits="userSpaceOnUse" x1="426.7939" y1="558.585" x2="461.1852" y2="635.8292" gradientTransform="matrix(1 0 0 1 -212 -391)">
			<stop  offset="0" style="stop-color:#A1A1A0"/>
			<stop  offset="1" style="stop-color:#FFFFFF"/>
		</linearGradient>
		<path fill="url(#SVGID_3_)" d="M330.367,216.545c-7.823,7.428-18.396,11.98-30.029,11.98c-30.138,0-90.591,0.639-151.735,1.015
			c4.917-9.909,13.517-17.731,24.099-21.58c0.757-26.366,21.663-48.164,48.461-49.565c19.308-1.008,36.677,8.831,46.187,24.183
			c3.68-1.849,7.789-2.987,12.164-3.216c16.918-0.884,31.362,12.127,32.246,29.045c0.057,1.03,0.057,2.051,0.009,3.06
			C318.484,211.602,324.83,213.425,330.367,216.545z"/>
	</g>
	<g>
		
			<linearGradient id="SVGID_4_" gradientUnits="userSpaceOnUse" x1="445.1602" y1="640.1211" x2="439.3459" y2="646.3561" gradientTransform="matrix(1 0 0 1 -212 -391)">
			<stop  offset="0" style="stop-color:#5BBFD5"/>
			<stop  offset="1" style="stop-color:#293787"/>
		</linearGradient>
		<path fill="url(#SVGID_4_)" d="M235.301,260.202c-2.637,1.587-6.006,0.646-7.528-2.106c-2.225-4.127,0.145-7.506-1.87-14.88
			c4.778,5.37,9.1,5.056,11.414,9.13C238.839,255.097,237.936,258.614,235.301,260.202z"/>
		<path fill="#FFFFFF" d="M235.418,257.038c0.802-1.335,0.89-3.077,0.082-4.538c-0.46-0.809-1.025-1.391-1.672-1.882
			c1.076,0.646,1.992,1.348,2.676,2.554c0.8,1.445,0.723,3.168-0.06,4.497c-0.051,0.105-0.13,0.195-0.233,0.259
			c-0.287,0.173-0.651,0.071-0.817-0.229C235.274,257.485,235.292,257.229,235.418,257.038z"/>
	</g>
	<g>
		
			<linearGradient id="SVGID_5_" gradientUnits="userSpaceOnUse" x1="365.8369" y1="657.9922" x2="360.2109" y2="664.0253" gradientTransform="matrix(1 0 0 1 -212 -391)">
			<stop  offset="0" style="stop-color:#5BBFD5"/>
			<stop  offset="1" style="stop-color:#293787"/>
		</linearGradient>
		<path fill="url(#SVGID_5_)" d="M155.959,277.604c-2.613,1.509-5.954,0.614-7.463-1.999c-2.205-3.923,0.144-7.132-1.854-14.139
			c4.736,5.104,9.021,4.805,11.316,8.674C159.468,272.754,158.572,276.096,155.959,277.604z"/>
		<path fill="#FFFFFF" d="M156.076,274.599c0.796-1.268,0.883-2.923,0.083-4.311c-0.457-0.769-1.017-1.322-1.659-1.788
			c1.068,0.614,1.976,1.28,2.654,2.426c0.793,1.373,0.717,3.011-0.059,4.273c-0.051,0.1-0.129,0.186-0.232,0.246
			c-0.284,0.164-0.646,0.067-0.811-0.217C155.935,275.023,155.952,274.78,156.076,274.599z"/>
	</g>
	<g>
		
			<linearGradient id="SVGID_6_" gradientUnits="userSpaceOnUse" x1="393.1992" y1="636.7168" x2="386.2155" y2="644.2059" gradientTransform="matrix(1 0 0 1 -212 -391)">
			<stop  offset="0" style="stop-color:#5BBFD5"/>
			<stop  offset="1" style="stop-color:#293787"/>
		</linearGradient>
		<path fill="url(#SVGID_6_)" d="M183.834,258.89c-3.243,1.872-7.392,0.762-9.264-2.482c-2.737-4.868,0.179-8.853-2.301-17.549
			c5.88,6.334,11.2,5.963,14.047,10.767C188.189,252.869,187.078,257.018,183.834,258.89z"/>
		<path fill="#FFFFFF" d="M183.978,255.158c0.988-1.573,1.096-3.629,0.103-5.35c-0.565-0.954-1.26-1.641-2.056-2.221
			c1.324,0.763,2.45,1.59,3.293,3.012c0.984,1.704,0.888,3.736-0.073,5.305c-0.062,0.123-0.16,0.23-0.289,0.305
			c-0.352,0.204-0.803,0.084-1.005-0.27C183.804,255.688,183.825,255.384,183.978,255.158z"/>
	</g>
	<g>
		
			<linearGradient id="SVGID_7_" gradientUnits="userSpaceOnUse" x1="418.6191" y1="655.4062" x2="411.6352" y2="662.8956" gradientTransform="matrix(1 0 0 1 -212 -391)">
			<stop  offset="0" style="stop-color:#5BBFD5"/>
			<stop  offset="1" style="stop-color:#293787"/>
		</linearGradient>
		<path fill="url(#SVGID_7_)" d="M209.254,277.582c-3.242,1.872-7.391,0.761-9.264-2.482c-2.737-4.869,0.18-8.854-2.303-17.552
			c5.879,6.335,11.203,5.965,14.046,10.769C213.608,271.56,212.498,275.709,209.254,277.582z"/>
		<path fill="#FFFFFF" d="M209.397,273.849c0.989-1.574,1.097-3.628,0.103-5.349c-0.566-0.955-1.26-1.643-2.057-2.223
			c1.326,0.765,2.451,1.591,3.295,3.013c0.983,1.705,0.889,3.738-0.075,5.305c-0.061,0.123-0.159,0.231-0.287,0.306
			c-0.353,0.202-0.803,0.082-1.006-0.269C209.224,274.378,209.245,274.075,209.397,273.849z"/>
	</g>
</g>
</svg>
