<?xml version="1.0" encoding="utf-8"?>
<!-- Generator: Adobe Illustrator 16.0.0, SVG Export Plug-In . SVG Version: 6.00 Build 0)  -->
<!DOCTYPE svg PUBLIC "-//W3C//DTD SVG 1.1//EN" "http://www.w3.org/Graphics/SVG/1.1/DTD/svg11.dtd">
<svg version="1.1" id="Layer_1" xmlns="http://www.w3.org/2000/svg" xmlns:xlink="http://www.w3.org/1999/xlink" x="0px" y="0px"
	 width="400px" height="400px" viewBox="0 0 400 400" enable-background="new 0 0 400 400" xml:space="preserve">
<g>
	<g>
		
			<linearGradient id="SVGID_1_" gradientUnits="userSpaceOnUse" x1="200.752" y1="27.3877" x2="351.9415" y2="65.0835" gradientTransform="matrix(1 0 0 -1 -106 205)">
			<stop  offset="0" style="stop-color:#A1A1A0"/>
			<stop  offset="1" style="stop-color:#FFFFFF"/>
		</linearGradient>
		<path fill="url(#SVGID_1_)" d="M72.545,229.812c-15.945,0-28.875-12.933-28.875-28.877c0-13.443,9.193-24.743,21.635-27.958
			c-0.72-3.4-1.103-6.928-1.103-10.542c0-27.774,22.353-50.335,50.046-50.683c6.297-32.893,35.22-57.759,69.945-57.759
			c28.065,0,52.338,16.245,63.946,39.841c4.455-1.692,9.288-2.624,14.336-2.624c22.324,0,40.426,18.102,40.426,40.426
			c0,3.325-0.405,6.557-1.162,9.65c23.443,0.742,42.23,19.984,42.23,43.607c0,24.094-19.54,43.631-43.633,43.631
			C257.395,228.525,152.89,229.812,72.545,229.812z"/>
		
			<linearGradient id="SVGID_2_" gradientUnits="userSpaceOnUse" x1="368.5332" y1="67.1841" x2="256.8885" y2="-16.9462" gradientTransform="matrix(1 0 0 -1 -106 205)">
			<stop  offset="0" style="stop-color:#A1A1A0"/>
			<stop  offset="1" style="stop-color:#FFFFFF"/>
		</linearGradient>
		<path fill="url(#SVGID_2_)" d="M274.518,228.622c-47.93,0.278-125.272,1.089-190.207,1.183c-5.562-7.234-8.672-16.408-8.158-26.23
			c1.093-20.904,18.193-37.192,38.796-37.601c-0.048-1.01-0.046-2.031,0.007-3.061c0.883-16.918,15.329-29.928,32.246-29.044
			c4.374,0.229,8.484,1.366,12.162,3.216c9.513-15.352,26.881-25.19,46.188-24.184c26.801,1.402,47.703,23.2,48.463,49.564
			c17.496,6.366,29.571,23.588,28.553,43.144C282.115,214.21,279.191,222.1,274.518,228.622z"/>
		
			<linearGradient id="SVGID_3_" gradientUnits="userSpaceOnUse" x1="320.7949" y1="37.415" x2="355.1862" y2="-39.8292" gradientTransform="matrix(1 0 0 -1 -106 205)">
			<stop  offset="0" style="stop-color:#A1A1A0"/>
			<stop  offset="1" style="stop-color:#FFFFFF"/>
		</linearGradient>
		<path fill="url(#SVGID_3_)" d="M330.367,216.545c-7.823,7.428-18.396,11.98-30.029,11.98c-30.138,0-90.591,0.639-151.735,1.015
			c4.917-9.909,13.517-17.731,24.099-21.58c0.757-26.366,21.663-48.164,48.461-49.565c19.308-1.008,36.677,8.831,46.187,24.183
			c3.68-1.849,7.789-2.987,12.164-3.216c16.918-0.884,31.362,12.127,32.246,29.045c0.056,1.03,0.056,2.051,0.009,3.06
			C318.484,211.602,324.83,213.425,330.367,216.545z"/>
	</g>
	<g>
		
			<linearGradient id="SVGID_4_" gradientUnits="userSpaceOnUse" x1="295.4932" y1="-50.8862" x2="276.792" y2="-70.9409" gradientTransform="matrix(1 0 0 -1 -106 205)">
			<stop  offset="0" style="stop-color:#5BBFD5"/>
			<stop  offset="1" style="stop-color:#293787"/>
		</linearGradient>
		<path fill="url(#SVGID_4_)" d="M196.547,291.161c-8.686,5.016-19.793,2.04-24.807-6.646c-7.329-13.037,0.477-23.707-6.163-46.992
			c15.747,16.959,29.992,15.966,37.616,28.83C208.208,275.04,205.232,286.148,196.547,291.161z"/>
		<path fill="#FFFFFF" d="M196.931,281.171c2.647-4.213,2.935-9.716,0.274-14.325c-1.516-2.556-3.376-4.396-5.507-5.945
			c3.546,2.039,6.563,4.257,8.819,8.063c2.635,4.563,2.377,10.005-0.198,14.203c-0.167,0.33-0.427,0.617-0.772,0.817
			c-0.943,0.545-2.15,0.223-2.693-0.723C196.465,282.585,196.52,281.773,196.931,281.171z"/>
	</g>
</g>
</svg>
