<?xml version="1.0" encoding="utf-8"?>
<!-- Generator: Adobe Illustrator 16.0.0, SVG Export Plug-In . SVG Version: 6.00 Build 0)  -->
<!DOCTYPE svg PUBLIC "-//W3C//DTD SVG 1.1//EN" "http://www.w3.org/Graphics/SVG/1.1/DTD/svg11.dtd">
<svg version="1.1" id="Layer_1" xmlns="http://www.w3.org/2000/svg" xmlns:xlink="http://www.w3.org/1999/xlink" x="0px" y="0px"
	 width="400px" height="400px" viewBox="0 0 400 400" enable-background="new 0 0 400 400" xml:space="preserve">
<g>
	<g>
		<polygon opacity="0.502" fill="#FEBF10" enable-background="new    " points="141.734,219.688 179.663,217.979 151.327,243.255 
			187.643,232.154 166.486,263.691 198.903,243.916 186.249,279.71 212.723,252.503 209.37,290.32 228.255,257.386 234.415,294.85 
			244.507,258.251 259.794,293.007 260.464,255.051 283.914,284.906 275.119,247.975 305.262,271.064 287.562,237.48 
			322.489,252.354 296.998,224.225 334.537,229.941 302.852,209.029 340.627,205.229 304.732,192.867 340.377,179.799 
			302.54,176.731 333.809,155.21 296.395,161.667 321.339,133.035 286.708,148.587 303.739,114.656 274.068,138.335 
			282.133,101.231 259.275,131.55 257.854,93.607 243.246,128.656 232.449,92.256 227.02,129.83 207.503,97.262 211.598,135.013 
			184.585,108.324 197.933,143.861 165.137,124.721 186.905,155.828 150.381,145.458 179.201,170.174 141.248,169.197 
			175.305,185.969 138.304,194.473 175.466,202.246 		"/>
		
			<linearGradient id="SVGID_1_" gradientUnits="userSpaceOnUse" x1="-28.0493" y1="271.9883" x2="-21.7169" y2="271.9883" gradientTransform="matrix(4.975 27.578 -27.544 4.981 7860.5171 -445.29)">
			<stop  offset="0" style="stop-color:#FEBF10"/>
			<stop  offset="1" style="stop-color:#F58020"/>
		</linearGradient>
		<polygon fill="url(#SVGID_1_)" points="132.052,237.542 174.989,230.104 146.395,262.977 186.12,245.1 166.595,284.055 
			200.635,256.855 191.414,299.439 217.618,264.634 219.277,308.169 235.999,267.936 248.441,309.688 254.626,266.577 
			277.062,303.914 272.338,260.615 303.346,291.213 287.996,250.445 325.645,272.367 300.636,236.691 342.566,248.574 
			309.466,220.23 353.025,221.307 313.932,202.1 356.378,192.306 313.721,183.418 352.42,163.378 308.898,165.376 341.389,136.349 
			299.723,149.105 323.975,112.905 286.797,135.624 301.279,94.529 270.928,125.772 274.736,82.374 253.104,120.195 245.991,77.207 
			234.439,119.218 216.877,79.344 216.137,122.904 189.205,88.656 199.323,131.042 164.716,104.562 185.056,143.089 
			144.953,126.059 174.234,158.313 131.155,151.791 167.541,175.756 124.192,180.145 165.397,194.309 124.499,209.333 
			167.927,212.807 		"/>
		
			<linearGradient id="SVGID_2_" gradientUnits="userSpaceOnUse" x1="-20.229" y1="268.3428" x2="-13.8977" y2="268.3428" gradientTransform="matrix(3.341 18.504 -18.504 3.341 5265.3843 -370.073)">
			<stop  offset="0" style="stop-color:#FEBF10"/>
			<stop  offset="1" style="stop-color:#F58020"/>
		</linearGradient>
		<path fill="url(#SVGID_2_)" d="M161.68,197.759c-3.746-42.887,28.016-80.754,70.904-84.502
			c42.895-3.746,80.757,28.014,84.502,70.911c3.748,42.891-28.016,80.752-70.906,84.497
			C203.288,272.409,165.428,240.65,161.68,197.759z"/>
		<path opacity="0.1176" fill="#F6EB16" enable-background="new    " d="M161.668,197.771
			c-3.754-42.895,28.021-80.753,70.906-84.507c42.894-3.75,80.751,28.02,84.5,70.907
			C323.885,233.975,169.367,249.559,161.668,197.771z"/>
		<path opacity="0.2549" fill="#F6EB16" enable-background="new    " d="M174.302,180.158
			c-10.562-16.802-0.594-40.845,22.258-53.666c22.84-12.827,49.952-9.599,60.516,7.199c10.561,16.807,0.581,40.851-22.268,53.671
			C211.966,200.184,184.859,196.953,174.302,180.158z"/>
		
			<linearGradient id="SVGID_3_" gradientUnits="userSpaceOnUse" x1="-44.4185" y1="293.4365" x2="-38.0851" y2="293.4365" gradientTransform="matrix(29.607 -19.987 19.987 29.607 -4386.1431 -9333.5283)">
			<stop  offset="0" style="stop-color:#F6EB16"/>
			<stop  offset="1" style="stop-color:#F58020"/>
		</linearGradient>
		<path fill="url(#SVGID_3_)" d="M238.214,267.275c2.571,0.041,5.167-0.057,7.802-0.279c41.955-3.67,73.035-40.719,69.362-82.672
			c-3.662-41.965-40.704-73.035-82.659-69.373c-41.962,3.672-73.044,40.704-69.37,82.663
			C166.783,236.953,199.552,266.725,238.214,267.275z M238.165,270.66c-40.375-0.573-74.599-31.654-78.191-72.748
			c-3.828-43.823,28.626-82.505,72.451-86.325c43.819-3.838,82.496,28.62,86.331,72.439c3.834,43.824-28.617,82.494-72.455,86.333
			C243.568,270.607,240.848,270.7,238.165,270.66z"/>
	</g>
	<g>
		
			<linearGradient id="SVGID_4_" gradientUnits="userSpaceOnUse" x1="433.0605" y1="381.3564" x2="581.2274" y2="344.4142" gradientTransform="matrix(1 0 0 1 -358 -155)">
			<stop  offset="0" style="stop-color:#A1A1A0"/>
			<stop  offset="1" style="stop-color:#FFFFFF"/>
		</linearGradient>
		<path fill="url(#SVGID_4_)" d="M53.3,277.507c-15.626,0-28.298-12.669-28.298-28.3c0-13.17,9.009-24.247,21.203-27.396
			c-0.706-3.33-1.08-6.79-1.08-10.329c0-27.221,21.907-49.331,49.045-49.671c6.17-32.236,34.517-56.604,68.547-56.604
			c27.501,0,51.291,15.921,62.663,39.042c4.369-1.658,9.106-2.57,14.054-2.57c21.876,0,39.618,17.74,39.618,39.617
			c0,3.256-0.397,6.426-1.143,9.457c22.979,0.729,41.388,19.586,41.388,42.734c0,23.615-19.148,42.763-42.762,42.763
			C234.452,276.247,132.037,277.507,53.3,277.507z"/>
		
			<linearGradient id="SVGID_5_" gradientUnits="userSpaceOnUse" x1="597.4893" y1="342.3535" x2="488.0792" y2="424.8" gradientTransform="matrix(1 0 0 1 -358 -155)">
			<stop  offset="0" style="stop-color:#A1A1A0"/>
			<stop  offset="1" style="stop-color:#FFFFFF"/>
		</linearGradient>
		<path fill="url(#SVGID_5_)" d="M251.234,276.344c-46.971,0.272-122.768,1.066-186.405,1.157
			c-5.451-7.092-8.498-16.082-7.994-25.708c1.071-20.483,17.829-36.445,38.021-36.847c-0.046-0.99-0.045-1.989,0.007-2.998
			c0.868-16.582,15.022-29.33,31.601-28.462c4.286,0.221,8.313,1.335,11.919,3.15c9.32-15.045,26.342-24.688,45.262-23.699
			c26.263,1.374,46.754,22.737,47.491,48.571c17.15,6.242,28.984,23.12,27.982,42.284
			C258.68,262.219,255.812,269.948,251.234,276.344z"/>
		
			<linearGradient id="SVGID_6_" gradientUnits="userSpaceOnUse" x1="550.7031" y1="371.5303" x2="584.407" y2="447.2303" gradientTransform="matrix(1 0 0 1 -358 -155)">
			<stop  offset="0" style="stop-color:#A1A1A0"/>
			<stop  offset="1" style="stop-color:#FFFFFF"/>
		</linearGradient>
		<path fill="url(#SVGID_6_)" d="M305.963,264.507c-7.665,7.277-18.024,11.744-29.429,11.744c-29.531,0-88.777,0.62-148.7,0.99
			c4.819-9.708,13.247-17.377,23.618-21.149c0.742-25.836,21.229-47.199,47.494-48.572c18.918-0.988,35.94,8.654,45.262,23.698
			c3.608-1.812,7.633-2.925,11.921-3.148c16.577-0.866,30.734,11.882,31.598,28.462c0.053,1.009,0.053,2.012,0.007,2.999
			C294.32,259.664,300.536,261.449,305.963,264.507z"/>
	</g>
</g>
</svg>
