<?xml version="1.0" encoding="utf-8"?>
<!-- Generator: Adobe Illustrator 16.0.0, SVG Export Plug-In . SVG Version: 6.00 Build 0)  -->
<!DOCTYPE svg PUBLIC "-//W3C//DTD SVG 1.1//EN" "http://www.w3.org/Graphics/SVG/1.1/DTD/svg11.dtd">
<svg version="1.1" id="Layer_1" xmlns="http://www.w3.org/2000/svg" xmlns:xlink="http://www.w3.org/1999/xlink" x="0px" y="0px"
	 width="400px" height="400px" viewBox="0 0 400 400" enable-background="new 0 0 400 400" xml:space="preserve">
<linearGradient id="SVGID_1_" gradientUnits="userSpaceOnUse" x1="220.835" y1="160.9795" x2="153.2579" y2="244.4302">
	<stop  offset="0" style="stop-color:#5ABFD5"/>
	<stop  offset="1" style="stop-color:#0F298F"/>
</linearGradient>
<path fill-rule="evenodd" clip-rule="evenodd" fill="url(#SVGID_1_)" d="M177.736,97.076c18.803-4.322,37.582-2.648,54.344,3.766
	c-4.268,0.149-8.58,0.699-12.896,1.692c-36.444,8.377-59.204,44.726-50.825,81.168c8.379,36.444,44.726,59.204,81.17,50.825
	c17.485-4.021,31.817-14.484,41.076-28.303c-6.885,35.166-33.751,64.769-70.922,73.312
	c-50.378,11.581-100.625-19.881-112.206-70.255C95.896,158.904,127.358,108.657,177.736,97.076z"/>
<g>
	<g>
		
			<linearGradient id="SVGID_2_" gradientUnits="userSpaceOnUse" x1="661.7734" y1="-271.1396" x2="749.8922" y2="-249.1691" gradientTransform="matrix(1 0 0 -1 -610 -6)">
			<stop  offset="0" style="stop-color:#A1A1A0"/>
			<stop  offset="1" style="stop-color:#FFFFFF"/>
		</linearGradient>
		<path fill="url(#SVGID_2_)" d="M38.832,295.559c-9.294,0-16.83-7.535-16.83-16.83c0-7.834,5.358-14.42,12.61-16.292
			c-0.42-1.98-0.642-4.04-0.642-6.143c0-16.189,13.029-29.339,29.168-29.541c3.669-19.168,20.528-33.662,40.767-33.662
			c16.355,0,30.504,9.468,37.267,23.219c2.599-0.987,5.415-1.528,8.357-1.528c13.01,0,23.561,10.552,23.561,23.561
			c0,1.937-0.236,3.822-0.679,5.623c13.666,0.435,24.613,11.646,24.613,25.416c0,14.044-11.389,25.429-25.431,25.429
			C146.566,294.81,85.659,295.559,38.832,295.559z"/>
		
			<linearGradient id="SVGID_3_" gradientUnits="userSpaceOnUse" x1="759.5615" y1="-247.9414" x2="694.4929" y2="-296.9742" gradientTransform="matrix(1 0 0 -1 -610 -6)">
			<stop  offset="0" style="stop-color:#A1A1A0"/>
			<stop  offset="1" style="stop-color:#FFFFFF"/>
		</linearGradient>
		<path fill="url(#SVGID_3_)" d="M156.547,294.865c-27.935,0.161-73.014,0.636-110.859,0.688c-3.242-4.218-5.053-9.564-4.754-15.289
			c0.638-12.183,10.604-21.678,22.611-21.913c-0.027-0.59-0.026-1.182,0.005-1.784c0.516-9.86,8.934-17.442,18.794-16.928
			c2.549,0.132,4.943,0.794,7.089,1.876c5.543-8.949,15.666-14.685,26.918-14.098c15.618,0.818,27.805,13.524,28.244,28.888
			c10.2,3.711,17.237,13.751,16.641,25.146C160.975,286.467,159.269,291.062,156.547,294.865z"/>
		
			<linearGradient id="SVGID_4_" gradientUnits="userSpaceOnUse" x1="731.7383" y1="-265.2949" x2="751.7825" y2="-310.3149" gradientTransform="matrix(1 0 0 -1 -610 -6)">
			<stop  offset="0" style="stop-color:#A1A1A0"/>
			<stop  offset="1" style="stop-color:#FFFFFF"/>
		</linearGradient>
		<path fill="url(#SVGID_4_)" d="M189.096,287.827c-4.56,4.326-10.719,6.981-17.501,6.981c-17.563,0-52.798,0.373-88.435,0.591
			c2.866-5.775,7.879-10.332,14.046-12.577c0.441-15.364,12.625-28.07,28.245-28.887c11.251-0.588,21.375,5.147,26.918,14.095
			c2.146-1.077,4.539-1.739,7.089-1.872c9.858-0.517,18.278,7.066,18.792,16.926c0.032,0.599,0.032,1.194,0.005,1.783
			C182.172,284.946,185.869,286.008,189.096,287.827z"/>
	</g>
	<g>
		
			<linearGradient id="SVGID_5_" gradientUnits="userSpaceOnUse" x1="843.1338" y1="-280.354" x2="898.3914" y2="-266.5768" gradientTransform="matrix(1 0 0 -1 -610 -6)">
			<stop  offset="0" style="stop-color:#A1A1A0"/>
			<stop  offset="1" style="stop-color:#FFFFFF"/>
		</linearGradient>
		<path fill="url(#SVGID_5_)" d="M225.019,293.432c-5.826,0-10.554-4.726-10.554-10.555c0-4.911,3.36-9.041,7.908-10.217
			c-0.264-1.242-0.402-2.531-0.402-3.853c0-10.149,8.172-18.398,18.29-18.522c2.3-12.024,12.872-21.111,25.563-21.111
			c10.258,0,19.129,5.938,23.372,14.561c1.629-0.619,3.395-0.958,5.24-0.958c8.159,0,14.774,6.617,14.774,14.775
			c0,1.217-0.147,2.396-0.422,3.527c8.569,0.27,15.436,7.302,15.436,15.937c0,8.806-7.144,15.945-15.948,15.945
			C292.578,292.961,254.384,293.432,225.019,293.432z"/>
		
			<linearGradient id="SVGID_6_" gradientUnits="userSpaceOnUse" x1="904.458" y1="-265.8066" x2="863.6528" y2="-296.5557" gradientTransform="matrix(1 0 0 -1 -610 -6)">
			<stop  offset="0" style="stop-color:#A1A1A0"/>
			<stop  offset="1" style="stop-color:#FFFFFF"/>
		</linearGradient>
		<path fill="url(#SVGID_6_)" d="M298.838,292.999c-17.52,0.102-45.786,0.396-69.52,0.432c-2.033-2.646-3.167-5.999-2.981-9.589
			c0.399-7.643,6.649-13.594,14.18-13.742c-0.019-0.371-0.019-0.741,0.002-1.121c0.324-6.183,5.604-10.937,11.786-10.613
			c1.598,0.083,3.1,0.499,4.444,1.174c3.479-5.609,9.824-9.207,16.88-8.839c9.797,0.513,17.438,8.48,17.713,18.114
			c6.397,2.328,10.81,8.621,10.435,15.769C301.614,287.731,300.544,290.612,298.838,292.999z"/>
		
			<linearGradient id="SVGID_7_" gradientUnits="userSpaceOnUse" x1="887.0078" y1="-276.6895" x2="899.5781" y2="-304.9229" gradientTransform="matrix(1 0 0 -1 -610 -6)">
			<stop  offset="0" style="stop-color:#A1A1A0"/>
			<stop  offset="1" style="stop-color:#FFFFFF"/>
		</linearGradient>
		<path fill="url(#SVGID_7_)" d="M319.249,288.583c-2.86,2.715-6.723,4.38-10.977,4.38c-11.01,0-33.108,0.233-55.457,0.369
			c1.799-3.62,4.94-6.48,8.81-7.887c0.278-9.637,7.916-17.604,17.713-18.115c7.056-0.368,13.403,3.228,16.881,8.838
			c1.344-0.676,2.846-1.088,4.444-1.173c6.183-0.324,11.462,4.431,11.784,10.614c0.021,0.376,0.021,0.747,0.004,1.117
			C314.906,286.776,317.226,287.442,319.249,288.583z"/>
	</g>
</g>
</svg>
