<?xml version="1.0" encoding="UTF-8" standalone="no"?>
<svg width="283px" height="234px" viewBox="0 0 283 234" version="1.1" xmlns="http://www.w3.org/2000/svg" xmlns:xlink="http://www.w3.org/1999/xlink">
    <!-- Generator: Sketch 3.6.1 (26313) - http://www.bohemiancoding.com/sketch -->
    <title>mostlyclear</title>
    <desc>Created with Sketch.</desc>
    <defs>
        <linearGradient x1="45.2828665%" y1="25.2656944%" x2="58.8503082%" y2="100.378885%" id="linearGradient-1">
            <stop stop-color="#FEBF10" offset="0%"></stop>
            <stop stop-color="#F58020" offset="100%"></stop>
        </linearGradient>
        <linearGradient x1="45.5117965%" y1="25.1243174%" x2="59.0716278%" y2="100.224226%" id="linearGradient-2">
            <stop stop-color="#FEBF10" offset="0%"></stop>
            <stop stop-color="#F58020" offset="100%"></stop>
        </linearGradient>
        <linearGradient x1="2.5211189%" y1="82.0387974%" x2="120.147608%" y2="2.62880755%" id="linearGradient-3">
            <stop stop-color="#F6EB16" offset="0%"></stop>
            <stop stop-color="#F58020" offset="100%"></stop>
        </linearGradient>
        <linearGradient x1="17.0099272%" y1="70.3113163%" x2="67.35659%" y2="48.8701292%" id="linearGradient-4">
            <stop stop-color="#A1A1A0" offset="0%"></stop>
            <stop stop-color="#FFFFFF" offset="100%"></stop>
        </linearGradient>
        <linearGradient x1="90.2702188%" y1="21.3637473%" x2="36.212581%" y2="93.284125%" id="linearGradient-5">
            <stop stop-color="#A1A1A0" offset="0%"></stop>
            <stop stop-color="#FFFFFF" offset="100%"></stop>
        </linearGradient>
        <linearGradient x1="36.4176378%" y1="13.012537%" x2="55.3383119%" y2="121.480103%" id="linearGradient-6">
            <stop stop-color="#A1A1A0" offset="0%"></stop>
            <stop stop-color="#FFFFFF" offset="100%"></stop>
        </linearGradient>
        <linearGradient x1="17.0085834%" y1="70.312257%" x2="67.3530836%" y2="48.8717711%" id="linearGradient-7">
            <stop stop-color="#A1A1A0" offset="0%"></stop>
            <stop stop-color="#FFFFFF" offset="100%"></stop>
        </linearGradient>
        <linearGradient x1="90.274894%" y1="21.3634107%" x2="36.2145997%" y2="93.2811729%" id="linearGradient-8">
            <stop stop-color="#A1A1A0" offset="0%"></stop>
            <stop stop-color="#FFFFFF" offset="100%"></stop>
        </linearGradient>
        <linearGradient x1="36.4160638%" y1="13.0058939%" x2="55.3378897%" y2="121.481035%" id="linearGradient-9">
            <stop stop-color="#A1A1A0" offset="0%"></stop>
            <stop stop-color="#FFFFFF" offset="100%"></stop>
        </linearGradient>
    </defs>
    <g id="Page-1" stroke="none" stroke-width="1" fill="none" fill-rule="evenodd">
        <g id="mostlyclear">
            <g id="Group">
                <g transform="translate(50.000000, 0.000000)" id="Shape">
                    <path d="M17.734,142.688 L55.663,140.979 L27.327,166.255 L63.643,155.154 L42.486,186.691 L74.903,166.916 L62.249,202.71 L88.722,175.503 L85.37,213.32 L104.255,180.387 L110.415,217.85 L120.507,181.251 L135.794,216.007 L136.464,178.051 L159.914,207.906 L151.119,170.975 L181.262,194.064 L163.562,160.48 L198.489,175.354 L172.998,147.225 L210.537,152.941 L178.852,132.03 L216.627,128.228 L180.732,115.867 L216.377,102.799 L178.54,99.731 L209.809,78.21 L172.395,84.667 L197.339,56.035 L162.708,71.587 L179.739,37.656 L150.068,61.335 L158.133,24.231 L135.275,54.55 L133.854,16.607 L119.246,51.656 L108.449,15.256 L103.02,52.83 L83.503,20.262 L87.598,58.013 L60.585,31.324 L73.933,66.861 L41.137,47.721 L62.905,78.828 L26.381,68.458 L55.201,93.174 L17.248,92.197 L51.305,108.969 L14.304,117.473 L51.466,125.246 L17.734,142.688 Z" fill="#FEBF10" opacity="0.502"></path>
                    <path d="M8.052,160.542 L50.989,153.104 L22.395,185.977 L62.12,168.1 L42.595,207.055 L76.635,179.855 L67.414,222.439 L93.618,187.634 L95.277,231.169 L111.999,190.936 L124.441,232.688 L130.626,189.577 L153.062,226.914 L148.338,183.615 L179.346,214.213 L163.996,173.445 L201.645,195.367 L176.636,159.691 L218.566,171.574 L185.466,143.23 L229.025,144.307 L189.932,125.099 L232.378,115.306 L189.721,106.418 L228.42,86.378 L184.898,88.376 L217.389,59.349 L175.723,72.105 L199.975,35.905 L162.797,58.624 L177.279,17.529 L146.928,48.772 L150.736,5.374 L129.104,43.195 L121.991,0.207 L110.44,42.218 L92.877,2.344 L92.136,45.904 L65.205,11.656 L75.323,54.042 L40.716,27.562 L61.056,66.089 L20.953,49.059 L50.234,81.313 L7.155,74.791 L43.541,98.756 L0.192,103.145 L41.397,117.309 L0.499,132.333 L43.927,135.807 L8.052,160.542 Z" fill="url(#linearGradient-1)"></path>
                    <path d="M37.68,120.759 C33.934,77.872 65.696,40.005 108.584,36.257 C151.479,32.511 189.341,64.271 193.086,107.168 C196.834,150.059 165.07,187.92 122.18,191.665 C79.288,195.409 41.428,163.65 37.68,120.759 L37.68,120.759 Z" fill="url(#linearGradient-2)"></path>
                    <path d="M37.668,120.771 C33.914,77.876 65.689,40.018 108.574,36.264 C151.468,32.514 189.325,64.284 193.074,107.171 C199.885,156.975 45.367,172.559 37.668,120.771 L37.668,120.771 Z" fill="#F6EB16" opacity="0.1176"></path>
                    <path d="M50.302,103.158 C39.74,86.356 49.708,62.313 72.56,49.492 C95.4,36.665 122.512,39.893 133.076,56.691 C143.637,73.498 133.657,97.542 110.809,110.362 C87.966,123.184 60.859,119.953 50.302,103.158 L50.302,103.158 Z" fill="#F6EB16" opacity="0.2549"></path>
                    <path d="M114.214,190.275 C116.785,190.316 119.381,190.218 122.016,189.996 C163.971,186.326 195.051,149.277 191.378,107.324 C187.716,65.359 150.674,34.289 108.719,37.951 C66.757,41.623 35.675,78.655 39.349,120.614 C42.783,159.953 75.552,189.725 114.214,190.275 L114.214,190.275 Z M114.165,193.66 C73.79,193.087 39.566,162.006 35.974,120.912 C32.146,77.089 64.6,38.407 108.425,34.587 C152.244,30.749 190.921,63.207 194.756,107.026 C198.59,150.85 166.139,189.52 122.301,193.359 C119.568,193.607 116.847,193.7 114.165,193.66 L114.165,193.66 Z" fill="url(#linearGradient-3)"></path>
                </g>
                <g transform="translate(0.000000, 137.000000)" id="Shape">
                    <path d="M15.829,96.507 C7.089,96.507 0.002,89.421 0.002,80.68 C0.002,73.313 5.041,67.118 11.861,65.358 C11.466,63.495 11.257,61.559 11.257,59.581 C11.257,44.356 23.51,31.989 38.688,31.8 C42.139,13.773 57.993,0.142 77.027,0.142 C92.408,0.142 105.714,9.046 112.074,21.979 C114.518,21.05 117.167,20.541 119.934,20.541 C132.169,20.541 142.092,30.464 142.092,42.698 C142.092,44.52 141.87,46.293 141.453,47.987 C154.305,48.395 164.6,58.94 164.6,71.889 C164.6,85.096 153.89,95.803 140.684,95.803 C117.147,95.803 59.867,96.507 15.829,96.507 L15.829,96.507 Z" fill="url(#linearGradient-4)"></path>
                    <path d="M126.534,95.855 C100.263,96.007 57.869,96.453 22.278,96.502 C19.229,92.535 17.526,87.507 17.807,82.123 C18.407,70.666 27.779,61.737 39.072,61.515 C39.046,60.961 39.047,60.404 39.076,59.837 C39.561,50.564 47.478,43.433 56.751,43.918 C59.148,44.042 61.4,44.664 63.418,45.681 C68.631,37.265 78.151,31.872 88.733,32.424 C103.421,33.193 114.882,45.142 115.295,59.591 C124.887,63.081 131.506,72.523 130.945,83.239 C130.698,87.957 129.094,92.279 126.534,95.855 L126.534,95.855 Z" fill="url(#linearGradient-5)"></path>
                    <path d="M157.144,89.236 C152.856,93.304 147.063,95.802 140.685,95.802 C124.168,95.802 91.031,96.152 57.517,96.357 C60.213,90.926 64.927,86.64 70.727,84.529 C71.142,70.08 82.6,58.131 97.29,57.363 C107.871,56.81 117.392,62.204 122.605,70.618 C124.623,69.605 126.874,68.982 129.272,68.857 C138.543,68.372 146.461,75.503 146.944,84.775 C146.974,85.339 146.974,85.898 146.949,86.452 C150.633,86.527 154.109,87.525 157.144,89.236 L157.144,89.236 Z" fill="url(#linearGradient-6)"></path>
                </g>
                <g transform="translate(140.000000, 160.000000)" id="Shape">
                    <path d="M10.7734884,73.4019344 C4.82728682,73.4019344 0.00217054264,68.0108525 0.00217054264,61.3605574 C0.00217054264,55.7571803 3.43162791,51.0454426 8.0744186,49.7049508 C7.80527132,48.2880328 7.66310078,46.8165246 7.66310078,45.3098361 C7.66310078,33.7306557 16.0034109,24.3193115 26.3308527,24.177377 C28.6782946,10.4594754 39.468062,0.0921967213 52.4218605,0.0921967213 C62.8903876,0.0921967213 71.9448062,6.86622951 76.2750388,16.7045902 C77.9376744,15.9985574 79.7392248,15.6103607 81.6243411,15.6103607 C89.9516279,15.6103607 96.704186,23.1607869 96.704186,32.4678033 C96.704186,33.8556066 96.5533333,35.2021639 96.2722481,36.4917049 C105.01845,36.7998361 112.026047,44.8221639 112.026047,54.6726557 C112.026047,64.718459 104.736279,72.8645246 95.7491473,72.8645246 C79.7272868,72.8645246 40.7443411,73.4019344 10.7734884,73.4019344 L10.7734884,73.4019344 Z" fill="url(#linearGradient-7)"></path>
                    <path d="M118.674419,60.7770492 C100.793488,60.8935082 71.9437209,61.229541 47.7204651,61.2695738 C45.6454264,58.2513443 44.4874419,54.4251803 44.6773643,50.3297049 C45.0854264,41.6110492 51.4635659,34.8212459 59.1494574,34.6514098 C59.1299225,34.2292459 59.1299225,33.8058689 59.1516279,33.3727869 C59.4826357,26.3185246 64.8710078,20.8946885 71.1807752,21.2646885 C72.811938,21.3593115 74.3443411,21.8336393 75.7172093,22.6039672 C79.2671318,16.2035738 85.744031,12.0996066 92.9458915,12.5205574 C102.944496,13.1052787 110.742171,22.1951475 111.023256,33.1859672 C117.553333,35.8414754 122.056124,43.0219016 121.673023,51.176459 C121.508062,54.7672787 120.415194,58.0536066 118.674419,60.7770492 L118.674419,60.7770492 Z" fill="url(#linearGradient-8)"></path>
                    <path d="M139.506202,55.7389836 C136.587907,58.8360656 132.645116,60.7358033 128.304031,60.7358033 C117.066047,60.7358033 94.511938,61.0014754 71.7027907,61.1567541 C73.5379845,57.0273115 76.7449612,53.7628197 80.6942636,52.159082 C80.9775194,41.1658361 88.7730233,32.0759672 98.7727132,31.492459 C105.973488,31.0715082 112.451473,35.1742623 116.001395,41.5758689 C117.373178,40.8043279 118.905581,40.3336393 120.537829,40.2365902 C126.847597,39.8665902 132.235969,45.2916393 132.564806,52.3459016 C132.586512,52.7753443 132.586512,53.1987213 132.569147,53.6208852 C135.073953,53.6779016 137.442016,54.4373115 139.506202,55.7389836 L139.506202,55.7389836 Z" fill="url(#linearGradient-9)"></path>
                </g>
            </g>
        </g>
    </g>
</svg>