<?xml version="1.0" encoding="utf-8"?>
<!-- Generator: Adobe Illustrator 16.0.0, SVG Export Plug-In . SVG Version: 6.00 Build 0)  -->
<!DOCTYPE svg PUBLIC "-//W3C//DTD SVG 1.1//EN" "http://www.w3.org/Graphics/SVG/1.1/DTD/svg11.dtd">
<svg version="1.1" id="Layer_1" xmlns="http://www.w3.org/2000/svg" xmlns:xlink="http://www.w3.org/1999/xlink" x="0px" y="0px"
	 width="400px" height="400px" viewBox="0 0 400 400" enable-background="new 0 0 400 400" xml:space="preserve">
<g>
	<g>
		<polygon opacity="0.502" fill="#FEBF10" enable-background="new    " points="205.522,189.078 228.115,188.06 211.236,203.115 
			232.868,196.504 220.266,215.289 239.575,203.51 232.038,224.831 247.808,208.625 245.811,231.151 257.06,211.533 
			260.729,233.849 266.74,212.049 275.847,232.751 276.245,210.143 290.214,227.926 284.975,205.928 302.93,219.682 
			292.387,199.676 313.191,208.535 298.008,191.78 320.368,195.186 301.494,182.729 323.996,180.465 302.614,173.102 
			323.847,165.317 301.309,163.49 319.935,150.671 297.647,154.517 312.507,137.462 291.878,146.726 302.022,126.514 
			284.349,140.619 289.152,118.517 275.537,136.577 274.69,113.976 265.989,134.854 259.558,113.171 256.323,135.553 
			244.698,116.153 247.138,138.64 231.047,122.743 238.998,143.91 219.463,132.51 232.429,151.039 210.673,144.862 227.84,159.584 
			205.232,159.002 225.52,168.993 203.479,174.059 225.615,178.688 		"/>
		
			<linearGradient id="SVGID_1_" gradientUnits="userSpaceOnUse" x1="-27.7544" y1="270.6816" x2="-23.9824" y2="270.6816" gradientTransform="matrix(4.975 27.578 -27.544 4.981 7860.5171 -445.29)">
			<stop  offset="0" style="stop-color:#FEBF10"/>
			<stop  offset="1" style="stop-color:#F58020"/>
		</linearGradient>
		<polygon fill="url(#SVGID_1_)" points="199.755,199.713 225.331,195.282 208.299,214.863 231.961,204.215 220.331,227.419 
			240.607,211.217 235.114,236.583 250.724,215.851 251.712,241.783 261.673,217.817 269.084,242.688 272.768,217.008 
			286.133,239.248 283.318,213.457 301.788,231.683 292.646,207.398 315.071,220.457 300.174,199.206 344.15,207.285 
			305.434,189.401 350.381,191.042 308.094,178.601 352.378,173.768 307.969,167.473 350.021,156.536 305.096,156.726 
			324.449,139.436 299.631,147.034 314.076,125.471 291.931,139.004 300.558,114.525 282.479,133.135 284.747,107.285 
			271.861,129.813 267.624,104.207 260.743,129.231 250.282,105.48 249.841,131.427 233.799,111.027 239.826,136.274 
			219.212,120.501 231.327,143.451 207.439,133.307 224.881,152.519 199.221,148.634 220.895,162.909 195.073,165.523 
			219.617,173.96 195.256,182.91 221.124,184.979 		"/>
		
			<linearGradient id="SVGID_2_" gradientUnits="userSpaceOnUse" x1="-20.1455" y1="266.8906" x2="-16.3742" y2="266.8906" gradientTransform="matrix(3.341 18.504 -18.504 3.341 5265.3843 -370.073)">
			<stop  offset="0" style="stop-color:#FEBF10"/>
			<stop  offset="1" style="stop-color:#F58020"/>
		</linearGradient>
		<path fill="url(#SVGID_2_)" d="M217.403,176.016c-2.231-25.546,16.688-48.103,42.235-50.335
			c25.551-2.231,48.104,16.687,50.334,42.239c2.233,25.548-16.688,48.102-42.236,50.332S219.636,201.564,217.403,176.016z"/>
		<path opacity="0.1176" fill="#F6EB16" enable-background="new    " d="M217.396,176.023c-2.236-25.551,16.69-48.102,42.236-50.338
			c25.55-2.234,48.1,16.69,50.333,42.237C314.022,197.588,221.982,206.871,217.396,176.023z"/>
		<path opacity="0.2549" fill="#F6EB16" enable-background="new    " d="M224.922,165.531c-6.291-10.008-0.354-24.33,13.258-31.967
			c13.605-7.641,29.755-5.718,36.048,4.288c6.29,10.011,0.346,24.333-13.265,31.97C247.356,177.46,231.21,175.536,224.922,165.531z"
			/>
		
			<linearGradient id="SVGID_3_" gradientUnits="userSpaceOnUse" x1="-42.5239" y1="293.377" x2="-38.7512" y2="293.377" gradientTransform="matrix(29.607 -19.987 19.987 29.607 -4386.1431 -9333.5283)">
			<stop  offset="0" style="stop-color:#F6EB16"/>
			<stop  offset="1" style="stop-color:#F58020"/>
		</linearGradient>
		<path fill="url(#SVGID_3_)" d="M262.992,217.424c1.531,0.025,3.077-0.033,4.646-0.166c24.991-2.186,43.505-24.255,41.317-49.245
			c-2.182-24.998-24.246-43.505-49.237-41.323c-24.995,2.187-43.51,24.246-41.321,49.239
			C220.443,199.362,239.962,217.096,262.992,217.424z M262.963,219.44c-24.05-0.342-44.437-18.855-46.576-43.333
			c-2.28-26.104,17.052-49.146,43.156-51.421c26.103-2.286,49.141,17.048,51.425,43.149c2.284,26.104-17.046,49.138-43.159,51.426
			C266.182,219.408,264.561,219.465,262.963,219.44z"/>
	</g>
	<g>
		
			<linearGradient id="SVGID_4_" gradientUnits="userSpaceOnUse" x1="429.4512" y1="376.5176" x2="578.029" y2="339.4728" gradientTransform="matrix(1 0 0 1 -358 -155)">
			<stop  offset="0" style="stop-color:#A1A1A0"/>
			<stop  offset="1" style="stop-color:#FFFFFF"/>
		</linearGradient>
		<path fill="url(#SVGID_4_)" d="M49.63,272.811c-15.67,0-28.376-12.705-28.376-28.379c0-13.207,9.034-24.314,21.262-27.471
			c-0.708-3.34-1.083-6.811-1.083-10.359c0-27.295,21.968-49.467,49.181-49.809c6.187-32.324,34.612-56.76,68.737-56.76
			c27.578,0,51.433,15.965,62.836,39.15c4.382-1.663,9.132-2.577,14.093-2.577c21.938,0,39.729,17.79,39.729,39.728
			c0,3.264-0.398,6.443-1.146,9.482c23.042,0.73,41.502,19.641,41.502,42.854c0,23.68-19.201,42.881-42.88,42.881
			C231.285,271.547,128.585,272.811,49.63,272.811z"/>
		
			<linearGradient id="SVGID_5_" gradientUnits="userSpaceOnUse" x1="594.3359" y1="337.4062" x2="484.6218" y2="420.0819" gradientTransform="matrix(1 0 0 1 -358 -155)">
			<stop  offset="0" style="stop-color:#A1A1A0"/>
			<stop  offset="1" style="stop-color:#FFFFFF"/>
		</linearGradient>
		<path fill="url(#SVGID_5_)" d="M248.114,271.645c-47.102,0.271-123.109,1.068-186.923,1.16
			c-5.466-7.111-8.521-16.127-8.016-25.779c1.074-20.541,17.878-36.547,38.126-36.949c-0.046-0.994-0.045-1.994,0.007-3.006
			c0.87-16.629,15.063-29.412,31.688-28.541c4.297,0.221,8.336,1.338,11.952,3.158c9.346-15.088,26.416-24.757,45.388-23.766
			c26.335,1.377,46.884,22.801,47.623,48.705c17.198,6.26,29.064,23.186,28.06,42.402C255.58,257.48,252.704,265.23,248.114,271.645
			z"/>
		
			<linearGradient id="SVGID_6_" gradientUnits="userSpaceOnUse" x1="547.4209" y1="366.665" x2="581.2186" y2="442.5758" gradientTransform="matrix(1 0 0 1 -358 -155)">
			<stop  offset="0" style="stop-color:#A1A1A0"/>
			<stop  offset="1" style="stop-color:#FFFFFF"/>
		</linearGradient>
		<path fill="url(#SVGID_6_)" d="M302.994,259.773c-7.686,7.299-18.074,11.777-29.51,11.777c-29.613,0-89.023,0.621-149.112,0.992
			c4.833-9.734,13.284-17.424,23.683-21.207c0.744-25.908,21.287-47.33,47.625-48.707c18.971-0.992,36.039,8.678,45.388,23.764
			c3.618-1.816,7.654-2.934,11.954-3.156c16.623-0.869,30.819,11.914,31.686,28.539c0.053,1.012,0.053,2.018,0.007,3.008
			C291.319,254.918,297.553,256.707,302.994,259.773z"/>
	</g>
</g>
<g>
	
		<linearGradient id="SVGID_7_" gradientUnits="userSpaceOnUse" x1="597.999" y1="392.9375" x2="684.4892" y2="371.373" gradientTransform="matrix(1 0 0 1 -358 -155)">
		<stop  offset="0" style="stop-color:#A1A1A0"/>
		<stop  offset="1" style="stop-color:#FFFFFF"/>
	</linearGradient>
	<path fill="url(#SVGID_7_)" d="M227.297,267.797c-9.121,0-16.519-7.396-16.519-16.52c0-7.689,5.259-14.154,12.376-15.992
		c-0.411-1.945-0.63-3.965-0.63-6.029c0-15.891,12.789-28.797,28.63-28.996c3.602-18.816,20.149-33.041,40.013-33.041
		c16.054,0,29.94,9.295,36.579,22.791c2.551-0.969,5.316-1.5,8.203-1.5c12.77,0,23.127,10.355,23.127,23.125
		c0,1.9-0.231,3.752-0.666,5.52c13.413,0.426,24.158,11.434,24.158,24.947c0,13.785-11.178,24.961-24.962,24.961
		C333.043,267.061,273.258,267.797,227.297,267.797z"/>
	
		<linearGradient id="SVGID_8_" gradientUnits="userSpaceOnUse" x1="693.9834" y1="370.1699" x2="630.1161" y2="418.2974" gradientTransform="matrix(1 0 0 1 -358 -155)">
		<stop  offset="0" style="stop-color:#A1A1A0"/>
		<stop  offset="1" style="stop-color:#FFFFFF"/>
	</linearGradient>
	<path fill="url(#SVGID_8_)" d="M342.839,267.117c-27.419,0.158-71.665,0.623-108.812,0.676c-3.181-4.141-4.959-9.389-4.665-15.008
		c0.625-11.957,10.407-21.273,22.194-21.508c-0.027-0.578-0.027-1.162,0.004-1.75c0.505-9.68,8.769-17.121,18.445-16.615
		c2.502,0.131,4.854,0.779,6.958,1.838c5.44-8.781,15.377-14.41,26.422-13.832c15.329,0.801,27.292,13.271,27.721,28.352
		c10.013,3.645,16.92,13.496,16.334,24.684C347.186,258.871,345.511,263.383,342.839,267.117z"/>
	
		<linearGradient id="SVGID_9_" gradientUnits="userSpaceOnUse" x1="666.6719" y1="387.2012" x2="686.3459" y2="431.3898" gradientTransform="matrix(1 0 0 1 -358 -155)">
		<stop  offset="0" style="stop-color:#A1A1A0"/>
		<stop  offset="1" style="stop-color:#FFFFFF"/>
	</linearGradient>
	<path fill="url(#SVGID_9_)" d="M374.786,260.207c-4.475,4.248-10.522,6.855-17.18,6.855c-17.238,0-51.821,0.363-86.801,0.578
		c2.812-5.666,7.732-10.143,13.786-12.346c0.434-15.08,12.392-27.551,27.724-28.354c11.044-0.576,20.979,5.053,26.422,13.834
		c2.106-1.057,4.455-1.707,6.958-1.838c9.677-0.506,17.941,6.936,18.445,16.615c0.031,0.588,0.031,1.174,0.004,1.75
		C367.99,257.381,371.618,258.422,374.786,260.207z"/>
</g>
</svg>
