<?xml version="1.0" encoding="utf-8"?>
<!-- Generator: Adobe Illustrator 16.0.0, SVG Export Plug-In . SVG Version: 6.00 Build 0)  -->
<!DOCTYPE svg PUBLIC "-//W3C//DTD SVG 1.1//EN" "http://www.w3.org/Graphics/SVG/1.1/DTD/svg11.dtd">
<svg version="1.1" id="Layer_1" xmlns="http://www.w3.org/2000/svg" xmlns:xlink="http://www.w3.org/1999/xlink" x="0px" y="0px"
	 width="400px" height="400px" viewBox="0 0 400 400" enable-background="new 0 0 400 400" xml:space="preserve">
<g>
	<g>
		
			<linearGradient id="SVGID_1_" gradientUnits="userSpaceOnUse" x1="681.4502" y1="-227.5186" x2="830.028" y2="-190.4738" gradientTransform="matrix(1 0 0 -1 -610 -6)">
			<stop  offset="0" style="stop-color:#A1A1A0"/>
			<stop  offset="1" style="stop-color:#FFFFFF"/>
		</linearGradient>
		<path fill="url(#SVGID_1_)" d="M49.63,272.811c-15.67,0-28.376-12.705-28.376-28.379c0-13.207,9.034-24.313,21.262-27.471
			c-0.708-3.34-1.083-6.811-1.083-10.359c0-27.294,21.968-49.467,49.181-49.809c6.187-32.324,34.612-56.76,68.737-56.76
			c27.578,0,51.433,15.965,62.836,39.15c4.381-1.663,9.131-2.577,14.092-2.577c21.938,0,39.729,17.79,39.729,39.728
			c0,3.264-0.397,6.443-1.146,9.482c23.041,0.73,41.502,19.641,41.502,42.854c0,23.68-19.201,42.881-42.881,42.881
			C231.285,271.547,128.585,272.811,49.63,272.811z"/>
		
			<linearGradient id="SVGID_2_" gradientUnits="userSpaceOnUse" x1="846.3359" y1="-188.4048" x2="736.6213" y2="-271.0809" gradientTransform="matrix(1 0 0 -1 -610 -6)">
			<stop  offset="0" style="stop-color:#A1A1A0"/>
			<stop  offset="1" style="stop-color:#FFFFFF"/>
		</linearGradient>
		<path fill="url(#SVGID_2_)" d="M248.113,271.645c-47.102,0.271-123.108,1.068-186.922,1.16
			c-5.466-7.111-8.521-16.127-8.016-25.779c1.074-20.541,17.878-36.547,38.126-36.948c-0.046-0.994-0.045-1.994,0.007-3.007
			c0.87-16.628,15.063-29.411,31.688-28.541c4.297,0.221,8.336,1.338,11.952,3.158c9.346-15.088,26.416-24.757,45.388-23.766
			c26.335,1.377,46.885,22.801,47.623,48.705c17.198,6.26,29.064,23.186,28.061,42.402
			C255.58,257.48,252.704,265.23,248.113,271.645z"/>
		
			<linearGradient id="SVGID_3_" gradientUnits="userSpaceOnUse" x1="799.4209" y1="-217.6641" x2="833.2189" y2="-293.5754" gradientTransform="matrix(1 0 0 -1 -610 -6)">
			<stop  offset="0" style="stop-color:#A1A1A0"/>
			<stop  offset="1" style="stop-color:#FFFFFF"/>
		</linearGradient>
		<path fill="url(#SVGID_3_)" d="M302.994,259.773c-7.686,7.299-18.074,11.776-29.51,11.776c-29.613,0-89.023,0.621-149.112,0.992
			c4.833-9.733,13.284-17.424,23.683-21.207c0.744-25.907,21.287-47.33,47.625-48.707c18.97-0.991,36.039,8.679,45.388,23.765
			c3.617-1.816,7.654-2.935,11.953-3.156c16.623-0.869,30.819,11.914,31.687,28.539c0.053,1.012,0.053,2.018,0.007,3.008
			C291.318,254.918,297.553,256.707,302.994,259.773z"/>
	</g>
</g>
<g>
	
		<linearGradient id="SVGID_4_" gradientUnits="userSpaceOnUse" x1="849.998" y1="-243.9385" x2="936.4887" y2="-222.3738" gradientTransform="matrix(1 0 0 -1 -610 -6)">
		<stop  offset="0" style="stop-color:#A1A1A0"/>
		<stop  offset="1" style="stop-color:#FFFFFF"/>
	</linearGradient>
	<path fill="url(#SVGID_4_)" d="M227.297,267.797c-9.121,0-16.52-7.396-16.52-16.52c0-7.689,5.26-14.154,12.377-15.992
		c-0.411-1.945-0.631-3.965-0.631-6.029c0-15.891,12.789-28.797,28.631-28.996c3.602-18.816,20.148-33.041,40.013-33.041
		c16.054,0,29.94,9.295,36.579,22.791c2.551-0.969,5.316-1.5,8.203-1.5c12.77,0,23.127,10.355,23.127,23.125
		c0,1.9-0.23,3.752-0.666,5.52c13.413,0.427,24.158,11.435,24.158,24.947c0,13.785-11.178,24.961-24.963,24.961
		C333.043,267.061,273.258,267.797,227.297,267.797z"/>
	
		<linearGradient id="SVGID_5_" gradientUnits="userSpaceOnUse" x1="945.9814" y1="-221.1709" x2="882.1141" y2="-269.2984" gradientTransform="matrix(1 0 0 -1 -610 -6)">
		<stop  offset="0" style="stop-color:#A1A1A0"/>
		<stop  offset="1" style="stop-color:#FFFFFF"/>
	</linearGradient>
	<path fill="url(#SVGID_5_)" d="M342.839,267.117c-27.419,0.158-71.665,0.623-108.812,0.676c-3.182-4.141-4.959-9.389-4.666-15.008
		c0.625-11.957,10.408-21.273,22.195-21.508c-0.027-0.578-0.027-1.162,0.004-1.75c0.504-9.68,8.769-17.121,18.444-16.615
		c2.502,0.131,4.854,0.779,6.958,1.838c5.439-8.781,15.377-14.41,26.422-13.832c15.329,0.801,27.292,13.271,27.721,28.352
		c10.014,3.646,16.92,13.496,16.334,24.685C347.186,258.871,345.511,263.383,342.839,267.117z"/>
	
		<linearGradient id="SVGID_6_" gradientUnits="userSpaceOnUse" x1="918.6709" y1="-238.2007" x2="938.3452" y2="-282.3898" gradientTransform="matrix(1 0 0 -1 -610 -6)">
		<stop  offset="0" style="stop-color:#A1A1A0"/>
		<stop  offset="1" style="stop-color:#FFFFFF"/>
	</linearGradient>
	<path fill="url(#SVGID_6_)" d="M374.786,260.207c-4.476,4.248-10.522,6.855-17.181,6.855c-17.237,0-51.82,0.362-86.801,0.578
		c2.812-5.666,7.732-10.144,13.786-12.347c0.435-15.08,12.392-27.551,27.724-28.354c11.045-0.575,20.979,5.054,26.422,13.834
		c2.106-1.057,4.455-1.707,6.959-1.838c9.677-0.506,17.941,6.937,18.445,16.615c0.03,0.588,0.03,1.174,0.004,1.75
		C367.99,257.381,371.618,258.422,374.786,260.207z"/>
</g>
</svg>
