<?xml version="1.0" encoding="utf-8"?>
<!-- Generator: Adobe Illustrator 16.0.0, SVG Export Plug-In . SVG Version: 6.00 Build 0)  -->
<!DOCTYPE svg PUBLIC "-//W3C//DTD SVG 1.1//EN" "http://www.w3.org/Graphics/SVG/1.1/DTD/svg11.dtd">
<svg version="1.1" id="Layer_1" xmlns="http://www.w3.org/2000/svg" xmlns:xlink="http://www.w3.org/1999/xlink" x="0px" y="0px"
	 width="400px" height="400px" viewBox="0 0 400 400" enable-background="new 0 0 400 400" xml:space="preserve">
<g>
	<g>
		<polygon opacity="0.502" fill="#FEBF10" enable-background="new    " points="98.734,209.688 136.663,207.979 108.327,233.255 
			144.643,222.154 123.486,253.691 155.903,233.916 143.249,269.71 169.722,242.503 166.37,280.32 185.255,247.387 191.415,284.85 
			201.507,248.251 216.794,283.007 217.464,245.051 240.914,274.906 232.119,237.975 262.262,261.064 244.562,227.48 
			279.489,242.354 253.998,214.225 291.537,219.941 259.852,199.03 297.627,195.228 261.732,182.867 297.377,169.799 
			259.54,166.731 290.809,145.21 253.395,151.667 278.339,123.035 243.708,138.587 260.739,104.656 231.068,128.335 239.133,91.231 
			216.275,121.55 214.854,83.607 200.246,118.656 189.449,82.256 184.02,119.83 164.503,87.262 168.598,125.013 141.585,98.324 
			154.933,133.861 122.137,114.721 143.905,145.828 107.381,135.458 136.201,160.174 98.248,159.197 132.305,175.969 
			95.304,184.473 132.466,192.246 		"/>
		
			<linearGradient id="SVGID_1_" gradientUnits="userSpaceOnUse" x1="32.7729" y1="-12.73" x2="39.1049" y2="-12.73" gradientTransform="matrix(4.975 27.578 27.544 -4.981 373.98 -841.2894)">
			<stop  offset="0" style="stop-color:#FEBF10"/>
			<stop  offset="1" style="stop-color:#F58020"/>
		</linearGradient>
		<polygon fill="url(#SVGID_1_)" points="89.052,227.542 131.989,220.104 103.395,252.977 143.12,235.1 123.595,274.055 
			157.635,246.855 148.414,289.439 174.618,254.634 176.277,298.169 192.999,257.936 205.441,299.688 211.626,256.577 
			234.062,293.914 229.338,250.615 260.346,281.213 244.996,240.445 282.645,262.367 257.636,226.691 299.566,238.574 
			266.466,210.23 310.025,211.307 270.932,192.099 313.378,182.306 270.721,173.418 309.42,153.378 265.898,155.376 
			298.389,126.349 256.723,139.105 280.975,102.905 243.797,125.624 258.279,84.529 227.928,115.772 231.736,72.374 
			210.104,110.195 202.991,67.207 191.44,109.218 173.877,69.344 173.136,112.904 146.205,78.656 156.323,121.042 121.716,94.562 
			142.056,133.089 101.953,116.059 131.234,148.313 88.155,141.791 124.541,165.756 81.192,170.145 122.397,184.309 81.499,199.333 
			124.927,202.807 		"/>
		
			<linearGradient id="SVGID_2_" gradientUnits="userSpaceOnUse" x1="42.7104" y1="-6.7646" x2="49.0425" y2="-6.7646" gradientTransform="matrix(3.341 18.504 18.504 -3.341 171.856 -670.7617)">
			<stop  offset="0" style="stop-color:#FEBF10"/>
			<stop  offset="1" style="stop-color:#F58020"/>
		</linearGradient>
		<path fill="url(#SVGID_2_)" d="M118.68,187.759c-3.746-42.887,28.016-80.754,70.904-84.502
			c42.895-3.746,80.757,28.014,84.502,70.911c3.748,42.891-28.016,80.752-70.906,84.497
			C160.288,262.409,122.428,230.65,118.68,187.759z"/>
		<path opacity="0.1176" fill="#F6EB16" enable-background="new    " d="M118.668,187.771
			c-3.754-42.895,28.021-80.753,70.906-84.507c42.894-3.75,80.751,28.02,84.5,70.907
			C280.885,223.975,126.367,239.559,118.668,187.771z"/>
		<path opacity="0.2549" fill="#F6EB16" enable-background="new    " d="M131.302,170.158
			c-10.562-16.802-0.594-40.845,22.258-53.666c22.84-12.827,49.952-9.599,60.516,7.199c10.561,16.807,0.581,40.851-22.267,53.671
			C168.966,190.184,141.859,186.953,131.302,170.158z"/>
		
			<linearGradient id="SVGID_3_" gradientUnits="userSpaceOnUse" x1="14.1245" y1="-43.542" x2="20.4572" y2="-43.542" gradientTransform="matrix(29.607 -19.987 -19.987 -29.607 -1167.7446 -774.7842)">
			<stop  offset="0" style="stop-color:#F6EB16"/>
			<stop  offset="1" style="stop-color:#F58020"/>
		</linearGradient>
		<path fill="url(#SVGID_3_)" d="M195.214,257.275c2.571,0.041,5.167-0.058,7.802-0.279c41.955-3.67,73.035-40.719,69.362-82.672
			c-3.662-41.965-40.704-73.035-82.659-69.373c-41.962,3.672-73.044,40.704-69.37,82.663
			C123.783,226.953,156.552,256.725,195.214,257.275z M195.165,260.66c-40.375-0.573-74.599-31.654-78.191-72.748
			c-3.828-43.823,28.626-82.505,72.451-86.325c43.819-3.838,82.496,28.62,86.331,72.439c3.834,43.824-28.617,82.494-72.455,86.333
			C200.568,260.607,197.847,260.7,195.165,260.66z"/>
	</g>
	<g>
		
			<linearGradient id="SVGID_4_" gradientUnits="userSpaceOnUse" x1="808.4473" y1="-272.0352" x2="873.108" y2="-255.9135" gradientTransform="matrix(1 0 0 -1 -610 -6)">
			<stop  offset="0" style="stop-color:#A1A1A0"/>
			<stop  offset="1" style="stop-color:#FFFFFF"/>
		</linearGradient>
		<path fill="url(#SVGID_4_)" d="M189.33,290.507c-6.805,0-12.328-5.854-12.328-13.075c0-6.084,3.926-11.2,9.238-12.657
			c-0.308-1.538-0.47-3.136-0.47-4.772c0-12.573,9.547-22.792,21.367-22.947c2.687-14.896,15.036-26.152,29.863-26.152
			c11.983,0,22.347,7.355,27.303,18.038c1.903-0.767,3.965-1.188,6.122-1.188c9.531,0,17.26,8.198,17.26,18.305
			c0,1.507-0.172,2.969-0.493,4.369c10.012,0.335,18.032,9.047,18.032,19.743c0,10.909-8.345,19.754-18.631,19.754
			C268.254,289.924,223.635,290.507,189.33,290.507z"/>
		
			<linearGradient id="SVGID_5_" gradientUnits="userSpaceOnUse" x1="881.1689" y1="-255.5068" x2="832.5914" y2="-292.1127" gradientTransform="matrix(1 0 0 -1 -610 -6)">
			<stop  offset="0" style="stop-color:#A1A1A0"/>
			<stop  offset="1" style="stop-color:#FFFFFF"/>
		</linearGradient>
		<path fill="url(#SVGID_5_)" d="M275.567,289.97c-20.466,0.127-53.487,0.492-81.214,0.536c-2.375-3.278-3.699-7.432-3.482-11.879
			c0.467-9.468,7.768-16.84,16.564-17.024c-0.021-0.46-0.021-0.918,0.003-1.39c0.378-7.659,6.546-13.548,13.769-13.146
			c1.866,0.103,3.62,0.617,5.191,1.453c4.063-6.949,11.477-11.405,19.72-10.949c11.444,0.635,20.37,10.506,20.691,22.439
			c7.475,2.884,12.629,10.681,12.19,19.535C278.812,283.445,277.561,287.015,275.567,289.97z"/>
		
			<linearGradient id="SVGID_6_" gradientUnits="userSpaceOnUse" x1="859.54" y1="-268.5801" x2="874.7142" y2="-302.662" gradientTransform="matrix(1 0 0 -1 -610 -6)">
			<stop  offset="0" style="stop-color:#A1A1A0"/>
			<stop  offset="1" style="stop-color:#FFFFFF"/>
		</linearGradient>
		<path fill="url(#SVGID_6_)" d="M299.412,284.501c-3.341,3.362-7.854,5.426-12.822,5.426c-12.862,0-38.679,0.288-64.786,0.457
			c2.101-4.484,5.771-8.029,10.291-9.771c0.326-11.938,9.248-21.808,20.693-22.441c8.241-0.457,15.657,3.998,19.72,10.948
			c1.569-0.838,3.323-1.348,5.192-1.453c7.222-0.401,13.39,5.488,13.766,13.149c0.025,0.466,0.025,0.926,0.005,1.384
			C294.339,282.262,297.048,283.087,299.412,284.501z"/>
	</g>
	<g>
		
			<linearGradient id="SVGID_7_" gradientUnits="userSpaceOnUse" x1="669" y1="-269.8994" x2="751.8701" y2="-249.2375" gradientTransform="matrix(1 0 0 -1 -610 -6)">
			<stop  offset="0" style="stop-color:#A1A1A0"/>
			<stop  offset="1" style="stop-color:#FFFFFF"/>
		</linearGradient>
		<path fill="url(#SVGID_7_)" d="M46.829,292.507c-8.74,0-15.827-7.086-15.827-15.827c0-7.367,5.039-13.562,11.859-15.322
			c-0.395-1.862-0.604-3.799-0.604-5.776c0-15.226,12.253-27.592,27.431-27.781c3.451-18.026,19.305-31.658,38.339-31.658
			c15.381,0,28.687,8.904,35.047,21.836c2.444-0.929,5.093-1.438,7.86-1.438c12.235,0,22.158,9.923,22.158,22.157
			c0,1.821-0.222,3.595-0.639,5.288c12.852,0.408,23.147,10.953,23.147,23.902c0,13.207-10.71,23.914-23.916,23.914
			C148.147,291.803,90.867,292.507,46.829,292.507z"/>
		
			<linearGradient id="SVGID_8_" gradientUnits="userSpaceOnUse" x1="760.9639" y1="-248.083" x2="699.7705" y2="-294.1956" gradientTransform="matrix(1 0 0 -1 -610 -6)">
			<stop  offset="0" style="stop-color:#A1A1A0"/>
			<stop  offset="1" style="stop-color:#FFFFFF"/>
		</linearGradient>
		<path fill="url(#SVGID_8_)" d="M157.534,291.855c-26.271,0.151-68.665,0.598-104.256,0.646c-3.049-3.967-4.752-8.995-4.471-14.379
			c0.6-11.457,9.972-20.387,21.265-20.607c-0.026-0.555-0.025-1.111,0.004-1.679c0.485-9.272,8.402-16.403,17.675-15.919
			c2.397,0.124,4.649,0.746,6.667,1.764c5.213-8.416,14.733-13.81,25.315-13.258c14.688,0.77,26.149,12.719,26.562,27.167
			c9.592,3.49,16.211,12.933,15.65,23.648C161.698,283.957,160.094,288.279,157.534,291.855z"/>
		
			<linearGradient id="SVGID_9_" gradientUnits="userSpaceOnUse" x1="734.7979" y1="-264.4033" x2="753.6481" y2="-306.7417" gradientTransform="matrix(1 0 0 -1 -610 -6)">
			<stop  offset="0" style="stop-color:#A1A1A0"/>
			<stop  offset="1" style="stop-color:#FFFFFF"/>
		</linearGradient>
		<path fill="url(#SVGID_9_)" d="M188.144,285.236c-4.288,4.068-10.081,6.565-16.459,6.565c-16.517,0-49.654,0.351-83.168,0.556
			c2.696-5.432,7.41-9.717,13.21-11.828c0.415-14.449,11.873-26.398,26.563-27.166c10.581-0.553,20.102,4.841,25.315,13.255
			c2.018-1.013,4.269-1.636,6.667-1.761c9.271-0.485,17.189,6.646,17.672,15.918c0.03,0.563,0.03,1.123,0.005,1.677
			C181.633,282.527,185.109,283.525,188.144,285.236z"/>
	</g>
</g>
</svg>
