<?xml version="1.0" encoding="utf-8"?>
<!-- Generator: Adobe Illustrator 16.0.0, SVG Export Plug-In . SVG Version: 6.00 Build 0)  -->
<!DOCTYPE svg PUBLIC "-//W3C//DTD SVG 1.1//EN" "http://www.w3.org/Graphics/SVG/1.1/DTD/svg11.dtd">
<svg version="1.1" id="Layer_1" xmlns="http://www.w3.org/2000/svg" xmlns:xlink="http://www.w3.org/1999/xlink" x="0px" y="0px"
	 width="400px" height="400px" viewBox="0 0 400 400" enable-background="new 0 0 400 400" xml:space="preserve">
<linearGradient id="SVGID_1_" gradientUnits="userSpaceOnUse" x1="285.8438" y1="109.6069" x2="221.1807" y2="189.4591">
	<stop  offset="0" style="stop-color:#5ABFD5"/>
	<stop  offset="1" style="stop-color:#0F298F"/>
</linearGradient>
<path fill-rule="evenodd" clip-rule="evenodd" fill="url(#SVGID_1_)" d="M244.604,48.459c17.992-4.136,35.962-2.534,52,3.604
	c-4.083,0.143-8.21,0.668-12.34,1.619c-34.873,8.017-56.651,42.797-48.634,77.668c8.018,34.873,42.798,56.651,77.67,48.634
	c16.731-3.848,30.446-13.859,39.306-27.082c-6.588,33.649-32.295,61.976-67.864,70.15c-48.205,11.081-96.286-19.023-107.367-67.227
	C166.292,107.621,196.397,59.541,244.604,48.459z"/>
<g>
	<g>
		
			<linearGradient id="SVGID_2_" gradientUnits="userSpaceOnUse" x1="337.5547" y1="-61.1133" x2="469.6286" y2="-28.1835" gradientTransform="matrix(1 0 0 -1 -252 149)">
			<stop  offset="0" style="stop-color:#A1A1A0"/>
			<stop  offset="1" style="stop-color:#FFFFFF"/>
		</linearGradient>
		<path fill="url(#SVGID_2_)" d="M66.158,255.708c-13.928,0-25.225-11.294-25.225-25.223c0-11.745,8.031-21.617,18.9-24.424
			c-0.63-2.97-0.962-6.052-0.962-9.209c0-24.263,19.527-43.973,43.717-44.276c5.5-28.734,30.769-50.455,61.105-50.455
			c24.516,0,45.72,14.191,55.857,34.802c3.893-1.478,8.115-2.29,12.525-2.29c19.5,0,35.316,15.814,35.316,35.313
			c0,2.905-0.356,5.729-1.018,8.431c20.48,0.646,36.893,17.457,36.893,38.093c0,21.048-17.07,38.119-38.117,38.119
			C227.638,254.589,136.344,255.708,66.158,255.708z"/>
		
			<linearGradient id="SVGID_3_" gradientUnits="userSpaceOnUse" x1="484.124" y1="-26.3447" x2="386.5957" y2="-99.8375" gradientTransform="matrix(1 0 0 -1 -252 149)">
			<stop  offset="0" style="stop-color:#A1A1A0"/>
			<stop  offset="1" style="stop-color:#FFFFFF"/>
		</linearGradient>
		<path fill="url(#SVGID_3_)" d="M242.598,254.67c-41.872,0.243-109.439,0.951-166.161,1.033c-4.86-6.32-7.576-14.337-7.128-22.918
			c0.955-18.26,15.894-32.487,33.893-32.845c-0.043-0.883-0.041-1.773,0.004-2.674c0.772-14.78,13.39-26.144,28.169-25.372
			c3.822,0.2,7.411,1.193,10.626,2.808c8.31-13.412,23.481-22.006,40.346-21.125c23.411,1.224,41.673,20.267,42.336,43.297
			c15.287,5.562,25.834,20.608,24.942,37.691C249.233,242.079,246.677,248.973,242.598,254.67z"/>
		
			<linearGradient id="SVGID_4_" gradientUnits="userSpaceOnUse" x1="442.4219" y1="-52.3525" x2="472.4653" y2="-119.8312" gradientTransform="matrix(1 0 0 -1 -252 149)">
			<stop  offset="0" style="stop-color:#A1A1A0"/>
			<stop  offset="1" style="stop-color:#FFFFFF"/>
		</linearGradient>
		<path fill="url(#SVGID_4_)" d="M291.383,244.12c-6.835,6.484-16.07,10.469-26.232,10.469c-26.324,0-79.137,0.551-132.553,0.882
			c4.298-8.655,11.81-15.489,21.055-18.854c0.66-23.03,18.922-42.071,42.335-43.296c16.863-0.88,32.037,7.715,40.347,21.126
			c3.212-1.616,6.804-2.609,10.623-2.811c14.78-0.771,27.396,10.593,28.17,25.375c0.048,0.898,0.048,1.789,0.008,2.674
			C281.003,239.802,286.544,241.396,291.383,244.12z"/>
	</g>
	<g>
		
			<linearGradient id="SVGID_5_" gradientUnits="userSpaceOnUse" x1="551.873" y1="-139.3354" x2="533.4196" y2="-159.1243" gradientTransform="matrix(1 0 0 -1 -252 149)">
			<stop  offset="0" style="stop-color:#5BBFD5"/>
			<stop  offset="1" style="stop-color:#293787"/>
		</linearGradient>
		<path fill="url(#SVGID_5_)" d="M306.835,323.144c-8.567,4.949-19.53,2.011-24.479-6.56c-7.23-12.863,0.473-23.395-6.078-46.373
			c15.537,16.737,29.596,15.757,37.117,28.451C318.344,307.231,315.404,318.193,306.835,323.144z"/>
		<path fill="#FFFFFF" d="M307.216,313.281c2.61-4.157,2.896-9.584,0.269-14.133c-1.494-2.524-3.33-4.338-5.436-5.871
			c3.503,2.017,6.479,4.203,8.704,7.961c2.603,4.507,2.351,9.873-0.194,14.017c-0.166,0.325-0.424,0.611-0.764,0.806
			c-0.93,0.538-2.119,0.219-2.656-0.712C306.753,314.683,306.811,313.879,307.216,313.281z"/>
	</g>
	<g>
		
			<linearGradient id="SVGID_6_" gradientUnits="userSpaceOnUse" x1="447.1719" y1="-139.335" x2="428.7188" y2="-159.1234" gradientTransform="matrix(1 0 0 -1 -252 149)">
			<stop  offset="0" style="stop-color:#5BBFD5"/>
			<stop  offset="1" style="stop-color:#293787"/>
		</linearGradient>
		<path fill="url(#SVGID_6_)" d="M202.134,323.144c-8.569,4.949-19.531,2.011-24.48-6.56c-7.231-12.863,0.472-23.395-6.079-46.373
			c15.537,16.737,29.595,15.757,37.118,28.451C213.643,307.231,210.703,318.193,202.134,323.144z"/>
		<path fill="#FFFFFF" d="M202.516,313.281c2.612-4.157,2.893-9.584,0.269-14.133c-1.495-2.524-3.331-4.338-5.436-5.871
			c3.503,2.017,6.479,4.203,8.703,7.961c2.604,4.507,2.352,9.873-0.193,14.017c-0.166,0.325-0.424,0.611-0.765,0.806
			c-0.929,0.538-2.118,0.219-2.655-0.712C202.051,314.683,202.107,313.879,202.516,313.281z"/>
	</g>
	<g>
		
			<linearGradient id="SVGID_7_" gradientUnits="userSpaceOnUse" x1="514.3379" y1="-188.7227" x2="495.884" y2="-208.512" gradientTransform="matrix(1 0 0 -1 -252 149)">
			<stop  offset="0" style="stop-color:#5BBFD5"/>
			<stop  offset="1" style="stop-color:#293787"/>
		</linearGradient>
		<path fill="url(#SVGID_7_)" d="M269.303,372.53c-8.572,4.948-19.531,2.013-24.479-6.56c-7.231-12.86,0.472-23.395-6.082-46.374
			c15.54,16.735,29.596,15.757,37.12,28.452C280.809,356.622,277.872,367.584,269.303,372.53z"/>
		<path fill="#FFFFFF" d="M269.684,362.672c2.609-4.157,2.894-9.59,0.269-14.136c-1.495-2.522-3.331-4.338-5.435-5.87
			c3.498,2.016,6.476,4.206,8.703,7.963c2.602,4.5,2.348,9.87-0.195,14.013c-0.166,0.326-0.422,0.609-0.764,0.811
			c-0.929,0.534-2.117,0.217-2.656-0.715C269.221,364.07,269.273,363.267,269.684,362.672z"/>
	</g>
</g>
</svg>
