<?xml version="1.0" encoding="utf-8"?>
<!-- Generator: Adobe Illustrator 16.0.0, SVG Export Plug-In . SVG Version: 6.00 Build 0)  -->
<!DOCTYPE svg PUBLIC "-//W3C//DTD SVG 1.1//EN" "http://www.w3.org/Graphics/SVG/1.1/DTD/svg11.dtd">
<svg version="1.1" id="Layer_1" xmlns="http://www.w3.org/2000/svg" xmlns:xlink="http://www.w3.org/1999/xlink" x="0px" y="0px"
	 width="400px" height="400px" viewBox="0 0 400 400" enable-background="new 0 0 400 400" xml:space="preserve">
<linearGradient id="SVGID_1_" gradientUnits="userSpaceOnUse" x1="152.0059" y1="142.4258" x2="100.0914" y2="206.5348">
	<stop  offset="0" style="stop-color:#5ABFD5"/>
	<stop  offset="1" style="stop-color:#0F298F"/>
</linearGradient>
<path fill-rule="evenodd" clip-rule="evenodd" fill="url(#SVGID_1_)" d="M118.896,93.333c14.445-3.32,28.872-2.034,41.748,2.894
	c-3.278,0.115-6.591,0.537-9.907,1.3c-27.998,6.436-45.482,34.359-39.045,62.355c6.437,27.998,34.36,45.483,62.357,39.045
	c13.433-3.089,24.444-11.126,31.557-21.742c-5.289,27.015-25.928,49.757-54.485,56.319c-38.701,8.896-77.303-15.272-86.199-53.972
	C56.025,140.831,80.194,102.23,118.896,93.333z"/>
<g>
	<g>
		
			<linearGradient id="SVGID_2_" gradientUnits="userSpaceOnUse" x1="362.6826" y1="-113.9409" x2="527.4906" y2="-72.8497" gradientTransform="matrix(1 0 0 -1 -252 149)">
			<stop  offset="0" style="stop-color:#A1A1A0"/>
			<stop  offset="1" style="stop-color:#FFFFFF"/>
		</linearGradient>
		<path fill="url(#SVGID_2_)" d="M86.478,319.838c-17.381,0-31.476-14.093-31.476-31.479c0-14.65,10.021-26.969,23.584-30.473
			c-0.785-3.707-1.202-7.555-1.202-11.49c0-30.276,24.368-54.872,54.553-55.25c6.863-35.855,38.393-62.959,76.247-62.959
			c30.59,0,57.051,17.708,69.701,43.427c4.86-1.845,10.129-2.858,15.631-2.858c24.334,0,44.067,19.732,44.067,44.066
			c0,3.623-0.442,7.148-1.271,10.519c25.559,0.81,46.035,21.783,46.035,47.534c0,26.268-21.299,47.563-47.563,47.563
			C287.977,318.438,174.059,319.838,86.478,319.838z"/>
		
			<linearGradient id="SVGID_3_" gradientUnits="userSpaceOnUse" x1="545.5801" y1="-70.5557" x2="423.8805" y2="-162.263" gradientTransform="matrix(1 0 0 -1 -252 149)">
			<stop  offset="0" style="stop-color:#A1A1A0"/>
			<stop  offset="1" style="stop-color:#FFFFFF"/>
		</linearGradient>
		<path fill="url(#SVGID_3_)" d="M306.645,318.543c-52.248,0.304-136.559,1.188-207.341,1.289
			c-6.064-7.891-9.452-17.891-8.893-28.598c1.192-22.785,19.832-40.539,42.291-40.983c-0.052-1.103-0.051-2.215,0.008-3.336
			c0.965-18.445,16.708-32.627,35.15-31.66c4.768,0.246,9.247,1.483,13.258,3.503c10.369-16.734,29.301-27.46,50.346-26.362
			c29.213,1.528,52.005,25.292,52.826,54.027c19.077,6.942,32.24,25.716,31.126,47.032
			C314.925,302.833,311.734,311.43,306.645,318.543z"/>
		
			<linearGradient id="SVGID_4_" gradientUnits="userSpaceOnUse" x1="493.54" y1="-103.0137" x2="531.0295" y2="-187.2163" gradientTransform="matrix(1 0 0 -1 -252 149)">
			<stop  offset="0" style="stop-color:#A1A1A0"/>
			<stop  offset="1" style="stop-color:#FFFFFF"/>
		</linearGradient>
		<path fill="url(#SVGID_4_)" d="M367.52,305.379c-8.526,8.092-20.049,13.061-32.733,13.061c-32.849,0-98.749,0.691-165.401,1.103
			c5.361-10.799,14.736-19.326,26.271-23.524c0.826-28.738,23.614-52.5,52.829-54.027c21.043-1.1,39.978,9.627,50.347,26.359
			c4.012-2.015,8.489-3.252,13.26-3.502c18.438-0.964,34.185,13.219,35.147,31.66c0.06,1.121,0.06,2.235,0.009,3.335
			C354.57,299.99,361.482,301.977,367.52,305.379z"/>
	</g>
</g>
</svg>
