<?xml version="1.0" encoding="utf-8"?>
<!-- Generator: Adobe Illustrator 16.0.0, SVG Export Plug-In . SVG Version: 6.00 Build 0)  -->
<!DOCTYPE svg PUBLIC "-//W3C//DTD SVG 1.1//EN" "http://www.w3.org/Graphics/SVG/1.1/DTD/svg11.dtd">
<svg version="1.1" id="Layer_1" xmlns="http://www.w3.org/2000/svg" xmlns:xlink="http://www.w3.org/1999/xlink" x="0px" y="0px"
	 width="400px" height="400px" viewBox="0 0 400 400" enable-background="new 0 0 400 400" xml:space="preserve">
<g>
	<g>
		
			<linearGradient id="SVGID_1_" gradientUnits="userSpaceOnUse" x1="452.7529" y1="332.6123" x2="603.9419" y2="294.9166" gradientTransform="matrix(1 0 0 1 -358 -155)">
			<stop  offset="0" style="stop-color:#A1A1A0"/>
			<stop  offset="1" style="stop-color:#FFFFFF"/>
		</linearGradient>
		<path fill="url(#SVGID_1_)" d="M72.545,229.812c-15.945,0-28.875-12.934-28.875-28.877c0-13.443,9.193-24.744,21.635-27.958
			c-0.72-3.4-1.103-6.928-1.103-10.542c0-27.774,22.353-50.335,50.046-50.683c6.297-32.893,35.22-57.759,69.945-57.759
			c28.065,0,52.338,16.245,63.946,39.841c4.455-1.692,9.288-2.624,14.336-2.624c22.324,0,40.426,18.102,40.426,40.426
			c0,3.325-0.404,6.557-1.161,9.65c23.442,0.742,42.229,19.984,42.229,43.607c0,24.093-19.539,43.63-43.633,43.63
			C257.395,228.525,152.89,229.812,72.545,229.812z"/>
		
			<linearGradient id="SVGID_2_" gradientUnits="userSpaceOnUse" x1="620.5342" y1="292.8154" x2="508.8893" y2="376.9458" gradientTransform="matrix(1 0 0 1 -358 -155)">
			<stop  offset="0" style="stop-color:#A1A1A0"/>
			<stop  offset="1" style="stop-color:#FFFFFF"/>
		</linearGradient>
		<path fill="url(#SVGID_2_)" d="M274.518,228.622c-47.93,0.278-125.271,1.089-190.207,1.183
			c-5.562-7.234-8.672-16.408-8.158-26.229c1.093-20.904,18.193-37.192,38.796-37.601c-0.048-1.01-0.046-2.031,0.007-3.061
			c0.883-16.918,15.329-29.928,32.246-29.044c4.374,0.229,8.484,1.366,12.162,3.216c9.513-15.352,26.881-25.19,46.188-24.184
			c26.801,1.402,47.702,23.2,48.463,49.564c17.496,6.366,29.57,23.588,28.553,43.145C282.115,214.21,279.191,222.1,274.518,228.622z
			"/>
		
			<linearGradient id="SVGID_3_" gradientUnits="userSpaceOnUse" x1="572.7939" y1="322.585" x2="607.1855" y2="399.8299" gradientTransform="matrix(1 0 0 1 -358 -155)">
			<stop  offset="0" style="stop-color:#A1A1A0"/>
			<stop  offset="1" style="stop-color:#FFFFFF"/>
		</linearGradient>
		<path fill="url(#SVGID_3_)" d="M330.367,216.545c-7.823,7.428-18.396,11.98-30.029,11.98c-30.138,0-90.591,0.639-151.735,1.015
			c4.917-9.909,13.517-17.731,24.099-21.58c0.757-26.366,21.663-48.164,48.461-49.565c19.308-1.008,36.677,8.831,46.187,24.183
			c3.68-1.849,7.789-2.987,12.164-3.216c16.918-0.884,31.362,12.127,32.246,29.045c0.057,1.03,0.057,2.051,0.01,3.06
			C318.484,211.602,324.83,213.425,330.367,216.545z"/>
	</g>
	<g>
		
			<linearGradient id="SVGID_4_" gradientUnits="userSpaceOnUse" x1="621.5967" y1="416.8877" x2="602.8949" y2="436.943" gradientTransform="matrix(1 0 0 1 -358 -155)">
			<stop  offset="0" style="stop-color:#5BBFD5"/>
			<stop  offset="1" style="stop-color:#293787"/>
		</linearGradient>
		<path fill="url(#SVGID_4_)" d="M270.65,297.161c-8.688,5.016-19.793,2.04-24.811-6.646c-7.326-13.037,0.479-23.707-6.158-46.992
			c15.743,16.959,29.987,15.966,37.614,28.83C282.311,281.04,279.334,292.148,270.65,297.161z"/>
		<path fill="#FFFFFF" d="M271.036,287.171c2.646-4.213,2.935-9.716,0.272-14.325c-1.518-2.556-3.377-4.396-5.511-5.945
			c3.548,2.039,6.566,4.258,8.82,8.063c2.637,4.563,2.382,10.005-0.197,14.203c-0.168,0.33-0.429,0.617-0.771,0.817
			c-0.943,0.545-2.149,0.223-2.693-0.724C270.566,288.585,270.622,287.773,271.036,287.171z"/>
	</g>
	<g>
		
			<linearGradient id="SVGID_5_" gradientUnits="userSpaceOnUse" x1="521.4912" y1="418.8857" x2="502.79" y2="438.9403" gradientTransform="matrix(1 0 0 1 -358 -155)">
			<stop  offset="0" style="stop-color:#5BBFD5"/>
			<stop  offset="1" style="stop-color:#293787"/>
		</linearGradient>
		<path fill="url(#SVGID_5_)" d="M170.547,299.161c-8.686,5.016-19.793,2.04-24.807-6.646c-7.329-13.037,0.477-23.707-6.163-46.992
			c15.747,16.959,29.992,15.966,37.617,28.83C182.208,283.04,179.232,294.148,170.547,299.161z"/>
		<path fill="#FFFFFF" d="M170.931,289.171c2.647-4.213,2.935-9.716,0.274-14.325c-1.516-2.556-3.376-4.396-5.507-5.945
			c3.546,2.039,6.563,4.258,8.82,8.063c2.635,4.563,2.377,10.005-0.198,14.203c-0.167,0.33-0.427,0.617-0.772,0.817
			c-0.943,0.545-2.15,0.223-2.693-0.724C170.465,290.585,170.52,289.773,170.931,289.171z"/>
	</g>
	<g>
		
			<linearGradient id="SVGID_6_" gradientUnits="userSpaceOnUse" x1="589.5586" y1="468.9346" x2="570.8574" y2="488.9891" gradientTransform="matrix(1 0 0 1 -358 -155)">
			<stop  offset="0" style="stop-color:#5BBFD5"/>
			<stop  offset="1" style="stop-color:#293787"/>
		</linearGradient>
		<path fill="url(#SVGID_6_)" d="M238.611,349.213c-8.68,5.014-19.789,2.037-24.805-6.646c-7.328-13.039,0.479-23.707-6.164-46.999
			c15.746,16.964,29.996,15.973,37.614,28.837C250.273,333.088,247.299,344.197,238.611,349.213z"/>
		<path fill="#FFFFFF" d="M238.997,339.217c2.647-4.214,2.937-9.713,0.274-14.319c-1.519-2.559-3.375-4.397-5.508-5.951
			c3.551,2.047,6.562,4.261,8.819,8.065c2.634,4.566,2.379,10.011-0.2,14.204c-0.165,0.33-0.426,0.62-0.771,0.816
			c-0.944,0.545-2.149,0.224-2.694-0.718C238.531,340.636,238.589,339.825,238.997,339.217z"/>
	</g>
</g>
<g>
	
		<linearGradient id="SVGID_7_" gradientUnits="userSpaceOnUse" x1="533.5801" y1="475.3721" x2="525.3611" y2="484.1857" gradientTransform="matrix(1 0 0 1 -358 -155)">
		<stop  offset="0" style="stop-color:#5BBFD5"/>
		<stop  offset="1" style="stop-color:#293787"/>
	</linearGradient>
	<path fill="url(#SVGID_7_)" d="M178.605,336.035c-3.727,2.245-8.49,0.914-10.642-2.977c-3.144-5.835,0.205-10.611-2.642-21.035
		c6.753,7.592,12.862,7.146,16.134,12.905C183.607,328.818,182.33,333.791,178.605,336.035z"/>
	<path fill="#FFFFFF" d="M178.771,331.562c1.134-1.887,1.258-4.35,0.116-6.413c-0.65-1.145-1.449-1.968-2.363-2.661
		c1.521,0.913,2.816,1.904,3.783,3.608c1.131,2.043,1.021,4.479-0.085,6.358c-0.072,0.148-0.184,0.276-0.33,0.366
		c-0.405,0.244-0.922,0.101-1.155-0.323C178.569,332.196,178.594,331.833,178.771,331.562z"/>
</g>
<g>
	
		<linearGradient id="SVGID_8_" gradientUnits="userSpaceOnUse" x1="628.9873" y1="474.5869" x2="621.0341" y2="483.1158" gradientTransform="matrix(1 0 0 1 -358 -155)">
		<stop  offset="0" style="stop-color:#5BBFD5"/>
		<stop  offset="1" style="stop-color:#293787"/>
	</linearGradient>
	<path fill="url(#SVGID_8_)" d="M273.986,334.589c-3.694,2.133-8.418,0.868-10.551-2.826c-3.117-5.545,0.203-10.082-2.619-19.984
		c6.695,7.213,12.752,6.79,15.996,12.261C278.945,327.732,277.68,332.457,273.986,334.589z"/>
	<path fill="#FFFFFF" d="M274.15,330.34c1.125-1.791,1.248-4.132,0.115-6.093c-0.646-1.086-1.437-1.869-2.344-2.528
		c1.51,0.868,2.793,1.812,3.752,3.431c1.121,1.939,1.014,4.255-0.084,6.04c-0.07,0.141-0.183,0.263-0.328,0.348
		c-0.4,0.231-0.914,0.096-1.146-0.307C273.951,330.941,273.975,330.597,274.15,330.34z"/>
</g>
<g>
	
		<linearGradient id="SVGID_9_" gradientUnits="userSpaceOnUse" x1="572.2012" y1="417.2188" x2="562.3283" y2="427.806" gradientTransform="matrix(1 0 0 1 -358 -155)">
		<stop  offset="0" style="stop-color:#5BBFD5"/>
		<stop  offset="1" style="stop-color:#293787"/>
	</linearGradient>
	<path fill="url(#SVGID_9_)" d="M217.925,280.84c-4.585,2.646-10.448,1.077-13.097-3.509c-3.869-6.882,0.252-12.515-3.253-24.808
		c8.313,8.953,15.833,8.429,19.858,15.22C224.081,272.329,222.51,278.193,217.925,280.84z"/>
	<path fill="#FFFFFF" d="M218.127,275.564c1.398-2.224,1.55-5.129,0.145-7.562c-0.799-1.349-1.78-2.319-2.905-3.14
		c1.87,1.078,3.465,2.248,4.655,4.258c1.392,2.408,1.254,5.281-0.104,7.498c-0.088,0.175-0.226,0.326-0.407,0.432
		c-0.496,0.288-1.135,0.118-1.421-0.381C217.881,276.312,217.91,275.884,218.127,275.564z"/>
</g>
<g>
	
		<linearGradient id="SVGID_10_" gradientUnits="userSpaceOnUse" x1="482.1338" y1="430.6377" x2="472.2606" y2="441.2253" gradientTransform="matrix(1 0 0 1 -358 -155)">
		<stop  offset="0" style="stop-color:#5BBFD5"/>
		<stop  offset="1" style="stop-color:#293787"/>
	</linearGradient>
	<path fill="url(#SVGID_10_)" d="M127.857,294.264c-4.582,2.646-10.447,1.075-13.096-3.51c-3.868-6.883,0.254-12.516-3.254-24.811
		c8.312,8.955,15.836,8.432,19.857,15.223C134.014,285.75,132.443,291.615,127.857,294.264z"/>
	<path fill="#FFFFFF" d="M128.061,288.986c1.398-2.226,1.551-5.129,0.145-7.562c-0.801-1.35-1.781-2.321-2.907-3.142
		c1.874,1.08,3.464,2.249,4.657,4.259c1.39,2.41,1.256,5.284-0.106,7.498c-0.087,0.175-0.225,0.327-0.407,0.433
		c-0.498,0.286-1.135,0.116-1.422-0.38C127.814,289.734,127.846,289.307,128.061,288.986z"/>
</g>
</svg>
