<?xml version="1.0" encoding="utf-8"?>
<!-- Generator: Adobe Illustrator 16.0.0, SVG Export Plug-In . SVG Version: 6.00 Build 0)  -->
<!DOCTYPE svg PUBLIC "-//W3C//DTD SVG 1.1//EN" "http://www.w3.org/Graphics/SVG/1.1/DTD/svg11.dtd">
<svg version="1.1" id="Layer_1" xmlns="http://www.w3.org/2000/svg" xmlns:xlink="http://www.w3.org/1999/xlink" x="0px" y="0px"
	 width="400px" height="400px" viewBox="0 0 400 400" enable-background="new 0 0 400 400" xml:space="preserve">
<g>
	<g>
		
			<linearGradient id="SVGID_1_" gradientUnits="userSpaceOnUse" x1="452.7529" y1="332.6123" x2="603.9419" y2="294.9166" gradientTransform="matrix(1 0 0 1 -358 -155)">
			<stop  offset="0" style="stop-color:#A1A1A0"/>
			<stop  offset="1" style="stop-color:#FFFFFF"/>
		</linearGradient>
		<path fill="url(#SVGID_1_)" d="M72.545,229.812c-15.945,0-28.875-12.934-28.875-28.877c0-13.443,9.193-24.744,21.635-27.958
			c-0.72-3.4-1.103-6.928-1.103-10.542c0-27.774,22.353-50.335,50.046-50.683c6.297-32.893,35.22-57.759,69.945-57.759
			c28.065,0,52.338,16.245,63.946,39.841c4.455-1.692,9.288-2.624,14.336-2.624c22.324,0,40.426,18.102,40.426,40.426
			c0,3.325-0.404,6.557-1.161,9.65c23.442,0.742,42.229,19.984,42.229,43.607c0,24.093-19.539,43.63-43.633,43.63
			C257.395,228.525,152.89,229.812,72.545,229.812z"/>
		
			<linearGradient id="SVGID_2_" gradientUnits="userSpaceOnUse" x1="620.5342" y1="292.8154" x2="508.8893" y2="376.9458" gradientTransform="matrix(1 0 0 1 -358 -155)">
			<stop  offset="0" style="stop-color:#A1A1A0"/>
			<stop  offset="1" style="stop-color:#FFFFFF"/>
		</linearGradient>
		<path fill="url(#SVGID_2_)" d="M274.518,228.622c-47.93,0.278-125.271,1.089-190.207,1.183
			c-5.562-7.234-8.672-16.408-8.158-26.229c1.093-20.904,18.193-37.192,38.796-37.601c-0.048-1.01-0.046-2.031,0.007-3.061
			c0.883-16.918,15.329-29.928,32.246-29.044c4.374,0.229,8.484,1.366,12.162,3.216c9.513-15.352,26.881-25.19,46.188-24.184
			c26.801,1.402,47.702,23.2,48.463,49.564c17.496,6.366,29.57,23.588,28.553,43.145C282.115,214.21,279.191,222.1,274.518,228.622z
			"/>
		
			<linearGradient id="SVGID_3_" gradientUnits="userSpaceOnUse" x1="572.7939" y1="322.585" x2="607.1855" y2="399.8299" gradientTransform="matrix(1 0 0 1 -358 -155)">
			<stop  offset="0" style="stop-color:#A1A1A0"/>
			<stop  offset="1" style="stop-color:#FFFFFF"/>
		</linearGradient>
		<path fill="url(#SVGID_3_)" d="M330.367,216.545c-7.823,7.428-18.396,11.98-30.029,11.98c-30.138,0-90.591,0.639-151.735,1.015
			c4.917-9.909,13.517-17.731,24.099-21.58c0.757-26.366,21.663-48.164,48.461-49.565c19.308-1.008,36.677,8.831,46.187,24.183
			c3.68-1.849,7.789-2.987,12.164-3.216c16.918-0.884,31.362,12.127,32.246,29.045c0.057,1.03,0.057,2.051,0.01,3.06
			C318.484,211.602,324.83,213.425,330.367,216.545z"/>
	</g>
	<g>
		
			<linearGradient id="SVGID_4_" gradientUnits="userSpaceOnUse" x1="594.5801" y1="413.373" x2="586.3606" y2="422.1874" gradientTransform="matrix(1 0 0 1 -358 -155)">
			<stop  offset="0" style="stop-color:#5BBFD5"/>
			<stop  offset="1" style="stop-color:#293787"/>
		</linearGradient>
		<path fill="url(#SVGID_4_)" d="M239.605,274.035c-3.728,2.244-8.49,0.914-10.643-2.977c-3.145-5.834,0.205-10.611-2.643-21.035
			c6.754,7.592,12.863,7.146,16.135,12.906C244.607,266.818,243.33,271.791,239.605,274.035z"/>
		<path fill="#FFFFFF" d="M239.771,269.562c1.133-1.887,1.258-4.35,0.115-6.414c-0.65-1.144-1.449-1.967-2.363-2.66
			c1.521,0.912,2.816,1.904,3.783,3.609c1.131,2.043,1.021,4.479-0.084,6.357c-0.072,0.148-0.185,0.275-0.33,0.365
			c-0.406,0.244-0.922,0.102-1.156-0.322C239.568,270.195,239.594,269.833,239.771,269.562z"/>
	</g>
	<g>
		
			<linearGradient id="SVGID_5_" gradientUnits="userSpaceOnUse" x1="520.9854" y1="442.5879" x2="513.0323" y2="451.1165" gradientTransform="matrix(1 0 0 1 -358 -155)">
			<stop  offset="0" style="stop-color:#5BBFD5"/>
			<stop  offset="1" style="stop-color:#293787"/>
		</linearGradient>
		<path fill="url(#SVGID_5_)" d="M165.986,302.589c-3.694,2.134-8.417,0.868-10.55-2.825c-3.117-5.546,0.203-10.082-2.62-19.986
			c6.695,7.214,12.753,6.791,15.997,12.262C170.946,295.732,169.679,300.457,165.986,302.589z"/>
		<path fill="#FFFFFF" d="M166.151,298.34c1.125-1.791,1.248-4.132,0.116-6.093c-0.645-1.086-1.437-1.869-2.344-2.528
			c1.509,0.868,2.793,1.811,3.752,3.43c1.121,1.94,1.013,4.256-0.084,6.041c-0.072,0.141-0.183,0.263-0.328,0.348
			c-0.401,0.232-0.914,0.096-1.146-0.307C165.951,298.941,165.975,298.598,166.151,298.34z"/>
	</g>
	<g>
		
			<linearGradient id="SVGID_6_" gradientUnits="userSpaceOnUse" x1="541.2012" y1="410.2188" x2="531.3287" y2="420.8056" gradientTransform="matrix(1 0 0 1 -358 -155)">
			<stop  offset="0" style="stop-color:#5BBFD5"/>
			<stop  offset="1" style="stop-color:#293787"/>
		</linearGradient>
		<path fill="url(#SVGID_6_)" d="M186.925,273.84c-4.585,2.646-10.449,1.077-13.096-3.509c-3.869-6.882,0.252-12.515-3.253-24.808
			c8.313,8.953,15.833,8.429,19.858,15.22C193.081,265.329,191.51,271.193,186.925,273.84z"/>
		<path fill="#FFFFFF" d="M187.127,268.564c1.397-2.224,1.549-5.129,0.145-7.562c-0.8-1.349-1.782-2.319-2.907-3.14
			c1.872,1.078,3.464,2.248,4.656,4.258c1.391,2.408,1.255,5.281-0.104,7.498c-0.088,0.175-0.225,0.326-0.408,0.432
			c-0.498,0.288-1.135,0.118-1.421-0.381C186.881,269.312,186.911,268.884,187.127,268.564z"/>
	</g>
	<g>
		
			<linearGradient id="SVGID_7_" gradientUnits="userSpaceOnUse" x1="577.1338" y1="436.6387" x2="567.2617" y2="447.2252" gradientTransform="matrix(1 0 0 1 -358 -155)">
			<stop  offset="0" style="stop-color:#5BBFD5"/>
			<stop  offset="1" style="stop-color:#293787"/>
		</linearGradient>
		<path fill="url(#SVGID_7_)" d="M222.857,300.264c-4.582,2.646-10.447,1.075-13.096-3.51c-3.869-6.883,0.254-12.516-3.255-24.811
			c8.312,8.955,15.836,8.432,19.856,15.223C229.014,291.75,227.443,297.615,222.857,300.264z"/>
		<path fill="#FFFFFF" d="M223.061,294.986c1.398-2.226,1.551-5.129,0.146-7.562c-0.802-1.35-1.781-2.321-2.907-3.142
			c1.874,1.08,3.465,2.249,4.657,4.259c1.39,2.41,1.256,5.284-0.106,7.498c-0.086,0.175-0.225,0.327-0.406,0.433
			c-0.498,0.286-1.135,0.116-1.422-0.38C222.814,295.734,222.846,295.307,223.061,294.986z"/>
	</g>
</g>
<linearGradient id="SVGID_8_" gradientUnits="userSpaceOnUse" x1="556.8154" y1="457.9297" x2="543.7504" y2="481.4999" gradientTransform="matrix(1 0 0 1 -358 -155)">
	<stop  offset="0" style="stop-color:#5BBFD5"/>
	<stop  offset="1" style="stop-color:#FFFFFF"/>
</linearGradient>
<path fill="url(#SVGID_8_)" d="M194.204,293.562l1.218,0.061l0.071,3.5l3.017-1.574v1.312l-2.98,2.051l0.024,1.172l2.956-1.541
	v1.312l-2.917,2.01l0.063,3.113l3.257-1.691v3.435l2.799-1.54l0.282-3.531l1.137-0.656l0.141,3.33l1.027-0.564l0.289-3.606
	l1.137-0.655l0.145,3.399l3.064-1.688l0.662,1.026l-3.182,1.862l2.861,1.819l-1.138,0.655l-3.282-1.562l-1.017,0.595l2.843,1.809
	l-1.138,0.656l-3.261-1.553l-3.071,1.8l3.351,1.873l-2.81,1.851l2.53,1.481l3.261-1.554l1.138,0.656l-2.843,1.809l1.017,0.595
	l3.282-1.562l1.138,0.655l-2.861,1.819l3.182,1.862l-0.662,1.026l-3.064-1.688l-0.145,3.4l-1.137-0.655l-0.289-3.605l-1.027-0.565
	l-0.141,3.33l-1.137-0.656l-0.282-3.532l-2.811-1.547v3.44l-3.26-1.69L195.622,318l2.976,2.048v1.313l-2.987-1.56l-0.007,1.179
	l2.994,2.062v1.312l-3.007-1.567l-0.021,3.687l-1.22-0.061l-0.072-3.499l-3.016,1.574v-1.312l2.979-2.055l-0.025-1.171l-2.954,1.54
	v-1.312l2.917-2.01l-0.063-3.113l-3.258,1.69v-3.435l-2.798,1.54l-0.282,3.532l-1.137,0.657l-0.141-3.332l-1.028,0.566l-0.288,3.605
	l-1.136,0.655l-0.146-3.399l-3.065,1.688l-0.663-1.026l3.183-1.862l-2.861-1.818l1.136-0.657l3.283,1.562l1.017-0.595l-2.842-1.809
	l1.136-0.656l3.262,1.554l3.072-1.801l-3.351-1.873l2.81-1.851l-2.53-1.48l-3.262,1.553l-1.136-0.656l2.842-1.809l-1.017-0.596
	l-3.283,1.562l-1.136-0.655l2.861-1.82l-3.183-1.861l0.663-1.026l3.065,1.688l0.146-3.399l1.136,0.655l0.288,3.606l1.028,0.564
	l0.141-3.33l1.137,0.655l0.282,3.532l2.812,1.548v-3.441l3.259,1.692l0.019-2.94l-2.974-2.048v-1.312l2.985,1.559l0.008-1.179
	l-2.993-2.062v-1.313l3.005,1.568L194.204,293.562L194.204,293.562z M194.877,309.186c-0.47,0-0.851,0.38-0.851,0.849
	s0.38,0.849,0.851,0.849c0.469,0,0.849-0.38,0.849-0.849S195.346,309.186,194.877,309.186L194.877,309.186z M197.544,309.296
	l-1.238,0.726l2.089,1.224l1.341-0.882L197.544,309.296L197.544,309.296z M193.468,310.021l-2.09-1.226l-1.341,0.884l2.193,1.065
	L193.468,310.021L193.468,310.021z M192.273,312.541v1.756l1.807-1.073l-0.036-1.656L192.273,312.541L192.273,312.541z
	 M195.665,311.532l-0.01,1.677l1.833,1.088v-1.762L195.665,311.532L195.665,311.532z M197.5,307.5v-1.756l-1.806,1.073l0.034,1.656
	L197.5,307.5L197.5,307.5z M194.109,308.508l0.011-1.676l-1.835-1.088v1.763L194.109,308.508z"/>
<linearGradient id="SVGID_9_" gradientUnits="userSpaceOnUse" x1="500.7529" y1="411.2402" x2="487.6874" y2="434.8109" gradientTransform="matrix(1 0 0 1 -358 -155)">
	<stop  offset="0" style="stop-color:#5BBFD5"/>
	<stop  offset="1" style="stop-color:#FFFFFF"/>
</linearGradient>
<path fill="url(#SVGID_9_)" d="M138.142,246.872l1.218,0.062l0.071,3.5l3.017-1.574v1.312l-2.98,2.052l0.024,1.172l2.956-1.541
	v1.312l-2.917,2.01l0.062,3.113l3.257-1.69v3.435l2.799-1.54l0.282-3.532l1.137-0.655l0.141,3.329l1.027-0.563l0.289-3.607
	l1.137-0.654l0.144,3.398l3.065-1.688l0.662,1.025l-3.182,1.863l2.861,1.818l-1.137,0.655l-3.283-1.562l-1.016,0.595l2.843,1.81
	l-1.138,0.655l-3.261-1.552l-3.071,1.799l3.35,1.873l-2.81,1.852l2.53,1.48l3.261-1.553l1.138,0.656l-2.843,1.809l1.016,0.594
	l3.283-1.561l1.137,0.654l-2.861,1.819l3.182,1.862l-0.662,1.027l-3.065-1.688l-0.144,3.399l-1.137-0.654l-0.289-3.606l-1.027-0.565
	l-0.141,3.33l-1.137-0.655l-0.282-3.533l-2.811-1.547v3.44l-3.26-1.69l-0.019,2.94l2.976,2.047v1.313l-2.987-1.56l-0.007,1.179
	l2.994,2.063v1.312l-3.005-1.565l-0.021,3.688l-1.22-0.061l-0.072-3.5l-3.016,1.574v-1.311l2.979-2.055l-0.025-1.172l-2.954,1.541
	v-1.312l2.917-2.01l-0.063-3.113l-3.258,1.689v-3.435l-2.798,1.54l-0.282,3.533l-1.137,0.656l-0.141-3.332l-1.028,0.566
	l-0.288,3.605l-1.136,0.656l-0.146-3.399l-3.065,1.688l-0.663-1.027l3.183-1.862l-2.861-1.817l1.136-0.658l3.283,1.562l1.017-0.594
	l-2.842-1.809l1.136-0.656l3.262,1.553l3.072-1.8l-3.351-1.873l2.81-1.851l-2.53-1.48l-3.262,1.552l-1.136-0.655l2.842-1.81
	l-1.017-0.595l-3.283,1.562l-1.136-0.655l2.861-1.819l-3.183-1.862l0.663-1.025l3.065,1.688l0.146-3.398l1.136,0.654l0.288,3.607
	l1.028,0.563l0.141-3.329l1.137,0.654L132,258.49l2.812,1.547v-3.441l3.259,1.692l0.019-2.94l-2.974-2.048v-1.312l2.985,1.558
	l0.008-1.178l-2.993-2.063v-1.312l3.005,1.568L138.142,246.872L138.142,246.872z M138.815,262.495c-0.47,0-0.851,0.38-0.851,0.849
	s0.38,0.85,0.851,0.85c0.469,0,0.849-0.381,0.849-0.85S139.284,262.495,138.815,262.495L138.815,262.495z M141.481,262.605
	l-1.238,0.725l2.089,1.225l1.341-0.883L141.481,262.605L141.481,262.605z M137.406,263.33l-2.09-1.225l-1.341,0.883l2.193,1.066
	L137.406,263.33L137.406,263.33z M136.21,265.852v1.756l1.807-1.073l-0.036-1.657L136.21,265.852L136.21,265.852z M139.603,264.842
	l-0.01,1.678l1.833,1.088v-1.762L139.603,264.842L139.603,264.842z M141.438,260.811v-1.756l-1.806,1.072l0.034,1.657
	L141.438,260.811L141.438,260.811z M138.047,261.816l0.011-1.676l-1.835-1.088v1.764L138.047,261.816z"/>
<linearGradient id="SVGID_10_" gradientUnits="userSpaceOnUse" x1="566.1953" y1="407.4668" x2="559.3477" y2="419.8201" gradientTransform="matrix(1 0 0 1 -358 -155)">
	<stop  offset="0" style="stop-color:#5BBFD5"/>
	<stop  offset="1" style="stop-color:#FFFFFF"/>
</linearGradient>
<path fill="url(#SVGID_10_)" d="M205.78,247.556l0.638,0.032l0.039,1.834l1.58-0.825v0.688l-1.562,1.074l0.012,0.613l1.55-0.809
	v0.688l-1.529,1.054l0.033,1.631l1.707-0.887v1.801l1.469-0.808l0.146-1.853l0.596-0.344l0.074,1.746l0.538-0.296l0.151-1.892
	l0.596-0.344l0.075,1.781l1.606-0.885l0.348,0.538l-1.668,0.978l1.5,0.953l-0.598,0.344l-1.721-0.817l-0.531,0.312l1.488,0.947
	l-0.596,0.346l-1.709-0.813l-1.61,0.942l1.757,0.981l-1.473,0.97l1.326,0.776l1.709-0.813l0.596,0.345l-1.488,0.946l0.531,0.312
	l1.721-0.816l0.598,0.342l-1.5,0.955l1.668,0.977L213.5,260.8l-1.606-0.886l-0.075,1.781l-0.596-0.343l-0.151-1.891l-0.538-0.296
	l-0.074,1.744l-0.596-0.344l-0.146-1.853l-1.475-0.812v1.805l-1.707-0.887l-0.012,1.541l1.561,1.073v0.688l-1.565-0.817
	l-0.003,0.617l1.568,1.082v0.688l-1.576-0.822l-0.012,1.934l-0.639-0.032l-0.038-1.834l-1.581,0.825v-0.688l1.562-1.076
	l-0.014-0.614l-1.549,0.808v-0.688l1.529-1.055l-0.033-1.631l-1.708,0.887v-1.801l-1.467,0.808l-0.147,1.853l-0.596,0.344
	l-0.074-1.746l-0.539,0.298l-0.149,1.89l-0.597,0.344l-0.076-1.781l-1.605,0.885l-0.348-0.538l1.669-0.978l-1.5-0.953l0.596-0.344
	l1.722,0.818l0.532-0.312l-1.489-0.947l0.596-0.344l1.71,0.812l1.608-0.943l-1.756-0.98l1.473-0.971l-1.325-0.775l-1.71,0.812
	l-0.596-0.344l1.489-0.947l-0.532-0.312l-1.722,0.818l-0.596-0.344l1.5-0.955l-1.669-0.976l0.348-0.538l1.605,0.885l0.076-1.781
	l0.597,0.344l0.149,1.891l0.539,0.297l0.074-1.746l0.596,0.344l0.147,1.853l1.474,0.812v-1.805l1.709,0.887l0.01-1.541l-1.56-1.072
	v-0.688l1.563,0.815l0.006-0.617l-1.569-1.081v-0.688l1.575,0.822L205.78,247.556L205.78,247.556z M206.133,255.744
	c-0.246,0-0.445,0.199-0.445,0.444s0.199,0.444,0.445,0.444s0.445-0.199,0.445-0.444S206.379,255.744,206.133,255.744
	L206.133,255.744z M207.53,255.802l-0.649,0.38l1.097,0.643l0.703-0.463L207.53,255.802L207.53,255.802z M205.395,256.182
	l-1.096-0.643l-0.703,0.464l1.148,0.559L205.395,256.182L205.395,256.182z M204.768,257.503v0.921l0.947-0.562l-0.021-0.869
	L204.768,257.503L204.768,257.503z M206.545,256.975l-0.006,0.879l0.961,0.57V257.5L206.545,256.975L206.545,256.975z
	 M207.506,254.861v-0.921l-0.945,0.562l0.02,0.868L207.506,254.861L207.506,254.861z M205.73,255.389l0.005-0.878l-0.961-0.57v0.925
	L205.73,255.389z"/>
</svg>
