<?xml version="1.0" encoding="utf-8"?>
<!-- Generator: Adobe Illustrator 16.0.0, SVG Export Plug-In . SVG Version: 6.00 Build 0)  -->
<!DOCTYPE svg PUBLIC "-//W3C//DTD SVG 1.1//EN" "http://www.w3.org/Graphics/SVG/1.1/DTD/svg11.dtd">
<svg version="1.1" id="Layer_1" xmlns="http://www.w3.org/2000/svg" xmlns:xlink="http://www.w3.org/1999/xlink" x="0px" y="0px"
	 width="400px" height="400px" viewBox="0 0 400 400" enable-background="new 0 0 400 400" xml:space="preserve">
<g>
	<g>
		
			<linearGradient id="SVGID_1_" gradientUnits="userSpaceOnUse" x1="349.583" y1="-17.4209" x2="507.6133" y2="21.9805" gradientTransform="matrix(1 0 0 -1 -252 149)">
			<stop  offset="0" style="stop-color:#A1A1A0"/>
			<stop  offset="1" style="stop-color:#FFFFFF"/>
		</linearGradient>
		<path fill="url(#SVGID_1_)" d="M74.375,220.98c-16.665,0-30.182-13.517-30.182-30.183c0-14.052,9.611-25.862,22.615-29.223
			c-0.753-3.554-1.151-7.241-1.151-11.02c0-29.03,23.364-52.612,52.308-52.976c6.583-34.38,36.813-60.372,73.111-60.372
			c29.334,0,54.706,16.979,66.834,41.643c4.66-1.769,9.713-2.743,14.992-2.743c23.328,0,42.25,18.921,42.25,42.255
			c0,3.475-0.424,6.854-1.217,10.086c24.508,0.775,44.142,20.887,44.142,45.58c0,25.184-20.421,45.606-45.606,45.606
			C267.587,219.637,158.355,220.98,74.375,220.98z"/>
		
			<linearGradient id="SVGID_2_" gradientUnits="userSpaceOnUse" x1="524.957" y1="24.1787" x2="408.263" y2="-63.7565" gradientTransform="matrix(1 0 0 -1 -252 149)">
			<stop  offset="0" style="stop-color:#A1A1A0"/>
			<stop  offset="1" style="stop-color:#FFFFFF"/>
		</linearGradient>
		<path fill="url(#SVGID_2_)" d="M285.484,219.736c-50.096,0.291-130.939,1.139-198.812,1.236
			c-5.815-7.562-9.064-17.152-8.527-27.42c1.142-21.85,19.015-38.874,40.549-39.3c-0.048-1.056-0.048-2.123,0.009-3.2
			c0.924-17.684,16.021-31.282,33.705-30.358c4.57,0.239,8.868,1.428,12.711,3.361c9.943-16.047,28.099-26.33,48.274-25.278
			c28.016,1.464,49.865,24.25,50.656,51.807c18.289,6.654,30.912,24.654,29.844,45.097
			C293.427,204.673,290.367,212.919,285.484,219.736z"/>
		
			<linearGradient id="SVGID_3_" gradientUnits="userSpaceOnUse" x1="475.0586" y1="-6.9395" x2="511.0076" y2="-87.6824" gradientTransform="matrix(1 0 0 -1 -252 149)">
			<stop  offset="0" style="stop-color:#A1A1A0"/>
			<stop  offset="1" style="stop-color:#FFFFFF"/>
		</linearGradient>
		<path fill="url(#SVGID_3_)" d="M343.861,207.113c-8.178,7.763-19.229,12.523-31.391,12.523c-31.498,0-94.688,0.665-158.599,1.059
			c5.139-10.356,14.128-18.533,25.188-22.557c0.793-27.557,22.645-50.341,50.656-51.805c20.179-1.054,38.332,9.229,48.275,25.276
			c3.846-1.932,8.141-3.122,12.714-3.361c17.684-0.924,32.777,12.676,33.705,30.36c0.055,1.077,0.058,2.144,0.006,3.199
			C331.441,201.945,338.07,203.852,343.861,207.113z"/>
	</g>
	<g>
		<g>
			
				<linearGradient id="SVGID_4_" gradientUnits="userSpaceOnUse" x1="400.7441" y1="-105.7075" x2="375.2511" y2="-151.6981" gradientTransform="matrix(1 0 0 -1 -252 149)">
				<stop  offset="0" style="stop-color:#5BBFD5"/>
				<stop  offset="1" style="stop-color:#FFFFFF"/>
			</linearGradient>
			<path fill="url(#SVGID_4_)" d="M139.745,236.43l2.377,0.118l0.139,6.827l5.888-3.07v2.562l-5.815,4.003l0.048,2.283l5.767-3.004
				v2.56l-5.694,3.922l0.124,6.075l6.357-3.301v6.701l5.46-3.004l0.551-6.894l2.217-1.281l0.275,6.499l2.005-1.102l0.563-7.039
				l2.217-1.278l0.282,6.634l5.981-3.293l1.293,2.002l-6.209,3.635l5.582,3.55l-2.22,1.28l-6.405-3.047l-1.984,1.16l5.548,3.528
				l-2.22,1.28l-6.363-3.027l-5.994,3.51l6.539,3.655l-5.482,3.61l4.937,2.89l6.363-3.028l2.22,1.28l-5.548,3.528l1.984,1.16
				l6.405-3.047l2.22,1.28l-5.582,3.55l6.209,3.635l-1.293,2.002l-5.981-3.293l-0.282,6.634l-2.217-1.278l-0.563-7.037l-2.005-1.104
				l-0.275,6.499l-2.217-1.281l-0.551-6.894l-5.485-3.02v6.717l-6.36-3.301l-0.037,5.736l5.806,3.996v2.562l-5.827-3.041
				l-0.015,2.299l5.842,4.025v2.562l-5.866-3.06l-0.042,7.193l-2.38-0.118l-0.139-6.827l-5.885,3.071v-2.559l5.812-4.008
				l-0.048-2.283l-5.764,3.004v-2.56l5.691-3.922l-0.124-6.075l-6.357,3.301v-6.701l-5.46,3.004l-0.551,6.894l-2.217,1.281
				l-0.275-6.499l-2.005,1.104l-0.562,7.037l-2.217,1.278l-0.283-6.633l-5.981,3.292l-1.293-2.002l6.21-3.635l-5.582-3.55
				l2.217-1.28l6.405,3.047l1.985-1.16l-5.547-3.528l2.217-1.28l6.365,3.028l5.994-3.511l-6.539-3.655l5.482-3.61l-4.937-2.889
				l-6.365,3.028l-2.217-1.281l5.547-3.528l-1.985-1.16l-6.405,3.047l-2.217-1.28l5.582-3.55l-6.21-3.635l1.293-2.002l5.981,3.293
				l0.283-6.634l2.217,1.278l0.562,7.039l2.005,1.102l0.275-6.498l2.217,1.28l0.551,6.894l5.485,3.017v-6.714l6.36,3.301
				l0.037-5.736l-5.803-3.996v-2.562l5.824,3.041l0.015-2.299l-5.839-4.025v-2.562l5.863,3.06L139.745,236.43L139.745,236.43z
				 M141.059,266.913c-0.918,0-1.66,0.741-1.66,1.655c0,0.916,0.742,1.656,1.66,1.656c0.915,0,1.657-0.74,1.657-1.656
				C142.716,267.654,141.974,266.913,141.059,266.913L141.059,266.913z M146.262,267.128l-2.417,1.414l4.077,2.388l2.617-1.722
				L146.262,267.128L146.262,267.128z M138.309,268.542l-4.077-2.388l-2.617,1.722l4.28,2.08L138.309,268.542L138.309,268.542z
				 M135.977,273.461v3.425l3.525-2.093l-0.07-3.234L135.977,273.461L135.977,273.461z M142.595,271.492l-0.019,3.271l3.577,2.122
				v-3.438L142.595,271.492L142.595,271.492z M146.177,263.624v-3.426l-3.525,2.093l0.067,3.234L146.177,263.624L146.177,263.624z
				 M139.56,265.592l0.021-3.271l-3.58-2.122v3.438L139.56,265.592z"/>
			
				<linearGradient id="SVGID_5_" gradientUnits="userSpaceOnUse" x1="520.8623" y1="-105.7104" x2="495.3695" y2="-151.7007" gradientTransform="matrix(1 0 0 -1 -252 149)">
				<stop  offset="0" style="stop-color:#5BBFD5"/>
				<stop  offset="1" style="stop-color:#FFFFFF"/>
			</linearGradient>
			<path fill="url(#SVGID_5_)" d="M259.861,236.43l2.377,0.118l0.143,6.827l5.885-3.07v2.562l-5.812,4.003l0.046,2.283l5.768-3.004
				v2.56l-5.694,3.922l0.124,6.075l6.357-3.301v6.701l5.459-3.004l0.553-6.894l2.217-1.281l0.277,6.499l2.002-1.102l0.563-7.039
				l2.217-1.278l0.285,6.634l5.981-3.293l1.289,2.002l-6.209,3.635l5.582,3.55l-2.217,1.28l-6.404-3.047l-1.984,1.16l5.546,3.528
				l-2.217,1.28l-6.366-3.027l-5.994,3.51l6.542,3.655l-5.481,3.61l4.935,2.89l6.366-3.028l2.217,1.28l-5.546,3.528l1.983,1.16
				l6.406-3.047l2.217,1.28l-5.582,3.55l6.209,3.635l-1.291,2.002l-5.98-3.293l-0.285,6.634l-2.217-1.278l-0.562-7.037l-2.002-1.104
				l-0.278,6.499l-2.218-1.281l-0.551-6.894l-5.484-3.02v6.717l-6.36-3.301l-0.036,5.736l5.807,3.996v2.562l-5.828-3.041
				l-0.014,2.299l5.842,4.025v2.562l-5.863-3.06l-0.045,7.193l-2.379-0.118l-0.143-6.827l-5.884,3.071v-2.559l5.812-4.008
				l-0.045-2.283l-5.767,3.004v-2.56l5.692-3.922l-0.123-6.075l-6.357,3.301v-6.701l-5.463,3.004l-0.549,6.894l-2.217,1.281
				l-0.278-6.499l-2.005,1.104l-0.561,7.037l-2.218,1.278l-0.284-6.633l-5.98,3.292l-1.291-2.002l6.209-3.635l-5.582-3.55
				l2.218-1.28l6.405,3.047l1.982-1.16l-5.545-3.528l2.217-1.28l6.367,3.028l5.992-3.511l-6.542-3.655l5.481-3.61l-4.934-2.889
				l-6.365,3.028l-2.217-1.281l5.545-3.528l-1.983-1.16l-6.405,3.047l-2.218-1.28l5.582-3.55l-6.209-3.635l1.291-2.002l5.981,3.293
				l0.283-6.634l2.217,1.278l0.562,7.039l2.005,1.102l0.277-6.498l2.218,1.28l0.549,6.894l5.487,3.017v-6.714l6.359,3.301
				l0.033-5.736l-5.803-3.996v-2.562l5.826,3.041l0.016-2.299l-5.842-4.025v-2.562l5.863,3.06L259.861,236.43L259.861,236.43z
				 M261.175,266.913c-0.914,0-1.655,0.741-1.655,1.655c0,0.916,0.741,1.656,1.655,1.656c0.915,0,1.657-0.74,1.657-1.656
				C262.832,267.654,262.09,266.913,261.175,266.913L261.175,266.913z M266.378,267.128l-2.413,1.414l4.076,2.388l2.613-1.722
				L266.378,267.128L266.378,267.128z M258.426,268.542l-4.076-2.388l-2.617,1.722l4.279,2.08L258.426,268.542L258.426,268.542z
				 M256.094,273.461v3.425l3.524-2.093l-0.066-3.234L256.094,273.461L256.094,273.461z M262.714,271.492l-0.021,3.271l3.58,2.122
				v-3.438L262.714,271.492L262.714,271.492z M266.297,263.624v-3.426l-3.525,2.093l0.066,3.234L266.297,263.624L266.297,263.624z
				 M259.676,265.592l0.021-3.271l-3.58-2.122v3.438L259.676,265.592z"/>
		</g>
		
			<linearGradient id="SVGID_6_" gradientUnits="userSpaceOnUse" x1="460.8037" y1="-168.9316" x2="435.3117" y2="-214.9204" gradientTransform="matrix(1 0 0 -1 -252 149)">
			<stop  offset="0" style="stop-color:#5BBFD5"/>
			<stop  offset="1" style="stop-color:#FFFFFF"/>
		</linearGradient>
		<path fill="url(#SVGID_6_)" d="M199.801,299.648l2.377,0.117l0.143,6.826l5.885-3.07v2.562l-5.812,4.004l0.049,2.287l5.764-3.008
			v2.562l-5.693,3.919l0.127,6.075l6.354-3.302v6.706l5.463-3.008l0.549-6.891l2.218-1.28l0.277,6.495l2.005-1.103l0.562-7.035
			l2.22-1.281l0.282,6.634l5.98-3.292l1.293,2.002l-6.212,3.637l5.582,3.547l-2.217,1.281l-6.405-3.047l-1.984,1.163l5.547,3.524
			l-2.219,1.281l-6.365-3.029l-5.993,3.515l6.542,3.651l-5.48,3.61l4.934,2.889l6.365-3.024l2.217,1.28l-5.545,3.525l1.983,1.163
			l6.405-3.047l2.217,1.276l-5.582,3.551l6.212,3.638l-1.293,2.002l-5.981-3.292l-0.281,6.629l-2.221-1.278l-0.561-7.034
			l-2.005-1.105l-0.278,6.5l-2.217-1.281l-0.549-6.891l-5.486-3.017v6.712l-6.357-3.302l-0.036,5.735l5.803,4.001v2.56l-5.827-3.041
			l-0.012,2.303l5.839,4.021v2.562l-5.862-3.06l-0.045,7.195l-2.378-0.121l-0.142-6.826l-5.885,3.071v-2.56l5.812-4.005
			l-0.045-2.285l-5.767,3.008v-2.561l5.694-3.925l-0.124-6.075l-6.357,3.302v-6.699l-5.46,3.004l-0.551,6.891l-2.217,1.281
			l-0.275-6.5l-2.005,1.105l-0.563,7.034l-2.217,1.278l-0.285-6.629l-5.981,3.292l-1.29-2.002l6.208-3.638l-5.582-3.551l2.217-1.276
			l6.408,3.047l1.981-1.163l-5.545-3.525l2.217-1.28l6.366,3.024l5.994-3.51l-6.542-3.655l5.482-3.609l-4.934-2.891l-6.366,3.029
			l-2.217-1.281l5.545-3.524l-1.981-1.163l-6.408,3.047l-2.217-1.281l5.582-3.547l-6.208-3.637l1.29-2.002l5.981,3.292l0.285-6.634
			l2.217,1.281l0.563,7.035l2.005,1.103l0.275-6.495l2.217,1.28l0.551,6.891l5.484,3.02v-6.718l6.36,3.305l0.036-5.738l-5.806-3.998
			v-2.562l5.827,3.04l0.015-2.299l-5.842-4.024v-2.56l5.863,3.062L199.801,299.648L199.801,299.648z M201.115,330.131
			c-0.914,0-1.656,0.745-1.656,1.66c0,0.914,0.742,1.653,1.656,1.653c0.918,0,1.66-0.739,1.66-1.653
			C202.775,330.876,202.033,330.131,201.115,330.131L201.115,330.131z M206.318,330.346l-2.414,1.415l4.076,2.391l2.617-1.725
			L206.318,330.346L206.318,330.346z M198.366,331.761l-4.077-2.387l-2.613,1.72l4.276,2.084L198.366,331.761L198.366,331.761z
			 M196.037,336.679v3.43l3.522-2.097l-0.067-3.233L196.037,336.679L196.037,336.679z M202.654,334.71l-0.021,3.271l3.58,2.126
			v-3.44L202.654,334.71L202.654,334.71z M206.236,326.842v-3.425l-3.524,2.093l0.065,3.234L206.236,326.842L206.236,326.842z
			 M199.62,328.812l0.018-3.271l-3.577-2.126v3.438L199.62,328.812z"/>
	</g>
</g>
</svg>
