<?xml version="1.0" encoding="utf-8"?>
<!-- Generator: Adobe Illustrator 16.0.0, SVG Export Plug-In . SVG Version: 6.00 Build 0)  -->
<!DOCTYPE svg PUBLIC "-//W3C//DTD SVG 1.1//EN" "http://www.w3.org/Graphics/SVG/1.1/DTD/svg11.dtd">
<svg version="1.1" id="Layer_1" xmlns="http://www.w3.org/2000/svg" xmlns:xlink="http://www.w3.org/1999/xlink" x="0px" y="0px"
	 width="400px" height="400px" viewBox="0 0 400 400" enable-background="new 0 0 400 400" xml:space="preserve">
<g>
	<polygon opacity="0.502" fill="#FEBF10" enable-background="new    " points="55.926,239.404 111.62,236.896 70.011,274.009 
		123.334,257.712 92.27,304.023 139.87,274.98 121.292,327.54 160.162,287.596 155.241,343.123 182.972,294.764 192.016,349.772 
		206.838,296.029 229.281,347.065 230.268,291.327 264.698,335.172 251.787,280.939 296.047,314.848 270.057,265.529 
		321.35,287.371 283.914,246.068 339.036,254.46 292.506,223.759 347.973,218.169 295.27,200.021 347.609,180.832 292.052,176.33 
		337.962,144.726 283.025,154.205 319.658,112.163 268.803,135.002 293.814,85.176 250.242,119.945 262.087,65.464 228.521,109.984 
		226.434,54.269 204.986,105.734 189.131,52.287 181.158,107.458 152.497,59.635 158.509,115.068 118.849,75.879 138.446,128.062 
		90.29,99.958 122.254,145.634 68.623,130.407 110.941,166.701 55.21,165.265 105.219,189.892 50.889,202.379 105.455,213.794 	"/>
	
		<linearGradient id="SVGID_1_" gradientUnits="userSpaceOnUse" x1="-37.0547" y1="-167.4053" x2="-27.7566" y2="-167.4053" gradientTransform="matrix(4.975 27.578 27.544 -4.981 4979.98 304.4293)">
		<stop  offset="0" style="stop-color:#FEBF10"/>
		<stop  offset="1" style="stop-color:#F58020"/>
	</linearGradient>
	<polygon fill="url(#SVGID_1_)" points="41.708,265.618 104.755,254.706 62.767,302.968 121.101,276.723 92.432,333.918 
		142.413,293.979 128.875,356.509 167.353,305.398 169.787,369.329 194.343,310.25 212.609,371.562 221.691,308.255 
		254.639,363.085 247.704,299.501 293.23,344.436 270.691,284.568 325.977,316.763 289.253,264.372 350.824,281.816 
		302.221,240.204 366.186,241.779 308.777,213.575 371.105,199.195 308.469,186.145 365.298,156.72 301.387,159.654 349.1,117.031 
		287.912,135.764 323.527,82.606 268.934,115.966 290.195,55.624 245.631,101.501 251.225,37.773 219.46,93.31 209.018,30.186 
		192.052,91.876 166.266,33.327 165.175,97.29 125.631,46.999 140.489,109.238 89.672,70.355 119.539,126.929 60.65,101.92 
		103.647,149.284 40.391,139.705 93.822,174.895 30.166,181.34 90.67,202.141 30.618,224.202 94.385,229.303 	"/>
	
		<linearGradient id="SVGID_2_" gradientUnits="userSpaceOnUse" x1="-32.9893" y1="-165.6743" x2="-23.6927" y2="-165.6743" gradientTransform="matrix(3.341 18.504 18.504 -3.341 3364.8872 197.1836)">
		<stop  offset="0" style="stop-color:#FEBF10"/>
		<stop  offset="1" style="stop-color:#F58020"/>
	</linearGradient>
	<path fill="url(#SVGID_2_)" d="M85.214,207.204C79.712,144.228,126.35,88.625,189.328,83.122
		c62.986-5.501,118.581,41.136,124.083,104.123c5.501,62.983-41.138,118.578-104.12,124.076
		C146.309,316.825,90.717,270.188,85.214,207.204z"/>
	<path opacity="0.1176" fill="#F6EB16" enable-background="new    " d="M85.194,207.223
		c-5.512-62.987,41.147-118.58,104.118-124.093c62.986-5.503,118.577,41.146,124.083,104.122
		C323.396,260.38,96.5,283.268,85.194,207.223z"/>
	<path opacity="0.2549" fill="#F6EB16" enable-background="new    " d="M103.748,181.359c-15.511-24.675-0.873-59.979,32.683-78.804
		c33.537-18.833,73.35-14.094,88.858,10.57c15.509,24.682,0.854,59.987-32.692,78.81
		C159.053,210.764,119.248,206.021,103.748,181.359z"/>
	
		<linearGradient id="SVGID_3_" gradientUnits="userSpaceOnUse" x1="-46.5283" y1="-178.2676" x2="-37.2289" y2="-178.2676" gradientTransform="matrix(29.607 -19.987 -19.987 -29.607 -2097.2603 -5935.6592)">
		<stop  offset="0" style="stop-color:#F6EB16"/>
		<stop  offset="1" style="stop-color:#F58020"/>
	</linearGradient>
	<path fill="url(#SVGID_3_)" d="M197.595,309.279c3.776,0.062,7.588-0.081,11.461-0.409
		c61.602-5.394,107.237-59.789,101.846-121.391c-5.375-61.624-59.77-107.246-121.374-101.869
		c-61.618,5.395-107.257,59.77-101.863,121.383C92.706,264.759,140.823,308.473,197.595,309.279z M197.522,314.249
		c-59.286-0.838-109.54-46.478-114.816-106.819c-5.622-64.348,42.035-121.148,106.388-126.76
		c64.346-5.633,121.139,42.026,126.768,106.373c5.629,64.348-42.024,121.127-106.391,126.766
		C205.458,314.179,201.459,314.309,197.522,314.249z"/>
</g>
</svg>
