<?xml version="1.0" encoding="utf-8"?>
<!-- Generator: Adobe Illustrator 16.0.0, SVG Export Plug-In . SVG Version: 6.00 Build 0)  -->
<!DOCTYPE svg PUBLIC "-//W3C//DTD SVG 1.1//EN" "http://www.w3.org/Graphics/SVG/1.1/DTD/svg11.dtd">
<svg version="1.1" id="Layer_1" xmlns="http://www.w3.org/2000/svg" xmlns:xlink="http://www.w3.org/1999/xlink" x="0px" y="0px"
	 width="400px" height="400px" viewBox="0 0 400 400" enable-background="new 0 0 400 400" xml:space="preserve">
<g>
	<g>
		<linearGradient id="SVGID_1_" gradientUnits="userSpaceOnUse" x1="80.9014" y1="189.9092" x2="261.1123" y2="144.9775">
			<stop  offset="0" style="stop-color:#A1A1A1"/>
			<stop  offset="1" style="stop-color:#FFFFFF"/>
		</linearGradient>
		<path fill-rule="evenodd" clip-rule="evenodd" fill="url(#SVGID_1_)" d="M54.434,252.124c-19.005,0-34.417-15.413-34.417-34.419
			c0-16.025,10.96-29.491,25.789-33.321c-0.858-4.055-1.314-8.258-1.314-12.568c0-33.107,26.646-59.997,59.652-60.412
			c7.506-39.206,41.981-68.846,83.374-68.846c33.454,0,62.382,19.365,76.217,47.484c5.312-2.013,11.072-3.125,17.092-3.125
			c26.607,0,48.183,21.579,48.183,48.186c0,3.965-0.483,7.819-1.385,11.504c27.943,0.884,50.337,23.817,50.337,51.978
			c0,28.717-23.291,52.009-52.009,52.009C274.765,250.595,150.201,252.124,54.434,252.124z"/>
		<linearGradient id="SVGID_2_" gradientUnits="userSpaceOnUse" x1="280.8955" y1="142.4663" x2="147.8206" y2="242.7454">
			<stop  offset="0" style="stop-color:#A1A1A1"/>
			<stop  offset="1" style="stop-color:#FFFFFF"/>
		</linearGradient>
		<path fill-rule="evenodd" clip-rule="evenodd" fill="url(#SVGID_2_)" d="M295.179,250.705
			c-57.134,0.331-149.323,1.299-226.722,1.409c-6.629-8.624-10.335-19.562-9.724-31.267c1.304-24.918,21.686-44.328,46.243-44.818
			c-0.057-1.202-0.055-2.417,0.009-3.647c1.055-20.166,18.271-35.673,38.436-34.62c5.213,0.273,10.112,1.626,14.497,3.833
			c11.34-18.301,32.042-30.026,55.054-28.824c31.946,1.668,56.861,27.65,57.766,59.075c20.854,7.587,35.248,28.117,34.032,51.425
			C304.231,233.526,300.746,242.931,295.179,250.705z"/>
		<linearGradient id="SVGID_3_" gradientUnits="userSpaceOnUse" x1="223.9863" y1="177.9502" x2="264.9792" y2="270.0216">
			<stop  offset="0" style="stop-color:#A1A1A1"/>
			<stop  offset="1" style="stop-color:#FFFFFF"/>
		</linearGradient>
		<path fill-rule="evenodd" clip-rule="evenodd" fill="url(#SVGID_3_)" d="M361.745,236.31
			c-9.325,8.853-21.927,14.285-35.794,14.285c-35.922,0-107.979,0.753-180.86,1.205c5.863-11.812,16.111-21.133,28.725-25.724
			c0.903-31.424,25.821-57.407,57.765-59.078c23.012-1.202,43.716,10.527,55.055,28.824c4.383-2.203,9.28-3.557,14.495-3.83
			c20.166-1.053,37.383,14.45,38.436,34.62c0.066,1.226,0.066,2.441,0.011,3.646C347.582,230.418,355.146,232.594,361.745,236.31z"
			/>
	</g>
	<linearGradient id="SVGID_4_" gradientUnits="userSpaceOnUse" x1="235.375" y1="294.168" x2="70.0417" y2="371.2642">
		<stop  offset="0" style="stop-color:#5ABFD5"/>
		<stop  offset="1" style="stop-color:#0F298F"/>
	</linearGradient>
	<path fill="url(#SVGID_4_)" d="M59.891,294.094c-1.218,0.85-2.893,0.545-3.741-0.67c-0.846-1.22-0.545-2.895,0.674-3.741
		c23.822-16.55,47.141-23.516,70.433-22.856c23.215,0.653,46.288,8.891,69.721,22.75c22.597,13.369,45.73,18.636,68.995,17.928
		c23.354-0.708,46.907-7.446,70.233-18.062c1.354-0.615,2.95-0.018,3.564,1.333c0.615,1.354,0.018,2.946-1.337,3.564
		c-23.909,10.879-48.147,17.786-72.31,18.525c-24.251,0.735-48.352-4.749-71.876-18.664c-22.687-13.421-44.918-21.392-67.138-22.017
		C104.97,271.559,82.719,278.237,59.891,294.094L59.891,294.094z M59.891,336.035c22.829-15.859,45.079-22.535,67.219-21.914
		c22.219,0.625,44.451,8.597,67.138,22.018c23.524,13.918,47.625,19.399,71.876,18.663c24.162-0.735,48.4-7.643,72.31-18.525
		c1.354-0.614,1.952-2.21,1.337-3.561c-0.614-1.354-2.21-1.951-3.564-1.337c-23.326,10.617-46.88,17.355-70.233,18.066
		c-23.265,0.708-46.397-4.559-68.995-17.928c-23.433-13.863-46.505-22.101-69.721-22.753c-23.292-0.656-46.611,6.31-70.433,22.856
		c-1.219,0.85-1.52,2.521-0.674,3.74C56.998,336.58,58.673,336.881,59.891,336.035L59.891,336.035z M59.891,315.064
		c22.829-15.859,45.079-22.535,67.219-21.91c22.219,0.625,44.451,8.596,67.138,22.017c23.524,13.915,47.625,19.399,71.876,18.66
		c24.162-0.735,48.4-7.643,72.31-18.525c1.354-0.614,1.952-2.21,1.337-3.561c-0.614-1.351-2.21-1.948-3.564-1.333
		c-23.326,10.616-46.88,17.352-70.233,18.062c-23.265,0.708-46.397-4.559-68.995-17.928c-23.433-13.863-46.505-22.097-69.721-22.753
		c-23.292-0.656-46.611,6.31-70.433,22.859c-1.219,0.847-1.52,2.521-0.674,3.737C56.998,315.609,58.673,315.91,59.891,315.064z"/>
</g>
</svg>
