<?xml version="1.0" encoding="UTF-8"?>
<svg width="17px" height="15px" viewBox="0 0 17 15" version="1.1" xmlns="http://www.w3.org/2000/svg" xmlns:xlink="http://www.w3.org/1999/xlink">
   <title>breeze</title>
    <desc>Created with Sketch.</desc>
    <g id="Page-1" stroke="none" stroke-width="1" fill="none" fill-rule="evenodd">
        <g id="Weather-Page" transform="translate(-225.000000, -702.000000)">
            <g id="sunrise" transform="translate(199.000000, 644.000000)" fill="#999999" fill-rule="nonzero">
                <g id="Group-14">
                    <g id="icons/wind" transform="translate(26.000000, 58.000000)">
                        <path d="M13.6170319,2.72342553 C12.1129468,2.72342553 10.8936383,3.94273404 10.8936383,5.44681915 L12.2553191,5.44681915 C12.2553191,4.6947766 12.8649894,4.08510638 13.6170319,4.08510638 C14.3690745,4.08510638 14.9787447,4.69474468 14.9787447,5.44681915 C14.9787447,6.19889362 14.3690745,6.80853191 13.6170319,6.80853191 L4.08510638,6.80853191 L4.08510638,8.17024468 L13.6170319,8.17024468 C15.121117,8.17024468 16.3404255,6.95090426 16.3404255,5.44681915 C16.3404255,3.94273404 15.121117,2.72342553 13.6170319,2.72342553 Z" id="Path"></path>
                        <path d="M10.8439787,9.53192553 L2.72339362,9.53192553 L2.72339362,10.8936383 L10.8439787,10.8936383 C11.5960213,10.8936383 12.2056915,11.5033085 12.2056915,12.2553511 L12.2056915,12.3049787 C12.2056915,13.0296064 11.618266,13.6170638 10.8936064,13.6170638 L10.8936064,14.9787766 C12.3703085,14.9787766 13.5673723,13.7816809 13.5673723,12.3050106 L13.5673723,12.255383 C13.5673723,10.751234 12.3480957,9.53192553 10.8439787,9.53192553 Z" id="Path"></path>
                        <rect id="Rectangle" x="-1.77635684e-15" y="6.80853191" width="2.72339362" height="1.36171277"></rect>
                        <path d="M6.80032979,9.32587341e-14 C5.31912766,9.32587341e-14 4.1183617,1.20076596 4.1183617,2.68196809 L4.1183617,2.85405319 L5.48007447,2.85405319 L5.48007447,2.68196809 C5.48007447,1.95280851 6.07117021,1.36171277 6.80032979,1.36171277 C7.52948936,1.36171277 8.12058511,1.95280851 8.12058511,2.68196809 L8.12058511,2.72342553 C8.12058511,3.47546809 7.51091489,4.0851383 6.75887234,4.0851383 L1.36171277,4.0851383 L1.36171277,5.44681915 L6.75890426,5.44681915 C8.26298936,5.44681915 9.48229787,4.22751064 9.48229787,2.72342553 L9.48229787,2.68196809 C9.48229787,1.20076596 8.28153191,9.32587341e-14 6.80032979,9.32587341e-14 Z" id="Path"></path>
                    </g>
                </g>
            </g>
            <g id="Group" transform="translate(200.000000, 242.000000)"></g>
            <g id="breeze" transform="translate(225.000000, 702.000000)"></g>
        </g>
    </g>
</svg>