<svg width="20" height="20" viewBox="0 0 20 20" fill="none" xmlns="http://www.w3.org/2000/svg">
<path d="M18.6585 5.00083C15.8976 0.21875 9.78246 -1.41981 5.00076 1.34163C0.218675 4.10218 -1.41995 10.217 1.34149 14.9989C4.10204 19.781 10.217 21.4198 14.9987 18.6586C19.7809 15.8971 21.4203 9.7826 18.6585 5.00083ZM13.9991 16.9263C10.174 19.1355 5.28165 17.8246 3.07309 13.9988C0.864013 10.1737 2.17539 5.28135 6.00061 3.07323C9.82596 0.864151 14.7181 2.17495 16.9268 6.00068C19.1355 9.82635 17.8245 14.7176 13.9991 16.9263ZM13.5993 9.5936L8.36385 6.54018C7.88676 6.26164 7.50194 6.48434 7.50461 7.03619L7.53142 13.0969C7.53384 13.6486 7.92338 13.8732 8.40187 13.5969L13.5972 10.5973C14.0752 10.3215 14.0762 9.87214 13.5993 9.5936Z" fill="#AE2E3D"/>
</svg>
