<svg width="20" height="20" viewBox="0 0 20 20" fill="none" xmlns="http://www.w3.org/2000/svg">
<path d="M1.34058 14.9995C4.10201 19.7811 10.2166 21.4197 14.9983 18.6588C19.7803 15.8982 21.419 9.7829 18.6575 5.00057C15.897 0.219012 9.7821 -1.4198 5.00035 1.34106C0.218213 4.1023 -1.42066 10.2173 1.34058 14.9995ZM5.99994 3.07361C9.82553 0.864858 14.7174 2.17483 16.9259 6.00093C19.135 9.82626 17.8242 14.7186 13.9984 16.9272C10.1731 19.1358 5.28099 17.825 3.0723 13.9992C0.863549 10.1736 2.17453 5.2823 5.99994 3.07361ZM6.49983 11.0001L10.6703 11.0001L9.5496 12.1211C9.15963 12.5114 9.15963 13.1448 9.5496 13.5346C9.9399 13.9252 10.5735 13.9252 10.9638 13.5346L13.7913 10.7072C14.1816 10.3168 14.1816 9.68337 13.7913 9.29269L10.9638 6.46516C10.5735 6.07492 9.9399 6.07492 9.5496 6.46516C9.15962 6.85558 9.15962 7.48894 9.5496 7.87892L10.6708 8.99976L6.49976 8.99976C5.94772 8.99976 5.50017 9.44813 5.50017 9.9996L5.50017 10.0001C5.50024 10.5528 5.94778 11.0001 6.49983 11.0001Z" fill="#AE2E3D"/>
</svg>
