<svg height="32" viewBox="0 0 32 32" width="32" xmlns="http://www.w3.org/2000/svg"><path fill="currentColor" d="m27 22c-1.411 0-2.685.586-3.594 1.526l-13.469-6.734c.041-.258.063-.522.063-.791s-.022-.534-.063-.791l13.469-6.734c.909.94 2.183 1.526 3.594 1.526 2.761 0 5-2.239 5-5s-2.239-5-5-5-5 2.239-5 5c0 .269.022.534.063.791l-13.469 6.734c-.909-.94-2.183-1.526-3.594-1.526-2.761 0-5 2.239-5 5s2.239 5 5 5c1.411 0 2.685-.586 3.594-1.526l13.469 6.734c-.041.258-.063.522-.063.791 0 2.761 2.239 5 5 5s5-2.239 5-5-2.239-5-5-5z"/></svg>
